G04 #@! TF.GenerationSoftware,KiCad,Pcbnew,(5.1.12)-1*
G04 #@! TF.CreationDate,2023-09-29T20:02:25+09:00*
G04 #@! TF.ProjectId,JTNK66L,4a544e4b-3636-44c2-9e6b-696361645f70,rev?*
G04 #@! TF.SameCoordinates,Original*
G04 #@! TF.FileFunction,Copper,L2,Bot*
G04 #@! TF.FilePolarity,Positive*
%FSLAX46Y46*%
G04 Gerber Fmt 4.6, Leading zero omitted, Abs format (unit mm)*
G04 Created by KiCad (PCBNEW (5.1.12)-1) date 2023-09-29 20:02:25*
%MOMM*%
%LPD*%
G01*
G04 APERTURE LIST*
G04 #@! TA.AperFunction,ComponentPad*
%ADD10O,1.650000X2.300000*%
G04 #@! TD*
G04 #@! TA.AperFunction,ComponentPad*
%ADD11O,2.300000X1.650000*%
G04 #@! TD*
G04 #@! TA.AperFunction,ComponentPad*
%ADD12C,2.000000*%
G04 #@! TD*
G04 #@! TA.AperFunction,ComponentPad*
%ADD13R,3.200000X2.500000*%
G04 #@! TD*
G04 #@! TA.AperFunction,ComponentPad*
%ADD14C,1.524000*%
G04 #@! TD*
G04 #@! TA.AperFunction,ComponentPad*
%ADD15C,1.397000*%
G04 #@! TD*
G04 #@! TA.AperFunction,SMDPad,CuDef*
%ADD16R,2.200000X0.820000*%
G04 #@! TD*
G04 #@! TA.AperFunction,ComponentPad*
%ADD17O,1.500000X1.500000*%
G04 #@! TD*
G04 #@! TA.AperFunction,SMDPad,CuDef*
%ADD18R,0.950000X1.300000*%
G04 #@! TD*
G04 #@! TA.AperFunction,ViaPad*
%ADD19C,0.800000*%
G04 #@! TD*
G04 #@! TA.AperFunction,Conductor*
%ADD20C,0.250000*%
G04 #@! TD*
G04 #@! TA.AperFunction,Conductor*
%ADD21C,0.500000*%
G04 #@! TD*
G04 APERTURE END LIST*
D10*
X328250000Y-100075000D03*
D11*
X321250000Y-99025000D03*
D12*
X330850000Y-71556200D03*
X330850000Y-66556200D03*
D13*
X323850000Y-74656200D03*
X323850000Y-63456200D03*
D12*
X316350000Y-71556200D03*
X316350000Y-69056200D03*
X316350000Y-66556200D03*
D14*
X313905400Y-18700800D03*
X329125400Y-18700800D03*
X329125400Y-21240800D03*
X329125400Y-23780800D03*
X329125400Y-26320800D03*
X329125400Y-28860800D03*
X329125400Y-31400800D03*
X329125400Y-33940800D03*
X329125400Y-36480800D03*
X329125400Y-39020800D03*
X329125400Y-41560800D03*
X329125400Y-44100800D03*
X329125400Y-46640800D03*
X329125400Y-49180800D03*
X313905400Y-49180800D03*
X313905400Y-46640800D03*
X313905400Y-44100800D03*
X313905400Y-41560800D03*
X313905400Y-39020800D03*
X313905400Y-36480800D03*
X313905400Y-33940800D03*
X313905400Y-31400800D03*
X313905400Y-28860800D03*
X313905400Y-26320800D03*
X313905400Y-23780800D03*
X313905400Y-21240800D03*
D12*
X333375000Y-48493800D03*
X333375000Y-41993800D03*
D10*
X309200000Y-100075000D03*
D11*
X302200000Y-99025000D03*
D10*
X309200000Y-81025000D03*
D11*
X302200000Y-79975000D03*
D10*
X294912000Y-42925000D03*
D11*
X287912000Y-41875000D03*
D10*
X290150000Y-23875000D03*
D11*
X283150000Y-22825000D03*
D10*
X290150000Y-100075000D03*
D11*
X283150000Y-99025000D03*
D10*
X285388000Y-81025000D03*
D11*
X278388000Y-79975000D03*
D10*
X287769000Y-61975000D03*
D11*
X280769000Y-60925000D03*
D10*
X271100000Y-42925000D03*
D11*
X264100000Y-41875000D03*
D10*
X261575000Y-23875000D03*
D11*
X254575000Y-22825000D03*
D10*
X271100000Y-100075000D03*
D11*
X264100000Y-99025000D03*
D10*
X266338000Y-81025000D03*
D11*
X259338000Y-79975000D03*
D10*
X256812000Y-61975000D03*
D11*
X249812000Y-60925000D03*
D10*
X252050000Y-42925000D03*
D11*
X245050000Y-41875000D03*
D10*
X242525000Y-23875000D03*
D11*
X235525000Y-22825000D03*
D10*
X249669000Y-100075000D03*
D11*
X242669000Y-99025000D03*
D10*
X247288000Y-81025000D03*
D11*
X240288000Y-79975000D03*
D10*
X237762000Y-61975000D03*
D11*
X230762000Y-60925000D03*
D10*
X233000000Y-42925000D03*
D11*
X226000000Y-41875000D03*
D10*
X223475000Y-23875000D03*
D11*
X216475000Y-22825000D03*
D10*
X225856000Y-100075000D03*
D11*
X218856000Y-99025000D03*
D10*
X228238000Y-81025000D03*
D11*
X221238000Y-79975000D03*
D10*
X218712000Y-61975000D03*
D11*
X211712000Y-60925000D03*
D10*
X213950000Y-42925000D03*
D11*
X206950000Y-41875000D03*
D10*
X204425000Y-23875000D03*
D11*
X197425000Y-22825000D03*
D10*
X209188000Y-81025000D03*
D11*
X202188000Y-79975000D03*
D10*
X199662000Y-61975000D03*
D11*
X192662000Y-60925000D03*
D10*
X194900000Y-42925000D03*
D11*
X187900000Y-41875000D03*
D10*
X185375000Y-23875000D03*
D11*
X178375000Y-22825000D03*
D10*
X190138000Y-81025000D03*
D11*
X183138000Y-79975000D03*
D10*
X180612000Y-61975000D03*
D11*
X173612000Y-60925000D03*
D10*
X175850000Y-42925000D03*
D11*
X168850000Y-41875000D03*
D10*
X166325000Y-23875000D03*
D11*
X159325000Y-22825000D03*
D10*
X171088000Y-81025000D03*
D11*
X164088000Y-79975000D03*
D10*
X161562000Y-61975000D03*
D11*
X154562000Y-60925000D03*
D10*
X156800000Y-42925000D03*
D11*
X149800000Y-41875000D03*
D10*
X147275000Y-23875000D03*
D11*
X140275000Y-22825000D03*
D10*
X152038000Y-81025000D03*
D11*
X145038000Y-79975000D03*
D10*
X142512000Y-61975000D03*
D11*
X135512000Y-60925000D03*
D10*
X137750000Y-42925000D03*
D11*
X130750000Y-41875000D03*
D10*
X128225000Y-23875000D03*
D11*
X121225000Y-22825000D03*
D10*
X132988000Y-81025000D03*
D11*
X125988000Y-79975000D03*
D10*
X123462000Y-61975000D03*
D11*
X116462000Y-60925000D03*
D10*
X118700000Y-42925000D03*
D11*
X111700000Y-41875000D03*
D10*
X109175000Y-23875000D03*
D11*
X102175000Y-22825000D03*
D10*
X154419000Y-100075000D03*
D11*
X147419000Y-99025000D03*
D10*
X113938000Y-81025000D03*
D11*
X106938000Y-79975000D03*
D10*
X104412000Y-61975000D03*
D11*
X97412000Y-60925000D03*
D10*
X99650000Y-42925000D03*
D11*
X92650000Y-41875000D03*
D10*
X90125000Y-23875000D03*
D11*
X83125000Y-22825000D03*
D10*
X82981200Y-100075000D03*
D11*
X75981200Y-99025000D03*
D10*
X94887500Y-81025000D03*
D11*
X87887500Y-79975000D03*
D10*
X85362500Y-61975000D03*
D11*
X78362500Y-60925000D03*
D10*
X80600000Y-42925000D03*
D11*
X73600000Y-41875000D03*
D10*
X71075000Y-23875000D03*
D11*
X64075000Y-22825000D03*
D10*
X59168800Y-100075000D03*
D11*
X52168800Y-99025000D03*
D10*
X75837500Y-81025000D03*
D11*
X68837500Y-79975000D03*
D10*
X66312500Y-61975000D03*
D11*
X59312500Y-60925000D03*
D10*
X61550000Y-42925000D03*
D11*
X54550000Y-41875000D03*
D10*
X52025000Y-23875000D03*
D11*
X45025000Y-22825000D03*
D10*
X35356200Y-100075000D03*
D11*
X28356200Y-99025000D03*
D10*
X44881200Y-81025000D03*
D11*
X37881200Y-79975000D03*
D10*
X40118800Y-61975000D03*
D11*
X33118800Y-60925000D03*
D10*
X37737500Y-42925000D03*
D11*
X30737500Y-41875000D03*
D10*
X32975000Y-23875000D03*
D11*
X25975000Y-22825000D03*
D15*
X325730000Y-54950000D03*
X323190000Y-54950000D03*
X320650000Y-54950000D03*
X318110000Y-54950000D03*
D16*
X28006200Y-110288000D03*
X28006200Y-108788000D03*
X33906200Y-108788000D03*
X33906200Y-110288000D03*
X51818800Y-110288000D03*
X51818800Y-108788000D03*
X57718800Y-108788000D03*
X57718800Y-110288000D03*
X37531200Y-91237500D03*
X37531200Y-89737500D03*
X43431200Y-89737500D03*
X43431200Y-91237500D03*
X32768800Y-72187500D03*
X32768800Y-70687500D03*
X38668800Y-70687500D03*
X38668800Y-72187500D03*
X30387500Y-53137500D03*
X30387500Y-51637500D03*
X36287500Y-51637500D03*
X36287500Y-53137500D03*
X25625000Y-34087500D03*
X25625000Y-32587500D03*
X31525000Y-32587500D03*
X31525000Y-34087500D03*
X44675000Y-34087500D03*
X44675000Y-32587500D03*
X50575000Y-32587500D03*
X50575000Y-34087500D03*
X54200000Y-53137500D03*
X54200000Y-51637500D03*
X60100000Y-51637500D03*
X60100000Y-53137500D03*
X58962500Y-72187500D03*
X58962500Y-70687500D03*
X64862500Y-70687500D03*
X64862500Y-72187500D03*
X68487500Y-91237500D03*
X68487500Y-89737500D03*
X74387500Y-89737500D03*
X74387500Y-91237500D03*
X75631200Y-110288000D03*
X75631200Y-108788000D03*
X81531200Y-108788000D03*
X81531200Y-110288000D03*
X87537500Y-91237500D03*
X87537500Y-89737500D03*
X93437500Y-89737500D03*
X93437500Y-91237500D03*
X78012500Y-72187500D03*
X78012500Y-70687500D03*
X83912500Y-70687500D03*
X83912500Y-72187500D03*
X73250000Y-53137500D03*
X73250000Y-51637500D03*
X79150000Y-51637500D03*
X79150000Y-53137500D03*
X63725000Y-34087500D03*
X63725000Y-32587500D03*
X69625000Y-32587500D03*
X69625000Y-34087500D03*
X82775000Y-34087500D03*
X82775000Y-32587500D03*
X88675000Y-32587500D03*
X88675000Y-34087500D03*
X92300000Y-53137500D03*
X92300000Y-51637500D03*
X98200000Y-51637500D03*
X98200000Y-53137500D03*
X97062000Y-72187500D03*
X97062000Y-70687500D03*
X102962000Y-70687500D03*
X102962000Y-72187500D03*
X106588000Y-91237500D03*
X106588000Y-89737500D03*
X112488000Y-89737500D03*
X112488000Y-91237500D03*
X125638000Y-91237500D03*
X125638000Y-89737500D03*
X131538000Y-89737500D03*
X131538000Y-91237500D03*
X116112000Y-72187500D03*
X116112000Y-70687500D03*
X122012000Y-70687500D03*
X122012000Y-72187500D03*
X111350000Y-53137500D03*
X111350000Y-51637500D03*
X117250000Y-51637500D03*
X117250000Y-53137500D03*
X101825000Y-34087500D03*
X101825000Y-32587500D03*
X107725000Y-32587500D03*
X107725000Y-34087500D03*
X120875000Y-34087500D03*
X120875000Y-32587500D03*
X126775000Y-32587500D03*
X126775000Y-34087500D03*
X130400000Y-53137500D03*
X130400000Y-51637500D03*
X136300000Y-51637500D03*
X136300000Y-53137500D03*
X135162000Y-72187500D03*
X135162000Y-70687500D03*
X141062000Y-70687500D03*
X141062000Y-72187500D03*
X144688000Y-91237500D03*
X144688000Y-89737500D03*
X150588000Y-89737500D03*
X150588000Y-91237500D03*
X147069000Y-110288000D03*
X147069000Y-108788000D03*
X152969000Y-108788000D03*
X152969000Y-110288000D03*
X163738000Y-91237500D03*
X163738000Y-89737500D03*
X169638000Y-89737500D03*
X169638000Y-91237500D03*
X154212000Y-72187500D03*
X154212000Y-70687500D03*
X160112000Y-70687500D03*
X160112000Y-72187500D03*
X149450000Y-53137500D03*
X149450000Y-51637500D03*
X155350000Y-51637500D03*
X155350000Y-53137500D03*
X139925000Y-34087500D03*
X139925000Y-32587500D03*
X145825000Y-32587500D03*
X145825000Y-34087500D03*
X158975000Y-34087500D03*
X158975000Y-32587500D03*
X164875000Y-32587500D03*
X164875000Y-34087500D03*
X168500000Y-53137500D03*
X168500000Y-51637500D03*
X174400000Y-51637500D03*
X174400000Y-53137500D03*
X173262000Y-72187500D03*
X173262000Y-70687500D03*
X179162000Y-70687500D03*
X179162000Y-72187500D03*
X182788000Y-91237500D03*
X182788000Y-89737500D03*
X188688000Y-89737500D03*
X188688000Y-91237500D03*
X201838000Y-91237500D03*
X201838000Y-89737500D03*
X207738000Y-89737500D03*
X207738000Y-91237500D03*
X192312000Y-72187500D03*
X192312000Y-70687500D03*
X198212000Y-70687500D03*
X198212000Y-72187500D03*
X187550000Y-53137500D03*
X187550000Y-51637500D03*
X193450000Y-51637500D03*
X193450000Y-53137500D03*
X178025000Y-34087500D03*
X178025000Y-32587500D03*
X183925000Y-32587500D03*
X183925000Y-34087500D03*
X197075000Y-34087500D03*
X197075000Y-32587500D03*
X202975000Y-32587500D03*
X202975000Y-34087500D03*
X206600000Y-53137500D03*
X206600000Y-51637500D03*
X212500000Y-51637500D03*
X212500000Y-53137500D03*
X211362000Y-72187500D03*
X211362000Y-70687500D03*
X217262000Y-70687500D03*
X217262000Y-72187500D03*
X220888000Y-91237500D03*
X220888000Y-89737500D03*
X226788000Y-89737500D03*
X226788000Y-91237500D03*
X218506000Y-110288000D03*
X218506000Y-108788000D03*
X224406000Y-108788000D03*
X224406000Y-110288000D03*
X242319000Y-110288000D03*
X242319000Y-108788000D03*
X248219000Y-108788000D03*
X248219000Y-110288000D03*
X239938000Y-91237500D03*
X239938000Y-89737500D03*
X245838000Y-89737500D03*
X245838000Y-91237500D03*
X230412000Y-72187500D03*
X230412000Y-70687500D03*
X236312000Y-70687500D03*
X236312000Y-72187500D03*
X225650000Y-53137500D03*
X225650000Y-51637500D03*
X231550000Y-51637500D03*
X231550000Y-53137500D03*
X216125000Y-34087500D03*
X216125000Y-32587500D03*
X222025000Y-32587500D03*
X222025000Y-34087500D03*
X235175000Y-34087500D03*
X235175000Y-32587500D03*
X241075000Y-32587500D03*
X241075000Y-34087500D03*
X244700000Y-53137500D03*
X244700000Y-51637500D03*
X250600000Y-51637500D03*
X250600000Y-53137500D03*
X249462000Y-72187500D03*
X249462000Y-70687500D03*
X255362000Y-70687500D03*
X255362000Y-72187500D03*
X258988000Y-91237500D03*
X258988000Y-89737500D03*
X264888000Y-89737500D03*
X264888000Y-91237500D03*
X263750000Y-110288000D03*
X263750000Y-108788000D03*
X269650000Y-108788000D03*
X269650000Y-110288000D03*
X282800000Y-110288000D03*
X282800000Y-108788000D03*
X288700000Y-108788000D03*
X288700000Y-110288000D03*
X278038000Y-91237500D03*
X278038000Y-89737500D03*
X283938000Y-89737500D03*
X283938000Y-91237500D03*
X280419000Y-72187500D03*
X280419000Y-70687500D03*
X286319000Y-70687500D03*
X286319000Y-72187500D03*
X263750000Y-53137500D03*
X263750000Y-51637500D03*
X269650000Y-51637500D03*
X269650000Y-53137500D03*
X254225000Y-34087500D03*
X254225000Y-32587500D03*
X260125000Y-32587500D03*
X260125000Y-34087500D03*
X282800000Y-34087500D03*
X282800000Y-32587500D03*
X288700000Y-32587500D03*
X288700000Y-34087500D03*
X287562000Y-53137500D03*
X287562000Y-51637500D03*
X293462000Y-51637500D03*
X293462000Y-53137500D03*
X301850000Y-91237500D03*
X301850000Y-89737500D03*
X307750000Y-89737500D03*
X307750000Y-91237500D03*
X301850000Y-110288000D03*
X301850000Y-108788000D03*
X307750000Y-108788000D03*
X307750000Y-110288000D03*
X320900000Y-110288000D03*
X320900000Y-108788000D03*
X326800000Y-108788000D03*
X326800000Y-110288000D03*
X320900000Y-79331200D03*
X320900000Y-77831200D03*
X326800000Y-77831200D03*
X326800000Y-79331200D03*
D17*
X321350000Y-83393800D03*
X323850000Y-83393800D03*
X326350000Y-83393800D03*
D18*
X314325000Y-103000000D03*
X314325000Y-106550000D03*
X330994000Y-79187500D03*
X330994000Y-82737500D03*
X295275000Y-103000000D03*
X295275000Y-106550000D03*
X295275000Y-83950000D03*
X295275000Y-87500000D03*
X280988000Y-45850000D03*
X280988000Y-49400000D03*
X276225000Y-33943800D03*
X276225000Y-37493800D03*
X276225000Y-103000000D03*
X276225000Y-106550000D03*
X271462000Y-83950000D03*
X271462000Y-87500000D03*
X273844000Y-72043800D03*
X273844000Y-75593800D03*
X257175000Y-45850000D03*
X257175000Y-49400000D03*
X247650000Y-26800000D03*
X247650000Y-30350000D03*
X257175000Y-103000000D03*
X257175000Y-106550000D03*
X252412000Y-83343800D03*
X252412000Y-86893800D03*
X242888000Y-64900000D03*
X242888000Y-68450000D03*
X238125000Y-45850000D03*
X238125000Y-49400000D03*
X228600000Y-26800000D03*
X228600000Y-30350000D03*
X235744000Y-103000000D03*
X235744000Y-106550000D03*
X233362000Y-83950000D03*
X233362000Y-87500000D03*
X223838000Y-64900000D03*
X223838000Y-68450000D03*
X219075000Y-45850000D03*
X219075000Y-49400000D03*
X209550000Y-26800000D03*
X209550000Y-30350000D03*
X211931000Y-103000000D03*
X211931000Y-106550000D03*
X214312000Y-83950000D03*
X214312000Y-87500000D03*
X204788000Y-64900000D03*
X204788000Y-68450000D03*
X200025000Y-45850000D03*
X200025000Y-49400000D03*
X190500000Y-26800000D03*
X190500000Y-30350000D03*
X195262000Y-83950000D03*
X195262000Y-87500000D03*
X185738000Y-64900000D03*
X185738000Y-68450000D03*
X180975000Y-45850000D03*
X180975000Y-49400000D03*
X171450000Y-26800000D03*
X171450000Y-30350000D03*
X176212000Y-83950000D03*
X176212000Y-87500000D03*
X166688000Y-64900000D03*
X166688000Y-68450000D03*
X161925000Y-45850000D03*
X161925000Y-49400000D03*
X152400000Y-26800000D03*
X152400000Y-30350000D03*
X157162000Y-83950000D03*
X157162000Y-87500000D03*
X147638000Y-64900000D03*
X147638000Y-68450000D03*
X142875000Y-45850000D03*
X142875000Y-49400000D03*
X133350000Y-26800000D03*
X133350000Y-30350000D03*
X138112000Y-83950000D03*
X138112000Y-87500000D03*
X128588000Y-64900000D03*
X128588000Y-68450000D03*
X123825000Y-45850000D03*
X123825000Y-49400000D03*
X114300000Y-26800000D03*
X114300000Y-30350000D03*
X119062000Y-83950000D03*
X119062000Y-87500000D03*
X109538000Y-64900000D03*
X109538000Y-68450000D03*
X104775000Y-45850000D03*
X104775000Y-49400000D03*
X95250000Y-26800000D03*
X95250000Y-30350000D03*
X140494000Y-103000000D03*
X140494000Y-106550000D03*
X100012000Y-83950000D03*
X100012000Y-87500000D03*
X90487500Y-64900000D03*
X90487500Y-68450000D03*
X85725000Y-45850000D03*
X85725000Y-49400000D03*
X76200000Y-26800000D03*
X76200000Y-30350000D03*
X69056200Y-103000000D03*
X69056200Y-106550000D03*
X80962500Y-83950000D03*
X80962500Y-87500000D03*
X73818800Y-64900000D03*
X73818800Y-68450000D03*
X69056200Y-45850000D03*
X69056200Y-49400000D03*
X57150000Y-26800000D03*
X57150000Y-30350000D03*
X45243800Y-103000000D03*
X45243800Y-106550000D03*
X61912500Y-83950000D03*
X61912500Y-87500000D03*
X52387500Y-64900000D03*
X52387500Y-68450000D03*
X47625000Y-45850000D03*
X47625000Y-49400000D03*
X38100000Y-26800000D03*
X38100000Y-30350000D03*
X21431200Y-103000000D03*
X21431200Y-106550000D03*
X30956200Y-91093800D03*
X30956200Y-94643800D03*
X26193800Y-64285000D03*
X26193800Y-67835000D03*
X23812500Y-45685000D03*
X23812500Y-49235000D03*
X19050000Y-26800000D03*
X19050000Y-30350000D03*
D19*
X257426500Y-53023200D03*
X277489300Y-72901400D03*
X330000042Y-81298300D03*
X307493100Y-56292600D03*
X304901600Y-70389200D03*
X318345900Y-95221400D03*
X174425050Y-28175050D03*
X172800050Y-29800050D03*
X275551900Y-75308900D03*
X25750000Y-108750000D03*
X35000000Y-89750000D03*
X48000000Y-108750000D03*
X29250000Y-70500000D03*
X27250000Y-51750000D03*
X72250000Y-109000000D03*
X65250000Y-89750000D03*
X56000000Y-70750000D03*
X50750000Y-51500000D03*
X41750000Y-32750000D03*
X84000000Y-89750000D03*
X75500000Y-70500000D03*
X73600000Y-51637500D03*
X70750000Y-52000000D03*
X60750000Y-32750000D03*
X103750000Y-90000000D03*
X93250000Y-70750000D03*
X88750000Y-51500000D03*
X79750000Y-32250000D03*
X122000000Y-89750000D03*
X113000000Y-71000000D03*
X107781000Y-51468800D03*
X102175000Y-32587500D03*
X97750000Y-32500000D03*
X142750000Y-108750000D03*
X145038000Y-89737500D03*
X141250000Y-90000000D03*
X132500000Y-70750000D03*
X127500000Y-51750000D03*
X117250000Y-32500000D03*
X160500000Y-89750000D03*
X150750000Y-70750000D03*
X145469000Y-51468800D03*
X136000000Y-32750000D03*
X179500000Y-89750000D03*
X170000000Y-70750000D03*
X165500000Y-51750000D03*
X155500000Y-32500000D03*
X198500000Y-89750000D03*
X189000000Y-70750000D03*
X183719000Y-51718800D03*
X175250000Y-33250000D03*
X215500000Y-108500000D03*
X218250000Y-89750000D03*
X207750000Y-70750000D03*
X202719000Y-51968800D03*
X193750000Y-33250000D03*
X242669000Y-108788000D03*
X238750000Y-109000000D03*
X235500000Y-90000000D03*
X225750000Y-71000000D03*
X221456000Y-51456200D03*
X211931000Y-33337500D03*
X230981000Y-33337500D03*
X259556000Y-109538000D03*
X254794000Y-90487500D03*
X245269000Y-71437500D03*
X250031000Y-35718800D03*
X240506000Y-50006200D03*
X278606000Y-109538000D03*
X273844000Y-90487500D03*
X276225000Y-71437500D03*
X259556000Y-52387500D03*
X283369000Y-52387500D03*
X297656000Y-107156000D03*
X297656000Y-88106200D03*
X278606000Y-35718800D03*
X316706000Y-107156000D03*
X309594000Y-23780800D03*
X316810010Y-78581200D03*
X23250000Y-32499990D03*
X319176500Y-109967100D03*
X331753900Y-90568600D03*
X299585500Y-91714300D03*
X309515700Y-106672300D03*
X258704200Y-53804200D03*
X272972400Y-86060300D03*
X279778900Y-37735200D03*
X282500400Y-39875900D03*
X261692500Y-52505100D03*
X263607200Y-37735200D03*
X267711500Y-55883600D03*
X271365700Y-51637500D03*
X280612000Y-79702300D03*
X288129800Y-72598600D03*
X282289500Y-104353400D03*
X287675000Y-91999300D03*
X257261200Y-91188400D03*
X269767300Y-102572600D03*
X247757800Y-71803100D03*
X258893800Y-82421800D03*
X242971400Y-53898300D03*
X250823400Y-63721000D03*
X235859200Y-37735200D03*
X239646900Y-40671000D03*
X249072350Y-42677650D03*
X251197350Y-44802650D03*
X225336500Y-44416500D03*
X226468000Y-37113300D03*
X232842800Y-60298600D03*
X233354100Y-53898300D03*
X238223200Y-90872500D03*
X238964600Y-70844900D03*
X240606900Y-109869300D03*
X248071600Y-90794300D03*
X219164000Y-92013700D03*
X224165100Y-102577100D03*
X208762800Y-72965100D03*
X216377800Y-86759800D03*
X204000600Y-53907000D03*
X206662300Y-68090700D03*
X203606500Y-37738300D03*
X205818500Y-45435500D03*
X184915100Y-53653600D03*
X188533000Y-37738000D03*
X190532900Y-71843200D03*
X195154500Y-51977500D03*
X199819000Y-90619900D03*
X199868900Y-71469200D03*
X171551500Y-71973200D03*
X188770100Y-83763300D03*
X166648800Y-53898300D03*
X170200000Y-60029800D03*
X166166700Y-37014000D03*
X175110700Y-45770300D03*
X147142100Y-52345700D03*
X150125700Y-37507200D03*
X152131000Y-71794400D03*
X156936200Y-50858500D03*
X161764600Y-83673700D03*
X161764600Y-72910700D03*
X145252900Y-111045300D03*
X172007000Y-90794300D03*
X142974600Y-91529600D03*
X200580210Y-110486210D03*
X133432500Y-71948900D03*
X150647900Y-87251800D03*
X128659300Y-53898300D03*
X141326700Y-66159700D03*
X126881400Y-37712600D03*
X130106700Y-44214700D03*
X109015400Y-53653600D03*
X112972500Y-37735200D03*
X115020800Y-64467400D03*
X116833400Y-50617700D03*
X123740300Y-90605300D03*
X123740300Y-72935100D03*
X95340900Y-71668900D03*
X113010965Y-84323135D03*
X87525200Y-53907000D03*
X88119600Y-56355100D03*
X89584900Y-37739100D03*
X91900800Y-44810000D03*
X72181300Y-47640400D03*
X74646400Y-37722200D03*
X79089400Y-59472700D03*
X81027200Y-53915400D03*
X84580200Y-90641100D03*
X84878200Y-69676700D03*
X73904400Y-110019000D03*
X95266700Y-92004100D03*
X66761600Y-91982000D03*
X76287400Y-101823400D03*
X57249300Y-71843200D03*
X74602700Y-83517500D03*
X52465900Y-53653600D03*
X64831700Y-64271700D03*
X51638000Y-36977800D03*
X60072800Y-45400700D03*
X29384900Y-48067300D03*
X36868800Y-37735200D03*
X23067600Y-75274500D03*
X40378100Y-72751500D03*
X52250900Y-102585300D03*
X56212300Y-92016500D03*
X312018600Y-27006500D03*
X214625800Y-21322800D03*
X184579400Y-37007200D03*
X63040400Y-83195600D03*
X208599200Y-37739100D03*
X56538000Y-37739100D03*
X75972600Y-37735200D03*
X222333500Y-36596800D03*
X308502800Y-38493600D03*
X303545500Y-70166000D03*
X92958500Y-37471400D03*
X247789400Y-37735200D03*
X108637100Y-37007700D03*
X264816500Y-37735200D03*
X265444100Y-77599300D03*
X258395800Y-48671900D03*
X270133300Y-34681500D03*
X267711500Y-37645900D03*
X265373000Y-39712400D03*
X132568500Y-37739100D03*
X304589200Y-32731400D03*
X306799100Y-34971700D03*
X152222600Y-37739100D03*
X216390800Y-93731100D03*
X328250000Y-61000000D03*
X171886700Y-37739100D03*
X165602100Y-27627000D03*
D20*
X32975000Y-23875000D02*
X31824900Y-23875000D01*
X19050000Y-26800000D02*
X19850100Y-26800000D01*
X19850100Y-26800000D02*
X19850100Y-26299900D01*
X19850100Y-26299900D02*
X24925400Y-21224600D01*
X24925400Y-21224600D02*
X29174500Y-21224600D01*
X29174500Y-21224600D02*
X31824900Y-23875000D01*
X247650000Y-26312400D02*
X247650000Y-25824900D01*
X247650000Y-26800000D02*
X247650000Y-26312400D01*
X228600000Y-26800000D02*
X229400100Y-26800000D01*
X229400100Y-26800000D02*
X234532000Y-21668100D01*
X234532000Y-21668100D02*
X243493200Y-21668100D01*
X243493200Y-21668100D02*
X247650000Y-25824900D01*
X228379500Y-26800000D02*
X228600000Y-26800000D01*
X171450000Y-26800000D02*
X172250100Y-26800000D01*
X172250100Y-26800000D02*
X177390800Y-21659300D01*
X177390800Y-21659300D02*
X185113100Y-21659300D01*
X185113100Y-21659300D02*
X190100000Y-26646200D01*
X190100000Y-26646200D02*
X190100000Y-26800000D01*
X153200100Y-30350000D02*
X158401000Y-25149100D01*
X158401000Y-25149100D02*
X164853100Y-25149100D01*
X164853100Y-25149100D02*
X166504000Y-26800000D01*
X166504000Y-26800000D02*
X171450000Y-26800000D01*
X152400000Y-30350000D02*
X153200100Y-30350000D01*
X113499900Y-25498000D02*
X117776200Y-21221700D01*
X117776200Y-21221700D02*
X128163300Y-21221700D01*
X128163300Y-21221700D02*
X132370900Y-25429300D01*
X113499900Y-30350000D02*
X113499900Y-25498000D01*
X19050000Y-29374900D02*
X22579400Y-25845500D01*
X22579400Y-25845500D02*
X22579400Y-24211300D01*
X22579400Y-24211300D02*
X25115900Y-21674800D01*
X25115900Y-21674800D02*
X28325000Y-21674800D01*
X28325000Y-21674800D02*
X34392500Y-27742300D01*
X34392500Y-27742300D02*
X35492200Y-27742300D01*
X93943700Y-25024600D02*
X90555400Y-21636300D01*
X90555400Y-21636300D02*
X78717500Y-21636300D01*
X78717500Y-21636300D02*
X75399900Y-24953900D01*
X94449900Y-30350000D02*
X93943700Y-29843800D01*
X93943700Y-29843800D02*
X93943700Y-25024600D01*
X95250000Y-30350000D02*
X94449900Y-30350000D01*
X75399900Y-24953900D02*
X75399900Y-30350000D01*
X55899700Y-25057100D02*
X59738900Y-21217900D01*
X59738900Y-21217900D02*
X71663900Y-21217900D01*
X71663900Y-21217900D02*
X75399900Y-24953900D01*
X228379500Y-26800000D02*
X227799900Y-26800000D01*
X276225000Y-33943800D02*
X277101200Y-33943800D01*
X277101200Y-33943800D02*
X278258900Y-32786100D01*
X278258900Y-32786100D02*
X278258900Y-30548800D01*
X278258900Y-30548800D02*
X286930400Y-21877300D01*
X286930400Y-21877300D02*
X290774200Y-21877300D01*
X290774200Y-21877300D02*
X292021500Y-23124600D01*
X292021500Y-23124600D02*
X292021500Y-32108500D01*
X292021500Y-32108500D02*
X293397400Y-33484400D01*
X293397400Y-33484400D02*
X306601800Y-33484400D01*
X306601800Y-33484400D02*
X312320200Y-27766000D01*
X312320200Y-27766000D02*
X314446900Y-27766000D01*
X314446900Y-27766000D02*
X318081700Y-31400800D01*
X318081700Y-31400800D02*
X329125400Y-31400800D01*
X210350100Y-26800000D02*
X215496500Y-21653600D01*
X215496500Y-21653600D02*
X223253600Y-21653600D01*
X223253600Y-21653600D02*
X227799900Y-26199900D01*
X227799900Y-26199900D02*
X227799900Y-26800000D01*
X209550000Y-26800000D02*
X208749900Y-26800000D01*
X190100000Y-26800000D02*
X195715900Y-21184100D01*
X195715900Y-21184100D02*
X203734100Y-21184100D01*
X203734100Y-21184100D02*
X208749900Y-26199900D01*
X208749900Y-26199900D02*
X208749900Y-26800000D01*
X190500000Y-26800000D02*
X190100000Y-26800000D01*
X55899700Y-25057100D02*
X55899700Y-29899800D01*
X55899700Y-29899800D02*
X56349900Y-30350000D01*
X35492200Y-27742300D02*
X41560800Y-21673700D01*
X41560800Y-21673700D02*
X52516300Y-21673700D01*
X52516300Y-21673700D02*
X55899700Y-25057100D01*
X76200000Y-30350000D02*
X75399900Y-30350000D01*
X35492200Y-27742300D02*
X37299900Y-29550000D01*
X37299900Y-29550000D02*
X37299900Y-30350000D01*
X38100000Y-30350000D02*
X37299900Y-30350000D01*
X19050000Y-30350000D02*
X19050000Y-29374900D01*
X114300000Y-30350000D02*
X113499900Y-30350000D01*
X57150000Y-30350000D02*
X56349900Y-30350000D01*
X133350000Y-29374900D02*
X132370900Y-28395800D01*
X132370900Y-28395800D02*
X132370900Y-25429300D01*
X209550000Y-26800000D02*
X210350100Y-26800000D01*
X133350000Y-30350000D02*
X133350000Y-29374900D01*
X151599900Y-30274900D02*
X151675000Y-30350000D01*
X151599900Y-26206300D02*
X151599900Y-30274900D01*
X145993578Y-20599978D02*
X151599900Y-26206300D01*
X137200222Y-20599978D02*
X145993578Y-20599978D01*
X151675000Y-30350000D02*
X152400000Y-30350000D01*
X132370900Y-25429300D02*
X137200222Y-20599978D01*
X263122800Y-21099978D02*
X269334756Y-27311934D01*
X274699900Y-33143700D02*
X275500000Y-33943800D01*
X269334756Y-27311934D02*
X269334756Y-32725432D01*
X275500000Y-33943800D02*
X276225000Y-33943800D01*
X269753024Y-33143700D02*
X274699900Y-33143700D01*
X269334756Y-32725432D02*
X269753024Y-33143700D01*
X252862422Y-21099978D02*
X263122800Y-21099978D01*
X247650000Y-26312400D02*
X252862422Y-21099978D01*
X97468300Y-21500000D02*
X93943700Y-25024600D01*
X109501900Y-21500000D02*
X97468300Y-21500000D01*
X113499900Y-25498000D02*
X109501900Y-21500000D01*
X37737500Y-42925000D02*
X32228978Y-42925000D01*
X29468978Y-45685000D02*
X24537500Y-45685000D01*
X32228978Y-42925000D02*
X29468978Y-45685000D01*
X24537500Y-45685000D02*
X23812500Y-45685000D01*
X180975000Y-45850000D02*
X180174900Y-45850000D01*
X161925000Y-49400000D02*
X162725100Y-49400000D01*
X162725100Y-49400000D02*
X167429400Y-44695700D01*
X167429400Y-44695700D02*
X179020600Y-44695700D01*
X179020600Y-44695700D02*
X180174900Y-45850000D01*
X161525000Y-49400000D02*
X161925000Y-49400000D01*
X161525000Y-49400000D02*
X161124900Y-49400000D01*
X84924900Y-49400000D02*
X80187500Y-44662600D01*
X80187500Y-44662600D02*
X74133700Y-44662600D01*
X74133700Y-44662600D02*
X69856300Y-48940000D01*
X69856300Y-48940000D02*
X69856300Y-49400000D01*
X69056200Y-49400000D02*
X68256100Y-49400000D01*
X47625000Y-49400000D02*
X48425100Y-49400000D01*
X48425100Y-49400000D02*
X53150000Y-44675100D01*
X53150000Y-44675100D02*
X63531200Y-44675100D01*
X63531200Y-44675100D02*
X68256100Y-49400000D01*
X257175000Y-45850000D02*
X257975100Y-45850000D01*
X257975100Y-45850000D02*
X263125800Y-40699300D01*
X263125800Y-40699300D02*
X275037200Y-40699300D01*
X275037200Y-40699300D02*
X280187900Y-45850000D01*
X256575000Y-45850000D02*
X257175000Y-45850000D01*
X280988000Y-45850000D02*
X280187900Y-45850000D01*
X256575000Y-45850000D02*
X256373400Y-46051600D01*
X256373400Y-46051600D02*
X256373400Y-51970100D01*
X256373400Y-51970100D02*
X257426500Y-53023200D01*
X236689800Y-41554200D02*
X238321200Y-39922800D01*
X238321200Y-39922800D02*
X251104800Y-39922800D01*
X251104800Y-39922800D02*
X256575000Y-45393000D01*
X256575000Y-45393000D02*
X256575000Y-45850000D01*
X219875100Y-45850000D02*
X222483900Y-43241200D01*
X222483900Y-43241200D02*
X228961500Y-43241200D01*
X228961500Y-43241200D02*
X230769300Y-41433400D01*
X230769300Y-41433400D02*
X236569000Y-41433400D01*
X236569000Y-41433400D02*
X236689800Y-41554200D01*
X236689800Y-41554200D02*
X236689800Y-45214900D01*
X236689800Y-45214900D02*
X237324900Y-45850000D01*
X219075000Y-45850000D02*
X218274900Y-45850000D01*
X199741600Y-45850000D02*
X201501000Y-44090600D01*
X201501000Y-44090600D02*
X207301800Y-44090600D01*
X207301800Y-44090600D02*
X209962200Y-41430200D01*
X209962200Y-41430200D02*
X214455200Y-41430200D01*
X214455200Y-41430200D02*
X218274900Y-45249900D01*
X218274900Y-45249900D02*
X218274900Y-45850000D01*
X199741600Y-45850000D02*
X199224900Y-45850000D01*
X200025000Y-45850000D02*
X199741600Y-45850000D01*
X142875000Y-49400000D02*
X143675100Y-49400000D01*
X143675100Y-49400000D02*
X148376100Y-44699000D01*
X148376100Y-44699000D02*
X156423900Y-44699000D01*
X156423900Y-44699000D02*
X161124900Y-49400000D01*
X124625100Y-49400000D02*
X124625100Y-48599900D01*
X124625100Y-48599900D02*
X129735400Y-43489600D01*
X129735400Y-43489600D02*
X134389600Y-43489600D01*
X134389600Y-43489600D02*
X140300000Y-49400000D01*
X140300000Y-49400000D02*
X142875000Y-49400000D01*
X123825000Y-49400000D02*
X123024900Y-49400000D01*
X104775000Y-49400000D02*
X105575100Y-49400000D01*
X105575100Y-49400000D02*
X110275900Y-44699200D01*
X110275900Y-44699200D02*
X118324100Y-44699200D01*
X118324100Y-44699200D02*
X123024900Y-49400000D01*
X104375000Y-49400000D02*
X104775000Y-49400000D01*
X123825000Y-49400000D02*
X124625100Y-49400000D01*
X104375000Y-49400000D02*
X103974900Y-49400000D01*
X180975000Y-45850000D02*
X181775100Y-45850000D01*
X181775100Y-45850000D02*
X184337700Y-43287400D01*
X184337700Y-43287400D02*
X192528800Y-43287400D01*
X192528800Y-43287400D02*
X194378200Y-41438000D01*
X194378200Y-41438000D02*
X195413000Y-41438000D01*
X195413000Y-41438000D02*
X199224900Y-45249900D01*
X199224900Y-45249900D02*
X199224900Y-45850000D01*
X69056200Y-49400000D02*
X69856300Y-49400000D01*
X238125000Y-45850000D02*
X237324900Y-45850000D01*
X219075000Y-45850000D02*
X219875100Y-45850000D01*
X85725000Y-49400000D02*
X86525100Y-49400000D01*
X86525100Y-49400000D02*
X86525100Y-49086400D01*
X86525100Y-49086400D02*
X91526700Y-44084800D01*
X91526700Y-44084800D02*
X98659700Y-44084800D01*
X98659700Y-44084800D02*
X103974900Y-49400000D01*
X85325000Y-49400000D02*
X85725000Y-49400000D01*
X85325000Y-49400000D02*
X84924900Y-49400000D01*
X23812500Y-49235000D02*
X26555389Y-49235000D01*
X35186400Y-44049989D02*
X40536411Y-49400000D01*
X46900000Y-49400000D02*
X47625000Y-49400000D01*
X26555389Y-49235000D02*
X31740400Y-44049989D01*
X40536411Y-49400000D02*
X46900000Y-49400000D01*
X31740400Y-44049989D02*
X35186400Y-44049989D01*
X40118800Y-61975000D02*
X38968700Y-61975000D01*
X26193800Y-64285000D02*
X26993900Y-64285000D01*
X26993900Y-64285000D02*
X28502400Y-62776500D01*
X28502400Y-62776500D02*
X38167200Y-62776500D01*
X38167200Y-62776500D02*
X38968700Y-61975000D01*
X204788000Y-64900000D02*
X205588100Y-64900000D01*
X205588100Y-64900000D02*
X208406400Y-62081700D01*
X208406400Y-62081700D02*
X214883000Y-62081700D01*
X214883000Y-62081700D02*
X216491100Y-60473600D01*
X216491100Y-60473600D02*
X219211600Y-60473600D01*
X219211600Y-60473600D02*
X223037900Y-64299900D01*
X223037900Y-64299900D02*
X223037900Y-64900000D01*
X204388000Y-64900000D02*
X204788000Y-64900000D01*
X223838000Y-64900000D02*
X223037900Y-64900000D01*
X52387500Y-68450000D02*
X51587400Y-68450000D01*
X26193800Y-67835000D02*
X26993900Y-67835000D01*
X26993900Y-67835000D02*
X31099100Y-63729800D01*
X31099100Y-63729800D02*
X46867200Y-63729800D01*
X46867200Y-63729800D02*
X51587400Y-68450000D01*
X242087900Y-64900000D02*
X242087900Y-64299900D01*
X242087900Y-64299900D02*
X237361500Y-59573500D01*
X237361500Y-59573500D02*
X229964600Y-59573500D01*
X229964600Y-59573500D02*
X224638100Y-64900000D01*
X242888000Y-64900000D02*
X242087900Y-64900000D01*
X223838000Y-64900000D02*
X224638100Y-64900000D01*
X108737900Y-65895600D02*
X112105400Y-65895600D01*
X112105400Y-65895600D02*
X114287500Y-63713500D01*
X114287500Y-63713500D02*
X123051400Y-63713500D01*
X123051400Y-63713500D02*
X127787900Y-68450000D01*
X128588000Y-68450000D02*
X129388100Y-68450000D01*
X129388100Y-68450000D02*
X134137600Y-63700500D01*
X134137600Y-63700500D02*
X142396600Y-63700500D01*
X142396600Y-63700500D02*
X147146100Y-68450000D01*
X128188000Y-68450000D02*
X128588000Y-68450000D01*
X242888000Y-64900000D02*
X243688100Y-64900000D01*
X243688100Y-64900000D02*
X246056300Y-62531800D01*
X246056300Y-62531800D02*
X254080200Y-62531800D01*
X254080200Y-62531800D02*
X256117800Y-60494200D01*
X256117800Y-60494200D02*
X257287400Y-60494200D01*
X257287400Y-60494200D02*
X264798600Y-68005400D01*
X264798600Y-68005400D02*
X264798600Y-69295500D01*
X264798600Y-69295500D02*
X267546900Y-72043800D01*
X267546900Y-72043800D02*
X273844000Y-72043800D01*
X52387500Y-68450000D02*
X53187600Y-68450000D01*
X274644100Y-72043800D02*
X275501700Y-72901400D01*
X275501700Y-72901400D02*
X277489300Y-72901400D01*
X273844000Y-72043800D02*
X274644100Y-72043800D01*
X72540300Y-63939800D02*
X72147100Y-63546600D01*
X72147100Y-63546600D02*
X58091000Y-63546600D01*
X58091000Y-63546600D02*
X53187600Y-68450000D01*
X72540300Y-63939800D02*
X77739400Y-58740700D01*
X77739400Y-58740700D02*
X84401900Y-58740700D01*
X84401900Y-58740700D02*
X84525900Y-58864600D01*
X73018700Y-68450000D02*
X72540300Y-67971600D01*
X72540300Y-67971600D02*
X72540300Y-63939800D01*
X166688000Y-68450000D02*
X165887900Y-68450000D01*
X165060200Y-64119700D02*
X165060200Y-67622300D01*
X165060200Y-67622300D02*
X165887900Y-68450000D01*
X165060200Y-64119700D02*
X169910400Y-59269500D01*
X169910400Y-59269500D02*
X180544100Y-59269500D01*
X180544100Y-59269500D02*
X184937900Y-63663300D01*
X184937900Y-63663300D02*
X184937900Y-64900000D01*
X147146100Y-68450000D02*
X151854000Y-63742100D01*
X151854000Y-63742100D02*
X164682600Y-63742100D01*
X164682600Y-63742100D02*
X165060200Y-64119700D01*
X84525900Y-58864600D02*
X89687400Y-64026200D01*
X89687400Y-64026200D02*
X89687400Y-68450000D01*
X108737900Y-65895600D02*
X108737900Y-63672700D01*
X108737900Y-63672700D02*
X100693800Y-55628600D01*
X100693800Y-55628600D02*
X87761900Y-55628600D01*
X87761900Y-55628600D02*
X84525900Y-58864600D01*
X147638000Y-68450000D02*
X147146100Y-68450000D01*
X128188000Y-68450000D02*
X127787900Y-68450000D01*
X108737900Y-68450000D02*
X108737900Y-65895600D01*
X204388000Y-64900000D02*
X203987900Y-64900000D01*
X90487500Y-68450000D02*
X89687400Y-68450000D01*
X73818800Y-68450000D02*
X73018700Y-68450000D01*
X109538000Y-68450000D02*
X108737900Y-68450000D01*
X185738000Y-64900000D02*
X184937900Y-64900000D01*
X203987900Y-64900000D02*
X203987900Y-64312800D01*
X203987900Y-64312800D02*
X200166400Y-60491300D01*
X200166400Y-60491300D02*
X195674900Y-60491300D01*
X195674900Y-60491300D02*
X191266200Y-64900000D01*
X191266200Y-64900000D02*
X185738000Y-64900000D01*
X330994000Y-80304342D02*
X330000042Y-81298300D01*
X330994000Y-79187500D02*
X330994000Y-80304342D01*
X39225000Y-81025000D02*
X44881200Y-81025000D01*
X33446500Y-86803500D02*
X39225000Y-81025000D01*
X33446500Y-90040200D02*
X33446500Y-86803500D01*
X32392900Y-91093800D02*
X33446500Y-90040200D01*
X30956200Y-91093800D02*
X32392900Y-91093800D01*
X233362000Y-83950000D02*
X232561900Y-83950000D01*
X214029100Y-83950000D02*
X216602800Y-81376300D01*
X216602800Y-81376300D02*
X224164400Y-81376300D01*
X224164400Y-81376300D02*
X226003000Y-79537700D01*
X226003000Y-79537700D02*
X228749700Y-79537700D01*
X228749700Y-79537700D02*
X232561900Y-83349900D01*
X232561900Y-83349900D02*
X232561900Y-83950000D01*
X214029100Y-83950000D02*
X213511900Y-83950000D01*
X214312000Y-83950000D02*
X214029100Y-83950000D01*
X195262000Y-83950000D02*
X196062100Y-83950000D01*
X196062100Y-83950000D02*
X198499400Y-81512700D01*
X198499400Y-81512700D02*
X204978000Y-81512700D01*
X204978000Y-81512700D02*
X206942400Y-79548300D01*
X206942400Y-79548300D02*
X209710300Y-79548300D01*
X209710300Y-79548300D02*
X213511900Y-83349900D01*
X213511900Y-83349900D02*
X213511900Y-83950000D01*
X195262000Y-83950000D02*
X190928000Y-83950000D01*
X190928000Y-83950000D02*
X189278600Y-82300600D01*
X189278600Y-82300600D02*
X182211500Y-82300600D01*
X182211500Y-82300600D02*
X177012100Y-87500000D01*
X295220200Y-80070600D02*
X304901600Y-70389200D01*
X272262100Y-83950000D02*
X275087000Y-81125100D01*
X275087000Y-81125100D02*
X279189300Y-81125100D01*
X279189300Y-81125100D02*
X279875100Y-80439300D01*
X279875100Y-80439300D02*
X279875100Y-79405800D01*
X279875100Y-79405800D02*
X280304100Y-78976800D01*
X280304100Y-78976800D02*
X294126400Y-78976800D01*
X294126400Y-78976800D02*
X295220200Y-80070600D01*
X295275000Y-83950000D02*
X295275000Y-80125400D01*
X295275000Y-80125400D02*
X295220200Y-80070600D01*
X329125400Y-39020800D02*
X320235400Y-47910800D01*
X320235400Y-47910800D02*
X313613300Y-47910800D01*
X313613300Y-47910800D02*
X307493100Y-54031000D01*
X307493100Y-54031000D02*
X307493100Y-56292600D01*
X156910600Y-87500000D02*
X161647900Y-82762700D01*
X161647900Y-82762700D02*
X170674600Y-82762700D01*
X170674600Y-82762700D02*
X175411900Y-87500000D01*
X252412000Y-81149800D02*
X262997400Y-81149800D01*
X262997400Y-81149800D02*
X264636300Y-79510900D01*
X264636300Y-79510900D02*
X266822900Y-79510900D01*
X266822900Y-79510900D02*
X270661900Y-83349900D01*
X270661900Y-83349900D02*
X270661900Y-83950000D01*
X234162100Y-83950000D02*
X236983800Y-81128300D01*
X236983800Y-81128300D02*
X242717600Y-81128300D01*
X242717600Y-81128300D02*
X244328700Y-79517200D01*
X244328700Y-79517200D02*
X250779400Y-79517200D01*
X250779400Y-79517200D02*
X252412000Y-81149800D01*
X252412000Y-82368700D02*
X252412000Y-81149800D01*
X271462000Y-83950000D02*
X270661900Y-83950000D01*
X156361900Y-87500000D02*
X151613400Y-82751500D01*
X151613400Y-82751500D02*
X143660600Y-82751500D01*
X143660600Y-82751500D02*
X138912100Y-87500000D01*
X176212000Y-87500000D02*
X175411900Y-87500000D01*
X156910600Y-87500000D02*
X156361900Y-87500000D01*
X157162000Y-87500000D02*
X156910600Y-87500000D01*
X138112000Y-87500000D02*
X138912100Y-87500000D01*
X137712000Y-87500000D02*
X138112000Y-87500000D01*
X271462000Y-83950000D02*
X272262100Y-83950000D01*
X252412000Y-83343800D02*
X252412000Y-82368700D01*
X62312600Y-87500000D02*
X61912500Y-87500000D01*
X62312600Y-87500000D02*
X62712600Y-87500000D01*
X62712600Y-87500000D02*
X67458500Y-82754100D01*
X67458500Y-82754100D02*
X75416500Y-82754100D01*
X75416500Y-82754100D02*
X80162400Y-87500000D01*
X80962500Y-87500000D02*
X80162400Y-87500000D01*
X233362000Y-83950000D02*
X234162100Y-83950000D01*
X100012000Y-87500000D02*
X100812100Y-87500000D01*
X100812100Y-87500000D02*
X105975100Y-82337000D01*
X105975100Y-82337000D02*
X112900000Y-82337000D01*
X112900000Y-82337000D02*
X118063000Y-87500000D01*
X118063000Y-87500000D02*
X119062000Y-87500000D01*
X99612000Y-87500000D02*
X100012000Y-87500000D01*
X99612000Y-87500000D02*
X99211900Y-87500000D01*
X80962500Y-87500000D02*
X81762600Y-87500000D01*
X81762600Y-87500000D02*
X86498200Y-82764400D01*
X86498200Y-82764400D02*
X94476300Y-82764400D01*
X94476300Y-82764400D02*
X99211900Y-87500000D01*
X137311900Y-87500000D02*
X132088600Y-82276700D01*
X132088600Y-82276700D02*
X125085400Y-82276700D01*
X125085400Y-82276700D02*
X119862100Y-87500000D01*
X119062000Y-87500000D02*
X119862100Y-87500000D01*
X176212000Y-87500000D02*
X177012100Y-87500000D01*
X137712000Y-87500000D02*
X137311900Y-87500000D01*
X61112400Y-87500000D02*
X61912500Y-87500000D01*
X58524400Y-90088000D02*
X61112400Y-87500000D01*
X30956200Y-94643800D02*
X31756300Y-94643800D01*
X47114500Y-87114500D02*
X47114500Y-88860600D01*
X31756300Y-94643800D02*
X34232300Y-92167800D01*
X34232300Y-92167800D02*
X34232300Y-87017700D01*
X48076240Y-89822340D02*
X48076240Y-89885334D01*
X48076240Y-89885334D02*
X48295916Y-90105010D01*
X34232300Y-87017700D02*
X39250000Y-82000000D01*
X39250000Y-82000000D02*
X42000000Y-82000000D01*
X42000000Y-82000000D02*
X47114500Y-87114500D01*
X47114500Y-88860600D02*
X48076240Y-89822340D01*
X48295916Y-90105010D02*
X56826584Y-90105010D01*
X56826584Y-90105010D02*
X56843594Y-90088000D01*
X56843594Y-90088000D02*
X58524400Y-90088000D01*
X35356200Y-100075000D02*
X34206100Y-100075000D01*
X21431200Y-103000000D02*
X22231300Y-103000000D01*
X22231300Y-103000000D02*
X24354800Y-100876500D01*
X24354800Y-100876500D02*
X33404600Y-100876500D01*
X33404600Y-100876500D02*
X34206100Y-100075000D01*
X257175000Y-103000000D02*
X256374900Y-103000000D01*
X235744000Y-103000000D02*
X236544100Y-103000000D01*
X236544100Y-103000000D02*
X241669300Y-97874800D01*
X241669300Y-97874800D02*
X251249700Y-97874800D01*
X251249700Y-97874800D02*
X256374900Y-103000000D01*
X69056200Y-105574900D02*
X73541600Y-101089500D01*
X73541600Y-101089500D02*
X79961600Y-101089500D01*
X79961600Y-101089500D02*
X81070900Y-102198800D01*
X81070900Y-102198800D02*
X88789700Y-102198800D01*
X22231300Y-106550000D02*
X27427700Y-101353600D01*
X27427700Y-101353600D02*
X33541300Y-101353600D01*
X33541300Y-101353600D02*
X38737700Y-106550000D01*
X38737700Y-106550000D02*
X45243800Y-106550000D01*
X21431200Y-106550000D02*
X22231300Y-106550000D01*
X211931000Y-98578800D02*
X211931000Y-102024900D01*
X88789700Y-102198800D02*
X95737500Y-95251000D01*
X95737500Y-95251000D02*
X208603200Y-95251000D01*
X208603200Y-95251000D02*
X211931000Y-98578800D01*
X69056200Y-106550000D02*
X69056200Y-105574900D01*
X88789700Y-102198800D02*
X95711100Y-109120200D01*
X95711100Y-109120200D02*
X137123700Y-109120200D01*
X137123700Y-109120200D02*
X139693900Y-106550000D01*
X140494000Y-106550000D02*
X139693900Y-106550000D01*
X314325000Y-102512400D02*
X318345900Y-98491500D01*
X318345900Y-98491500D02*
X318345900Y-95221400D01*
X314325000Y-102512400D02*
X314325000Y-102024900D01*
X314325000Y-103000000D02*
X314325000Y-102512400D01*
X276225000Y-103000000D02*
X275424900Y-103000000D01*
X257175000Y-103000000D02*
X257975100Y-103000000D01*
X257975100Y-103000000D02*
X263104800Y-97870300D01*
X263104800Y-97870300D02*
X270895300Y-97870300D01*
X270895300Y-97870300D02*
X275424900Y-102399900D01*
X275424900Y-102399900D02*
X275424900Y-103000000D01*
X295275000Y-102044300D02*
X291809500Y-98578800D01*
X291809500Y-98578800D02*
X287179100Y-98578800D01*
X287179100Y-98578800D02*
X285048100Y-100709800D01*
X285048100Y-100709800D02*
X279315300Y-100709800D01*
X279315300Y-100709800D02*
X277025100Y-103000000D01*
X276225000Y-103000000D02*
X277025100Y-103000000D01*
X314325000Y-102024900D02*
X310860700Y-98560600D01*
X310860700Y-98560600D02*
X305437900Y-98560600D01*
X305437900Y-98560600D02*
X303483700Y-100514800D01*
X303483700Y-100514800D02*
X296804500Y-100514800D01*
X296804500Y-100514800D02*
X295275000Y-102044300D01*
X211931000Y-103000000D02*
X211931000Y-102024900D01*
X295275000Y-103000000D02*
X295275000Y-102044300D01*
X214009800Y-96500000D02*
X211931000Y-98578800D01*
X228443900Y-96500000D02*
X214009800Y-96500000D01*
X234943900Y-103000000D02*
X228443900Y-96500000D01*
X235744000Y-103000000D02*
X234943900Y-103000000D01*
X61461311Y-105574900D02*
X69056200Y-105574900D01*
X49843811Y-101049989D02*
X56936400Y-101049989D01*
X45243800Y-106550000D02*
X45243800Y-105650000D01*
X45243800Y-105650000D02*
X49843811Y-101049989D01*
X56936400Y-101049989D02*
X61461311Y-105574900D01*
X52025000Y-23875000D02*
X50874900Y-23875000D01*
X38100000Y-26800000D02*
X38900100Y-26800000D01*
X38900100Y-26800000D02*
X41023600Y-24676500D01*
X41023600Y-24676500D02*
X50073400Y-24676500D01*
X50073400Y-24676500D02*
X50874900Y-23875000D01*
X61550000Y-42925000D02*
X60399900Y-42925000D01*
X47625000Y-45850000D02*
X48425100Y-45850000D01*
X48425100Y-45850000D02*
X50548600Y-43726500D01*
X50548600Y-43726500D02*
X59598400Y-43726500D01*
X59598400Y-43726500D02*
X60399900Y-42925000D01*
X66312500Y-61975000D02*
X65162400Y-61975000D01*
X52387500Y-64900000D02*
X53187600Y-64900000D01*
X53187600Y-64900000D02*
X55747900Y-62339700D01*
X55747900Y-62339700D02*
X64797700Y-62339700D01*
X64797700Y-62339700D02*
X65162400Y-61975000D01*
X75837500Y-81025000D02*
X74687400Y-81025000D01*
X61912500Y-83950000D02*
X63751100Y-83950000D01*
X63751100Y-83950000D02*
X65874600Y-81826500D01*
X65874600Y-81826500D02*
X73885900Y-81826500D01*
X73885900Y-81826500D02*
X74687400Y-81025000D01*
X59168800Y-100075000D02*
X58018700Y-100075000D01*
X45243800Y-103000000D02*
X46043900Y-103000000D01*
X46043900Y-103000000D02*
X48866800Y-100177100D01*
X48866800Y-100177100D02*
X57916600Y-100177100D01*
X57916600Y-100177100D02*
X58018700Y-100075000D01*
X71075000Y-23875000D02*
X69924900Y-23875000D01*
X57150000Y-26800000D02*
X57950100Y-26800000D01*
X57950100Y-26800000D02*
X60073600Y-24676500D01*
X60073600Y-24676500D02*
X69123400Y-24676500D01*
X69123400Y-24676500D02*
X69924900Y-23875000D01*
X80600000Y-42925000D02*
X79449900Y-42925000D01*
X69056200Y-45850000D02*
X69856300Y-45850000D01*
X69856300Y-45850000D02*
X71979800Y-43726500D01*
X71979800Y-43726500D02*
X78648400Y-43726500D01*
X78648400Y-43726500D02*
X79449900Y-42925000D01*
X85362500Y-61975000D02*
X84212400Y-61975000D01*
X73818800Y-64900000D02*
X74618900Y-64900000D01*
X74618900Y-64900000D02*
X76742400Y-62776500D01*
X76742400Y-62776500D02*
X83410900Y-62776500D01*
X83410900Y-62776500D02*
X84212400Y-61975000D01*
X94887500Y-81025000D02*
X93737400Y-81025000D01*
X80962500Y-83950000D02*
X81762600Y-83950000D01*
X81762600Y-83950000D02*
X83886100Y-81826500D01*
X83886100Y-81826500D02*
X92935900Y-81826500D01*
X92935900Y-81826500D02*
X93737400Y-81025000D01*
X82981200Y-100075000D02*
X81831100Y-100075000D01*
X69056200Y-103000000D02*
X69856300Y-103000000D01*
X69856300Y-103000000D02*
X72375500Y-100480800D01*
X72375500Y-100480800D02*
X81425300Y-100480800D01*
X81425300Y-100480800D02*
X81831100Y-100075000D01*
X90125000Y-23875000D02*
X88974900Y-23875000D01*
X76200000Y-26800000D02*
X77000100Y-26800000D01*
X77000100Y-26800000D02*
X79123600Y-24676500D01*
X79123600Y-24676500D02*
X88173400Y-24676500D01*
X88173400Y-24676500D02*
X88974900Y-23875000D01*
X98499900Y-42925000D02*
X98163100Y-43261800D01*
X98163100Y-43261800D02*
X89113300Y-43261800D01*
X89113300Y-43261800D02*
X86525100Y-45850000D01*
X99650000Y-42925000D02*
X98499900Y-42925000D01*
X85725000Y-45850000D02*
X86525100Y-45850000D01*
X104412000Y-61975000D02*
X103261900Y-61975000D01*
X90487500Y-64900000D02*
X91287600Y-64900000D01*
X91287600Y-64900000D02*
X93411100Y-62776500D01*
X93411100Y-62776500D02*
X102460400Y-62776500D01*
X102460400Y-62776500D02*
X103261900Y-61975000D01*
X113938000Y-81025000D02*
X112787900Y-81025000D01*
X100012000Y-83950000D02*
X100812100Y-83950000D01*
X100812100Y-83950000D02*
X102935600Y-81826500D01*
X102935600Y-81826500D02*
X111986400Y-81826500D01*
X111986400Y-81826500D02*
X112787900Y-81025000D01*
X154419000Y-100075000D02*
X153268900Y-100075000D01*
X140494000Y-103000000D02*
X141294100Y-103000000D01*
X141294100Y-103000000D02*
X143662200Y-100631900D01*
X143662200Y-100631900D02*
X152712000Y-100631900D01*
X152712000Y-100631900D02*
X153268900Y-100075000D01*
X109175000Y-23875000D02*
X108024900Y-23875000D01*
X95250000Y-26800000D02*
X96050100Y-26800000D01*
X96050100Y-26800000D02*
X98173600Y-24676500D01*
X98173600Y-24676500D02*
X107223400Y-24676500D01*
X107223400Y-24676500D02*
X108024900Y-23875000D01*
X118700000Y-42925000D02*
X117549900Y-42925000D01*
X104775000Y-45850000D02*
X105575100Y-45850000D01*
X105575100Y-45850000D02*
X107698600Y-43726500D01*
X107698600Y-43726500D02*
X116748400Y-43726500D01*
X116748400Y-43726500D02*
X117549900Y-42925000D01*
X123462000Y-61975000D02*
X122311900Y-61975000D01*
X109538000Y-64900000D02*
X110338100Y-64900000D01*
X110338100Y-64900000D02*
X112461600Y-62776500D01*
X112461600Y-62776500D02*
X121510400Y-62776500D01*
X121510400Y-62776500D02*
X122311900Y-61975000D01*
X132988000Y-81025000D02*
X131837900Y-81025000D01*
X119062000Y-83950000D02*
X119862100Y-83950000D01*
X119862100Y-83950000D02*
X121985600Y-81826500D01*
X121985600Y-81826500D02*
X131036400Y-81826500D01*
X131036400Y-81826500D02*
X131837900Y-81025000D01*
X128225000Y-23875000D02*
X127074900Y-23875000D01*
X114300000Y-26800000D02*
X115100100Y-26800000D01*
X115100100Y-26800000D02*
X120228300Y-21671800D01*
X120228300Y-21671800D02*
X124871700Y-21671800D01*
X124871700Y-21671800D02*
X127074900Y-23875000D01*
X136599900Y-42925000D02*
X136485400Y-43039500D01*
X136485400Y-43039500D02*
X127435600Y-43039500D01*
X127435600Y-43039500D02*
X124625100Y-45850000D01*
X137750000Y-42925000D02*
X136599900Y-42925000D01*
X123825000Y-45850000D02*
X124625100Y-45850000D01*
X129388100Y-64900000D02*
X131854900Y-62433200D01*
X131854900Y-62433200D02*
X140903700Y-62433200D01*
X140903700Y-62433200D02*
X141361900Y-61975000D01*
X142512000Y-61975000D02*
X141361900Y-61975000D01*
X128588000Y-64900000D02*
X129388100Y-64900000D01*
X152038000Y-81025000D02*
X150887900Y-81025000D01*
X138112000Y-83950000D02*
X138912100Y-83950000D01*
X138912100Y-83950000D02*
X141035600Y-81826500D01*
X141035600Y-81826500D02*
X150086400Y-81826500D01*
X150086400Y-81826500D02*
X150887900Y-81025000D01*
X144774989Y-21049989D02*
X147275000Y-23550000D01*
X133350000Y-25650000D02*
X137950011Y-21049989D01*
X147275000Y-23550000D02*
X147275000Y-23875000D01*
X137950011Y-21049989D02*
X144774989Y-21049989D01*
X133350000Y-26800000D02*
X133350000Y-25650000D01*
X156800000Y-42925000D02*
X155649900Y-42925000D01*
X142875000Y-45850000D02*
X143675100Y-45850000D01*
X143675100Y-45850000D02*
X146340600Y-43184500D01*
X146340600Y-43184500D02*
X155390400Y-43184500D01*
X155390400Y-43184500D02*
X155649900Y-42925000D01*
X161562000Y-61975000D02*
X160411900Y-61975000D01*
X147638000Y-64900000D02*
X148438100Y-64900000D01*
X148438100Y-64900000D02*
X150561600Y-62776500D01*
X150561600Y-62776500D02*
X159610400Y-62776500D01*
X159610400Y-62776500D02*
X160411900Y-61975000D01*
X171088000Y-81025000D02*
X169937900Y-81025000D01*
X157162000Y-83950000D02*
X157962100Y-83950000D01*
X157962100Y-83950000D02*
X160085600Y-81826500D01*
X160085600Y-81826500D02*
X169136400Y-81826500D01*
X169136400Y-81826500D02*
X169937900Y-81025000D01*
X165174900Y-23875000D02*
X164505400Y-24544500D01*
X164505400Y-24544500D02*
X155455600Y-24544500D01*
X155455600Y-24544500D02*
X153200100Y-26800000D01*
X166325000Y-23875000D02*
X165174900Y-23875000D01*
X152400000Y-26800000D02*
X153200100Y-26800000D01*
X175850000Y-42925000D02*
X174699900Y-42925000D01*
X161925000Y-45850000D02*
X162725100Y-45850000D01*
X162725100Y-45850000D02*
X164864600Y-43710500D01*
X164864600Y-43710500D02*
X173914400Y-43710500D01*
X173914400Y-43710500D02*
X174699900Y-42925000D01*
X180612000Y-61975000D02*
X179461900Y-61975000D01*
X166688000Y-64900000D02*
X167488100Y-64900000D01*
X167488100Y-64900000D02*
X169611600Y-62776500D01*
X169611600Y-62776500D02*
X178660400Y-62776500D01*
X178660400Y-62776500D02*
X179461900Y-61975000D01*
X190138000Y-81025000D02*
X188987900Y-81025000D01*
X176212000Y-83950000D02*
X177012100Y-83950000D01*
X177012100Y-83950000D02*
X179135600Y-81826500D01*
X179135600Y-81826500D02*
X188186400Y-81826500D01*
X188186400Y-81826500D02*
X188987900Y-81025000D01*
X185375000Y-23875000D02*
X184224900Y-23875000D01*
X171450000Y-30350000D02*
X172250100Y-30350000D01*
X172250100Y-30350000D02*
X172800050Y-29800050D01*
X178168200Y-24431900D02*
X183668000Y-24431900D01*
X183668000Y-24431900D02*
X184224900Y-23875000D01*
X174425050Y-28175050D02*
X178168200Y-24431900D01*
X193749900Y-42925000D02*
X192937300Y-43737600D01*
X192937300Y-43737600D02*
X187437500Y-43737600D01*
X187437500Y-43737600D02*
X181775100Y-49400000D01*
X194900000Y-42925000D02*
X193749900Y-42925000D01*
X180975000Y-49400000D02*
X181775100Y-49400000D01*
X198511900Y-61975000D02*
X194827900Y-61975000D01*
X194827900Y-61975000D02*
X188352900Y-68450000D01*
X188352900Y-68450000D02*
X186538100Y-68450000D01*
X199662000Y-61975000D02*
X198511900Y-61975000D01*
X185738000Y-68450000D02*
X186538100Y-68450000D01*
X196062100Y-87500000D02*
X201530100Y-82032000D01*
X201530100Y-82032000D02*
X207030900Y-82032000D01*
X207030900Y-82032000D02*
X208037900Y-81025000D01*
X209188000Y-81025000D02*
X208037900Y-81025000D01*
X195262000Y-87500000D02*
X196062100Y-87500000D01*
X204425000Y-23875000D02*
X203274900Y-23875000D01*
X190500000Y-30350000D02*
X191300100Y-30350000D01*
X191300100Y-30350000D02*
X191300100Y-26997800D01*
X191300100Y-26997800D02*
X196639300Y-21658600D01*
X196639300Y-21658600D02*
X201058500Y-21658600D01*
X201058500Y-21658600D02*
X203274900Y-23875000D01*
X200025000Y-49400000D02*
X200825100Y-49400000D01*
X200825100Y-49400000D02*
X205571900Y-44653200D01*
X205571900Y-44653200D02*
X207375900Y-44653200D01*
X207375900Y-44653200D02*
X209104100Y-42925000D01*
X209104100Y-42925000D02*
X213950000Y-42925000D01*
X217561900Y-61975000D02*
X217005000Y-62531900D01*
X217005000Y-62531900D02*
X211195700Y-62531900D01*
X211195700Y-62531900D02*
X205588100Y-68139500D01*
X205588100Y-68139500D02*
X205588100Y-68450000D01*
X218712000Y-61975000D02*
X217561900Y-61975000D01*
X204788000Y-68450000D02*
X205588100Y-68450000D01*
X215112100Y-87500000D02*
X215112100Y-86999900D01*
X215112100Y-86999900D02*
X220285500Y-81826500D01*
X220285500Y-81826500D02*
X226286400Y-81826500D01*
X226286400Y-81826500D02*
X227087900Y-81025000D01*
X228238000Y-81025000D02*
X227087900Y-81025000D01*
X214312000Y-87500000D02*
X215112100Y-87500000D01*
X225856000Y-100075000D02*
X224705900Y-100075000D01*
X211931000Y-106550000D02*
X212731100Y-106550000D01*
X212731100Y-106550000D02*
X218649200Y-100631900D01*
X218649200Y-100631900D02*
X224149000Y-100631900D01*
X224149000Y-100631900D02*
X224705900Y-100075000D01*
X223475000Y-23875000D02*
X222324900Y-23875000D01*
X209550000Y-30350000D02*
X210350100Y-30350000D01*
X210350100Y-30350000D02*
X216268200Y-24431900D01*
X216268200Y-24431900D02*
X221768000Y-24431900D01*
X221768000Y-24431900D02*
X222324900Y-23875000D01*
X231849900Y-42925000D02*
X231083500Y-43691400D01*
X231083500Y-43691400D02*
X225036200Y-43691400D01*
X225036200Y-43691400D02*
X219875100Y-48852500D01*
X219875100Y-48852500D02*
X219875100Y-49400000D01*
X233000000Y-42925000D02*
X231849900Y-42925000D01*
X219075000Y-49400000D02*
X219875100Y-49400000D01*
X237762000Y-61975000D02*
X236611900Y-61975000D01*
X223838000Y-68450000D02*
X224638100Y-68450000D01*
X224638100Y-68450000D02*
X230556200Y-62531900D01*
X230556200Y-62531900D02*
X236055000Y-62531900D01*
X236055000Y-62531900D02*
X236611900Y-61975000D01*
X234162100Y-87500000D02*
X239254700Y-82407400D01*
X239254700Y-82407400D02*
X244755500Y-82407400D01*
X244755500Y-82407400D02*
X246137900Y-81025000D01*
X247288000Y-81025000D02*
X246137900Y-81025000D01*
X233362000Y-87500000D02*
X234162100Y-87500000D01*
X235744000Y-106550000D02*
X238961200Y-106550000D01*
X238961200Y-106550000D02*
X245436200Y-100075000D01*
X245436200Y-100075000D02*
X249669000Y-100075000D01*
X228600000Y-30350000D02*
X230513589Y-30350000D01*
X230513589Y-30350000D02*
X236988589Y-23875000D01*
X236988589Y-23875000D02*
X242525000Y-23875000D01*
X252050000Y-42925000D02*
X250899900Y-42925000D01*
X238125000Y-49400000D02*
X238925100Y-49400000D01*
X238925100Y-49400000D02*
X244843200Y-43481900D01*
X244843200Y-43481900D02*
X250343000Y-43481900D01*
X250343000Y-43481900D02*
X250899900Y-42925000D01*
X256812000Y-61975000D02*
X255661900Y-61975000D01*
X242888000Y-68450000D02*
X243688100Y-68450000D01*
X243688100Y-68450000D02*
X249156100Y-62982000D01*
X249156100Y-62982000D02*
X254654900Y-62982000D01*
X254654900Y-62982000D02*
X255661900Y-61975000D01*
X253212100Y-86893800D02*
X258449500Y-81656400D01*
X258449500Y-81656400D02*
X264556500Y-81656400D01*
X264556500Y-81656400D02*
X265187900Y-81025000D01*
X266338000Y-81025000D02*
X265187900Y-81025000D01*
X252412000Y-86893800D02*
X253212100Y-86893800D01*
X259313590Y-106550000D02*
X257175000Y-106550000D01*
X265788590Y-100075000D02*
X259313590Y-106550000D01*
X271100000Y-100075000D02*
X265788590Y-100075000D01*
X261575000Y-23875000D02*
X260424900Y-23875000D01*
X247650000Y-30350000D02*
X248450100Y-30350000D01*
X248450100Y-30350000D02*
X254262800Y-24537300D01*
X254262800Y-24537300D02*
X259762600Y-24537300D01*
X259762600Y-24537300D02*
X260424900Y-23875000D01*
X257175000Y-49400000D02*
X259527900Y-49400000D01*
X259527900Y-49400000D02*
X266002900Y-42925000D01*
X266002900Y-42925000D02*
X271100000Y-42925000D01*
X273844000Y-75593800D02*
X275267000Y-75593800D01*
X275267000Y-75593800D02*
X275551900Y-75308900D01*
X272262100Y-87500000D02*
X272558100Y-87500000D01*
X272558100Y-87500000D02*
X277391900Y-82666200D01*
X277391900Y-82666200D02*
X282596700Y-82666200D01*
X282596700Y-82666200D02*
X284237900Y-81025000D01*
X285388000Y-81025000D02*
X284237900Y-81025000D01*
X271462000Y-87500000D02*
X272262100Y-87500000D01*
X290150000Y-100075000D02*
X288999900Y-100075000D01*
X276225000Y-106550000D02*
X277025100Y-106550000D01*
X277025100Y-106550000D02*
X282188800Y-101386300D01*
X282188800Y-101386300D02*
X287688600Y-101386300D01*
X287688600Y-101386300D02*
X288999900Y-100075000D01*
X276225000Y-36518700D02*
X280375600Y-32368100D01*
X280375600Y-32368100D02*
X280375600Y-29771800D01*
X280375600Y-29771800D02*
X286272300Y-23875100D01*
X286272300Y-23875100D02*
X288999900Y-23875100D01*
X288999900Y-23875100D02*
X288999900Y-23875000D01*
X290150000Y-23875000D02*
X288999900Y-23875000D01*
X276225000Y-37493800D02*
X276225000Y-36518700D01*
X294912000Y-42925000D02*
X293761900Y-42925000D01*
X280988000Y-49400000D02*
X281788100Y-49400000D01*
X281788100Y-49400000D02*
X287706200Y-43481900D01*
X287706200Y-43481900D02*
X293205000Y-43481900D01*
X293205000Y-43481900D02*
X293761900Y-42925000D01*
X296075100Y-87500000D02*
X301488700Y-82086400D01*
X301488700Y-82086400D02*
X306988500Y-82086400D01*
X306988500Y-82086400D02*
X308049900Y-81025000D01*
X309200000Y-81025000D02*
X308049900Y-81025000D01*
X295275000Y-87500000D02*
X296075100Y-87500000D01*
X296075100Y-106550000D02*
X301660200Y-100964900D01*
X301660200Y-100964900D02*
X307160000Y-100964900D01*
X307160000Y-100964900D02*
X308049900Y-100075000D01*
X309200000Y-100075000D02*
X308049900Y-100075000D01*
X295275000Y-106550000D02*
X296075100Y-106550000D01*
X330994000Y-82737500D02*
X331794100Y-82737500D01*
X331794100Y-82737500D02*
X331794100Y-72500300D01*
X331794100Y-72500300D02*
X330850000Y-71556200D01*
X328250000Y-100075000D02*
X327099900Y-100075000D01*
X314325000Y-106550000D02*
X315125100Y-106550000D01*
X315125100Y-106550000D02*
X321043200Y-100631900D01*
X321043200Y-100631900D02*
X326543000Y-100631900D01*
X326543000Y-100631900D02*
X327099900Y-100075000D01*
D21*
X329125000Y-26320800D02*
X329125000Y-28860800D01*
X329125000Y-28860800D02*
X329125200Y-28861000D01*
D20*
X329125400Y-28860800D02*
X329125200Y-28861000D01*
X326350000Y-83393800D02*
X325274900Y-83393800D01*
X321350000Y-83393800D02*
X322425100Y-83393800D01*
X322425100Y-83393800D02*
X322425100Y-83259400D01*
X322425100Y-83259400D02*
X323368200Y-82316300D01*
X323368200Y-82316300D02*
X324308800Y-82316300D01*
X324308800Y-82316300D02*
X325274900Y-83282400D01*
X325274900Y-83282400D02*
X325274900Y-83393800D01*
X329125400Y-18700800D02*
X329125000Y-18700800D01*
D21*
X313905000Y-23780800D02*
X316445000Y-26320800D01*
X316445000Y-26320800D02*
X329125000Y-26320800D01*
D20*
X329125400Y-26320800D02*
X329125000Y-26320800D01*
D21*
X97412300Y-70687700D02*
X97412500Y-70687500D01*
X93250000Y-70750000D02*
X97350000Y-70750000D01*
X97350000Y-70750000D02*
X97412300Y-70687700D01*
D20*
X97412000Y-70687500D02*
X97412100Y-70687500D01*
X97412100Y-70687500D02*
X97412300Y-70687700D01*
D21*
X313905000Y-23780800D02*
X313905400Y-23780800D01*
X25750000Y-108750000D02*
X28318800Y-108750000D01*
X28318800Y-108750000D02*
X28356200Y-108788000D01*
X35000000Y-89750000D02*
X37868800Y-89750000D01*
X37868800Y-89750000D02*
X37881200Y-89737500D01*
X48000000Y-108750000D02*
X52131200Y-108750000D01*
X52131200Y-108750000D02*
X52168800Y-108788000D01*
X29250000Y-70500000D02*
X32931200Y-70500000D01*
X32931200Y-70500000D02*
X33118800Y-70687500D01*
X27250000Y-51750000D02*
X30625000Y-51750000D01*
X30625000Y-51750000D02*
X30737500Y-51637500D01*
X72250000Y-109000000D02*
X75768800Y-109000000D01*
X75768800Y-109000000D02*
X75981200Y-108788000D01*
X65250000Y-89750000D02*
X68825000Y-89750000D01*
X68825000Y-89750000D02*
X68837500Y-89737500D01*
X56000000Y-70750000D02*
X59250000Y-70750000D01*
X59250000Y-70750000D02*
X59312500Y-70687500D01*
X50750000Y-51500000D02*
X54412500Y-51500000D01*
X54412500Y-51500000D02*
X54550000Y-51637500D01*
X41750000Y-32750000D02*
X44862500Y-32750000D01*
X44862500Y-32750000D02*
X45025000Y-32587500D01*
X87887500Y-89737500D02*
X84012500Y-89737500D01*
X84012500Y-89737500D02*
X84000000Y-89750000D01*
X78362500Y-70687500D02*
X75687500Y-70687500D01*
X75687500Y-70687500D02*
X75500000Y-70500000D01*
X70750000Y-52000000D02*
X73237500Y-52000000D01*
X73237500Y-52000000D02*
X73600000Y-51637500D01*
X60750000Y-32750000D02*
X63912500Y-32750000D01*
X63912500Y-32750000D02*
X64075000Y-32587500D01*
X106938000Y-89737500D02*
X104012000Y-89737500D01*
X104012000Y-89737500D02*
X103750000Y-90000000D01*
X88750000Y-51500000D02*
X92512500Y-51500000D01*
X92512500Y-51500000D02*
X92650000Y-51637500D01*
X79750000Y-32250000D02*
X82787500Y-32250000D01*
X82787500Y-32250000D02*
X83125000Y-32587500D01*
X125988000Y-89737500D02*
X122012000Y-89737500D01*
X122012000Y-89737500D02*
X122000000Y-89750000D01*
X113000000Y-71000000D02*
X116150000Y-71000000D01*
X116150000Y-71000000D02*
X116462000Y-70687500D01*
X107781000Y-51468800D02*
X111531000Y-51468800D01*
X111531000Y-51468800D02*
X111700000Y-51637500D01*
X97750000Y-32500000D02*
X102088000Y-32500000D01*
X102088000Y-32500000D02*
X102175000Y-32587500D01*
X142750000Y-108750000D02*
X147381000Y-108750000D01*
X147381000Y-108750000D02*
X147419000Y-108788000D01*
X141250000Y-90000000D02*
X144775000Y-90000000D01*
X144775000Y-90000000D02*
X145038000Y-89737500D01*
X132500000Y-70750000D02*
X135450000Y-70750000D01*
X135450000Y-70750000D02*
X135512000Y-70687500D01*
X127500000Y-51750000D02*
X130638000Y-51750000D01*
X130638000Y-51750000D02*
X130750000Y-51637500D01*
X117250000Y-32500000D02*
X121138000Y-32500000D01*
X121138000Y-32500000D02*
X121225000Y-32587500D01*
X160500000Y-89750000D02*
X164075000Y-89750000D01*
X164075000Y-89750000D02*
X164088000Y-89737500D01*
X150750000Y-70750000D02*
X154500000Y-70750000D01*
X154500000Y-70750000D02*
X154562000Y-70687500D01*
X145469000Y-51468800D02*
X149631000Y-51468800D01*
X149631000Y-51468800D02*
X149800000Y-51637500D01*
X136000000Y-32750000D02*
X140112000Y-32750000D01*
X140112000Y-32750000D02*
X140275000Y-32587500D01*
X179500000Y-89750000D02*
X183125000Y-89750000D01*
X183125000Y-89750000D02*
X183138000Y-89737500D01*
X170000000Y-70750000D02*
X173550000Y-70750000D01*
X173550000Y-70750000D02*
X173612000Y-70687500D01*
X165500000Y-51750000D02*
X168738000Y-51750000D01*
X168738000Y-51750000D02*
X168850000Y-51637500D01*
X155500000Y-32500000D02*
X159238000Y-32500000D01*
X159238000Y-32500000D02*
X159325000Y-32587500D01*
X198500000Y-89750000D02*
X202175000Y-89750000D01*
X202175000Y-89750000D02*
X202188000Y-89737500D01*
X189000000Y-70750000D02*
X192600000Y-70750000D01*
X192600000Y-70750000D02*
X192662000Y-70687500D01*
X183719000Y-51718800D02*
X187819000Y-51718800D01*
X187819000Y-51718800D02*
X187900000Y-51637500D01*
X175250000Y-33250000D02*
X175912000Y-32587500D01*
X175912000Y-32587500D02*
X178375000Y-32587500D01*
X215500000Y-108500000D02*
X218569000Y-108500000D01*
X218569000Y-108500000D02*
X218856000Y-108788000D01*
X218250000Y-89750000D02*
X221225000Y-89750000D01*
X221225000Y-89750000D02*
X221238000Y-89737500D01*
X207750000Y-70750000D02*
X211650000Y-70750000D01*
X211650000Y-70750000D02*
X211712000Y-70687500D01*
X202719000Y-51968800D02*
X206619000Y-51968800D01*
X206619000Y-51968800D02*
X206950000Y-51637500D01*
X193750000Y-33250000D02*
X194412000Y-32587500D01*
X194412000Y-32587500D02*
X197425000Y-32587500D01*
X238750000Y-109000000D02*
X242456000Y-109000000D01*
X242456000Y-109000000D02*
X242669000Y-108788000D01*
X235500000Y-90000000D02*
X240025000Y-90000000D01*
X240025000Y-90000000D02*
X240288000Y-89737500D01*
X225750000Y-71000000D02*
X230450000Y-71000000D01*
X230450000Y-71000000D02*
X230762000Y-70687500D01*
X221456000Y-51456200D02*
X225819000Y-51456200D01*
X225819000Y-51456200D02*
X226000000Y-51637500D01*
X216475000Y-32587500D02*
X212681000Y-32587500D01*
X212681000Y-32587500D02*
X211931000Y-33337500D01*
X235525000Y-32587500D02*
X231731000Y-32587500D01*
X231731000Y-32587500D02*
X230981000Y-33337500D01*
X259556000Y-109538000D02*
X260306000Y-108788000D01*
X260306000Y-108788000D02*
X264100000Y-108788000D01*
X259338000Y-89737500D02*
X255544000Y-89737500D01*
X255544000Y-89737500D02*
X254794000Y-90487500D01*
X245269000Y-71437500D02*
X246019000Y-70687500D01*
X246019000Y-70687500D02*
X249812000Y-70687500D01*
X254575000Y-32587500D02*
X253162000Y-32587500D01*
X253162000Y-32587500D02*
X250031000Y-35718800D01*
X240506000Y-50006200D02*
X243419000Y-50006200D01*
X243419000Y-50006200D02*
X245050000Y-51637500D01*
X278606000Y-109538000D02*
X279356000Y-108788000D01*
X279356000Y-108788000D02*
X283150000Y-108788000D01*
X273844000Y-90487500D02*
X274594000Y-89737500D01*
X274594000Y-89737500D02*
X278388000Y-89737500D01*
X276225000Y-71437500D02*
X276975000Y-70687500D01*
X276975000Y-70687500D02*
X280769000Y-70687500D01*
X259556000Y-52387500D02*
X260306000Y-51637500D01*
X260306000Y-51637500D02*
X264100000Y-51637500D01*
X283369000Y-52387500D02*
X284119000Y-51637500D01*
X284119000Y-51637500D02*
X287912000Y-51637500D01*
X297656000Y-107156000D02*
X300569000Y-107156000D01*
X300569000Y-107156000D02*
X302200000Y-108788000D01*
X297656000Y-88106200D02*
X300569000Y-88106200D01*
X300569000Y-88106200D02*
X302200000Y-89737500D01*
X278606000Y-35718800D02*
X281738000Y-32587500D01*
X281738000Y-32587500D02*
X283150000Y-32587500D01*
X316706000Y-107156000D02*
X319619000Y-107156000D01*
X319619000Y-107156000D02*
X321250000Y-108788000D01*
X313905000Y-23780800D02*
X309594000Y-23780800D01*
X313905000Y-23780800D02*
X313937000Y-23812500D01*
X313905400Y-23780800D02*
X324045000Y-23780800D01*
X324045000Y-23780800D02*
X329125000Y-18700800D01*
X325730000Y-54950000D02*
X321800000Y-58880000D01*
X321800000Y-58880000D02*
X317357000Y-58880000D01*
X317357000Y-58880000D02*
X314900000Y-61337500D01*
X314900000Y-61337500D02*
X314900000Y-67606200D01*
X314900000Y-67606200D02*
X316350000Y-69056200D01*
X333375000Y-48493800D02*
X326919000Y-54950000D01*
X326919000Y-54950000D02*
X325730000Y-54950000D01*
X321250000Y-77831200D02*
X317560010Y-77831200D01*
X317560010Y-77831200D02*
X316810010Y-78581200D01*
X25887490Y-32499990D02*
X23250000Y-32499990D01*
X25975000Y-32587500D02*
X25887490Y-32499990D01*
X331925000Y-47043700D02*
X333375000Y-48493800D01*
X331925000Y-29885000D02*
X331925000Y-47043700D01*
X330901000Y-28861000D02*
X331925000Y-29885000D01*
X329125200Y-28861000D02*
X330901000Y-28861000D01*
D20*
X335750000Y-27865400D02*
X329125400Y-21240800D01*
X321250000Y-79331200D02*
X316425100Y-79331200D01*
X316085000Y-75159350D02*
X327524998Y-63719352D01*
X330969352Y-60274998D02*
X335750000Y-55494350D01*
X335750000Y-55494350D02*
X335750000Y-27865400D01*
X327524998Y-63719352D02*
X327524998Y-60651998D01*
X316085000Y-78991100D02*
X316085000Y-75159350D01*
X327901998Y-60274998D02*
X330969352Y-60274998D01*
X327524998Y-60651998D02*
X327901998Y-60274998D01*
X316425100Y-79331200D02*
X316085000Y-78991100D01*
X321250000Y-110288000D02*
X319474900Y-110288000D01*
X319474900Y-110288000D02*
X319474900Y-110265500D01*
X319474900Y-110265500D02*
X319176500Y-109967100D01*
X329024998Y-87839698D02*
X331753900Y-90568600D01*
X328225100Y-77831200D02*
X329024998Y-78631098D01*
X326450000Y-77831200D02*
X328225100Y-77831200D01*
X329024998Y-78631098D02*
X329024998Y-87839698D01*
X313905400Y-28860800D02*
X313905000Y-28860800D01*
D21*
X313905000Y-28860800D02*
X308678000Y-34087500D01*
X308678000Y-34087500D02*
X301669000Y-34087500D01*
X301669000Y-34087500D02*
X288350000Y-34087500D01*
X157162000Y-54768800D02*
X156631000Y-54768800D01*
X175681000Y-54768800D02*
X157162000Y-54768800D01*
X156631000Y-54768800D02*
X137581000Y-54768800D01*
X157162000Y-54768800D02*
X156631000Y-54768800D01*
X80431200Y-54768800D02*
X61912500Y-54768800D01*
X80962500Y-54768800D02*
X80431200Y-54768800D01*
X301669000Y-34087500D02*
X301669000Y-53137500D01*
X180975000Y-73818800D02*
X180444000Y-73818800D01*
X199494000Y-73818800D02*
X180975000Y-73818800D01*
X180444000Y-73818800D02*
X161394000Y-73818800D01*
X180975000Y-73818800D02*
X180444000Y-73818800D01*
X285750000Y-92868800D02*
X285219000Y-92868800D01*
X309031000Y-92868800D02*
X285750000Y-92868800D01*
X285219000Y-92868800D02*
X266169000Y-92868800D01*
X285750000Y-92868800D02*
X285219000Y-92868800D01*
X209550000Y-92868800D02*
X209019000Y-92868800D01*
X228069000Y-92868800D02*
X209550000Y-92868800D01*
X209019000Y-92868800D02*
X189969000Y-92868800D01*
X209550000Y-92868800D02*
X209019000Y-92868800D01*
X170919000Y-92868800D02*
X152400000Y-92868800D01*
X171450000Y-92868800D02*
X170919000Y-92868800D01*
X171450000Y-92868800D02*
X170919000Y-92868800D01*
X189969000Y-92868800D02*
X171450000Y-92868800D01*
X152400000Y-92868800D02*
X151869000Y-92868800D01*
X151869000Y-92868800D02*
X132819000Y-92868800D01*
X152400000Y-92868800D02*
X151869000Y-92868800D01*
X154781000Y-111919000D02*
X111919000Y-111919000D01*
X111919000Y-111919000D02*
X108369000Y-115469000D01*
X108369000Y-115469000D02*
X101181000Y-115469000D01*
X101181000Y-115469000D02*
X97631200Y-111919000D01*
X97631200Y-111919000D02*
X82812500Y-111919000D01*
X224588000Y-110288000D02*
X224588000Y-110478000D01*
X224588000Y-110478000D02*
X223418000Y-111648000D01*
X223418000Y-111648000D02*
X211944000Y-111648000D01*
X211944000Y-111648000D02*
X209557000Y-109261000D01*
X209557000Y-109261000D02*
X204556000Y-109261000D01*
X204556000Y-109261000D02*
X201898000Y-111919000D01*
X201898000Y-111919000D02*
X154781000Y-111919000D01*
X59531200Y-111919000D02*
X35718800Y-111919000D01*
X35718800Y-111919000D02*
X34087500Y-110288000D01*
X34087500Y-110288000D02*
X33556200Y-110288000D01*
X82812500Y-111919000D02*
X59531200Y-111919000D01*
X59531200Y-111919000D02*
X57900000Y-110288000D01*
X57900000Y-110288000D02*
X57368800Y-110288000D01*
X82812500Y-111919000D02*
X81181200Y-110288000D01*
X154781000Y-111919000D02*
X153150000Y-110288000D01*
X153150000Y-110288000D02*
X152619000Y-110288000D01*
X249500000Y-111919000D02*
X226219000Y-111919000D01*
X226219000Y-111919000D02*
X224588000Y-110288000D01*
X224588000Y-110288000D02*
X224056000Y-110288000D01*
X270931000Y-111919000D02*
X249500000Y-111919000D01*
X249500000Y-111919000D02*
X247869000Y-110288000D01*
X289981000Y-111919000D02*
X270931000Y-111919000D01*
X270931000Y-111919000D02*
X269300000Y-110288000D01*
X309031000Y-111919000D02*
X289981000Y-111919000D01*
X289981000Y-111919000D02*
X288350000Y-110288000D01*
X328081000Y-111919000D02*
X309031000Y-111919000D01*
X309031000Y-111919000D02*
X307400000Y-110288000D01*
X328612000Y-92868800D02*
X329525000Y-93781300D01*
X329525000Y-93781300D02*
X329525000Y-96162500D01*
X329525000Y-96162500D02*
X330994000Y-97631200D01*
X330994000Y-97631200D02*
X330994000Y-111919000D01*
X330994000Y-111919000D02*
X328081000Y-111919000D01*
X328081000Y-111919000D02*
X326450000Y-110288000D01*
X75668800Y-92868800D02*
X44712500Y-92868800D01*
X44712500Y-92868800D02*
X43081200Y-91237500D01*
X94718800Y-92868800D02*
X75668800Y-92868800D01*
X75668800Y-92868800D02*
X74037500Y-91237500D01*
X113769000Y-92868800D02*
X94718800Y-92868800D01*
X94718800Y-92868800D02*
X93087500Y-91237500D01*
X132819000Y-92868800D02*
X113769000Y-92868800D01*
X113769000Y-92868800D02*
X112138000Y-91237500D01*
X132819000Y-92868800D02*
X131188000Y-91237500D01*
X151869000Y-92868800D02*
X150238000Y-91237500D01*
X170919000Y-92868800D02*
X169288000Y-91237500D01*
X189969000Y-92868800D02*
X188338000Y-91237500D01*
X209019000Y-92868800D02*
X207388000Y-91237500D01*
X247119000Y-92868800D02*
X228069000Y-92868800D01*
X228069000Y-92868800D02*
X226438000Y-91237500D01*
X266169000Y-92868800D02*
X247119000Y-92868800D01*
X247119000Y-92868800D02*
X245488000Y-91237500D01*
X266169000Y-92868800D02*
X264538000Y-91237500D01*
X285219000Y-92868800D02*
X283588000Y-91237500D01*
X314325000Y-92868800D02*
X328612000Y-92868800D01*
X301669000Y-69277100D02*
X305021000Y-69277100D01*
X305021000Y-69277100D02*
X314325000Y-78581200D01*
X314325000Y-78581200D02*
X314325000Y-92868800D01*
X314325000Y-92868800D02*
X309031000Y-92868800D01*
X309031000Y-92868800D02*
X307400000Y-91237500D01*
X307931000Y-91237500D02*
X307400000Y-91237500D01*
X66143800Y-73818800D02*
X39950000Y-73818800D01*
X39950000Y-73818800D02*
X38318800Y-72187500D01*
X85193800Y-73818800D02*
X66143800Y-73818800D01*
X66143800Y-73818800D02*
X64512500Y-72187500D01*
X104775000Y-73818800D02*
X85193800Y-73818800D01*
X85193800Y-73818800D02*
X83562500Y-72187500D01*
X123294000Y-73818800D02*
X104775000Y-73818800D01*
X104775000Y-73818800D02*
X103144000Y-72187500D01*
X103144000Y-72187500D02*
X102612000Y-72187500D01*
X142344000Y-73818800D02*
X123294000Y-73818800D01*
X123294000Y-73818800D02*
X121662000Y-72187500D01*
X161394000Y-73818800D02*
X142344000Y-73818800D01*
X142344000Y-73818800D02*
X140712000Y-72187500D01*
X161394000Y-73818800D02*
X159762000Y-72187500D01*
X180444000Y-73818800D02*
X178812000Y-72187500D01*
X218544000Y-73818800D02*
X199494000Y-73818800D01*
X199494000Y-73818800D02*
X197862000Y-72187500D01*
X237594000Y-73818800D02*
X218544000Y-73818800D01*
X218544000Y-73818800D02*
X216912000Y-72187500D01*
X256644000Y-73818800D02*
X237594000Y-73818800D01*
X237594000Y-73818800D02*
X235962000Y-72187500D01*
X288131000Y-73818800D02*
X256644000Y-73818800D01*
X256644000Y-73818800D02*
X255012000Y-72187500D01*
X301669000Y-69277100D02*
X297127000Y-73818800D01*
X297127000Y-73818800D02*
X288131000Y-73818800D01*
X288131000Y-73818800D02*
X286500000Y-72187500D01*
X286500000Y-72187500D02*
X285969000Y-72187500D01*
X301669000Y-53137500D02*
X301669000Y-69277100D01*
X301669000Y-53137500D02*
X305681000Y-57150000D01*
X305681000Y-57150000D02*
X320990000Y-57150000D01*
X320990000Y-57150000D02*
X323190000Y-54950000D01*
X61912500Y-54768800D02*
X38100000Y-54768800D01*
X38100000Y-54768800D02*
X36468800Y-53137500D01*
X36468800Y-53137500D02*
X35937500Y-53137500D01*
X80962500Y-54768800D02*
X80431200Y-54768800D01*
X61912500Y-54768800D02*
X60281200Y-53137500D01*
X60281200Y-53137500D02*
X59750000Y-53137500D01*
X99481200Y-54768800D02*
X80962500Y-54768800D01*
X80431200Y-54768800D02*
X78800000Y-53137500D01*
X118531000Y-54768800D02*
X99481200Y-54768800D01*
X99481200Y-54768800D02*
X97850000Y-53137500D01*
X137581000Y-54768800D02*
X118531000Y-54768800D01*
X118531000Y-54768800D02*
X116900000Y-53137500D01*
X137581000Y-54768800D02*
X135950000Y-53137500D01*
X156631000Y-54768800D02*
X155000000Y-53137500D01*
X194731000Y-54768800D02*
X175681000Y-54768800D01*
X175681000Y-54768800D02*
X174050000Y-53137500D01*
X213781000Y-54768800D02*
X194731000Y-54768800D01*
X194731000Y-54768800D02*
X193100000Y-53137500D01*
X232831000Y-54768800D02*
X213781000Y-54768800D01*
X213781000Y-54768800D02*
X212150000Y-53137500D01*
X252412000Y-54768800D02*
X232831000Y-54768800D01*
X232831000Y-54768800D02*
X231200000Y-53137500D01*
X271462000Y-54768800D02*
X252412000Y-54768800D01*
X252412000Y-54768800D02*
X250781000Y-53137500D01*
X250781000Y-53137500D02*
X250250000Y-53137500D01*
X295275000Y-54768800D02*
X271462000Y-54768800D01*
X271462000Y-54768800D02*
X269831000Y-53137500D01*
X269831000Y-53137500D02*
X269300000Y-53137500D01*
X301669000Y-53137500D02*
X300038000Y-54768800D01*
X300038000Y-54768800D02*
X295275000Y-54768800D01*
X295275000Y-54768800D02*
X293644000Y-53137500D01*
X293644000Y-53137500D02*
X293112000Y-53137500D01*
X54731300Y-38593800D02*
X35681300Y-38593800D01*
X35681300Y-38593800D02*
X31175000Y-34087500D01*
X73781300Y-38593800D02*
X54731300Y-38593800D01*
X54731300Y-38593800D02*
X50225000Y-34087500D01*
X92831300Y-38593800D02*
X73781300Y-38593800D01*
X73781300Y-38593800D02*
X69275000Y-34087500D01*
X111881000Y-38593800D02*
X92831300Y-38593800D01*
X92831300Y-38593800D02*
X88325000Y-34087500D01*
X130931000Y-38593800D02*
X111881000Y-38593800D01*
X111881000Y-38593800D02*
X107375000Y-34087500D01*
X149981000Y-38593800D02*
X130931000Y-38593800D01*
X130931000Y-38593800D02*
X126425000Y-34087500D01*
X169031000Y-38593800D02*
X149981000Y-38593800D01*
X149981000Y-38593800D02*
X145475000Y-34087500D01*
X188081000Y-38593800D02*
X169031000Y-38593800D01*
X169031000Y-38593800D02*
X164525000Y-34087500D01*
X207131000Y-38593800D02*
X188081000Y-38593800D01*
X188081000Y-38593800D02*
X183575000Y-34087500D01*
X226713000Y-38593800D02*
X207131000Y-38593800D01*
X207131000Y-38593800D02*
X202625000Y-34087500D01*
X245763000Y-38593800D02*
X226713000Y-38593800D01*
X226713000Y-38593800D02*
X222206000Y-34087500D01*
X222206000Y-34087500D02*
X221675000Y-34087500D01*
X262431000Y-38593800D02*
X245763000Y-38593800D01*
X245763000Y-38593800D02*
X241256000Y-34087500D01*
X241256000Y-34087500D02*
X240725000Y-34087500D01*
X262431000Y-38593800D02*
X259775000Y-35937500D01*
X259775000Y-35937500D02*
X259775000Y-34087500D01*
X288350000Y-34087500D02*
X288350000Y-34808800D01*
X288350000Y-34808800D02*
X284565000Y-38593800D01*
X284565000Y-38593800D02*
X262431000Y-38593800D01*
X328449987Y-92706787D02*
X328449987Y-81331743D01*
X328449987Y-81331743D02*
X326450000Y-79331200D01*
X328612000Y-92868800D02*
X328449987Y-92706787D01*
D20*
X326000000Y-101250000D02*
X328225100Y-103475100D01*
X321505900Y-101250000D02*
X326000000Y-101250000D01*
X315230700Y-107525200D02*
X321505900Y-101250000D01*
X313675100Y-107525200D02*
X315230700Y-107525200D01*
X307988100Y-101838200D02*
X313675100Y-107525200D01*
X301921200Y-101838200D02*
X307988100Y-101838200D01*
X296928000Y-107468900D02*
X296928000Y-106831400D01*
X296928000Y-106831400D02*
X301921200Y-101838200D01*
X299747100Y-110288000D02*
X296928000Y-107468900D01*
X328225100Y-108788000D02*
X326450000Y-108788000D01*
X328225100Y-103475100D02*
X328225100Y-108788000D01*
X302200000Y-110288000D02*
X299747100Y-110288000D01*
X307400000Y-108788000D02*
X309175100Y-108788000D01*
X309175100Y-108788000D02*
X309175100Y-107012900D01*
X309175100Y-107012900D02*
X309515700Y-106672300D01*
X302200000Y-91237500D02*
X300062300Y-91237500D01*
X300062300Y-91237500D02*
X299585500Y-91714300D01*
X287912000Y-53137500D02*
X282295000Y-53137500D01*
X282295000Y-53137500D02*
X273829400Y-44671900D01*
X273829400Y-44671900D02*
X265444800Y-44671900D01*
X265444800Y-44671900D02*
X258704200Y-51412500D01*
X258704200Y-51412500D02*
X258704200Y-53804200D01*
X272972400Y-86060300D02*
X277007300Y-82025400D01*
X277007300Y-82025400D02*
X279562100Y-82025400D01*
X279562100Y-82025400D02*
X282045200Y-79542300D01*
X282045200Y-79542300D02*
X285951500Y-79542300D01*
X285951500Y-79542300D02*
X287762000Y-81352800D01*
X287762000Y-81352800D02*
X287762000Y-81580000D01*
X287762000Y-81580000D02*
X294657200Y-88475200D01*
X294657200Y-88475200D02*
X296180700Y-88475200D01*
X296180700Y-88475200D02*
X301880800Y-82775100D01*
X301880800Y-82775100D02*
X306042800Y-82775100D01*
X306042800Y-82775100D02*
X309175100Y-85907400D01*
X309175100Y-85907400D02*
X309175100Y-89737500D01*
X307400000Y-89737500D02*
X309175100Y-89737500D01*
X283150000Y-34087500D02*
X281374900Y-34087500D01*
X293112000Y-51637500D02*
X294887100Y-51637500D01*
X294887100Y-51637500D02*
X296082000Y-50442600D01*
X296082000Y-50442600D02*
X296082000Y-42128700D01*
X296082000Y-42128700D02*
X293829200Y-39875900D01*
X293829200Y-39875900D02*
X282500400Y-39875900D01*
X281374900Y-34087500D02*
X281374900Y-36139200D01*
X281374900Y-36139200D02*
X279778900Y-37735200D01*
X290125100Y-32587500D02*
X288350000Y-32587500D01*
X291370100Y-23137500D02*
X291370100Y-31342500D01*
X279475400Y-30022200D02*
X287122800Y-22374800D01*
X276847500Y-34937400D02*
X279475400Y-32309500D01*
X271615700Y-34937400D02*
X276847500Y-34937400D01*
X270388600Y-33710300D02*
X271615700Y-34937400D01*
X290607400Y-22374800D02*
X291370100Y-23137500D01*
X279475400Y-32309500D02*
X279475400Y-30022200D01*
X254575000Y-34087500D02*
X252799900Y-34087500D01*
X252799900Y-34087500D02*
X250432600Y-36454800D01*
X268104100Y-32131586D02*
X269682814Y-33710300D01*
X250432600Y-36454800D02*
X249700900Y-36454800D01*
X249700900Y-36454800D02*
X246849800Y-33603700D01*
X246849800Y-33603700D02*
X246849800Y-29184900D01*
X287122800Y-22374800D02*
X290607400Y-22374800D01*
X246849800Y-29184900D02*
X248450100Y-27584600D01*
X248450100Y-27584600D02*
X248450100Y-26549900D01*
X253450011Y-21549989D02*
X262936400Y-21549989D01*
X291370100Y-31342500D02*
X290125100Y-32587500D01*
X248450100Y-26549900D02*
X253450011Y-21549989D01*
X262936400Y-21549989D02*
X268104100Y-26717689D01*
X268104100Y-26717689D02*
X268104100Y-32131586D01*
X269682814Y-33710300D02*
X270388600Y-33710300D01*
X261550100Y-32587500D02*
X261550100Y-35678100D01*
X261550100Y-35678100D02*
X263607200Y-37735200D01*
X261692500Y-52505100D02*
X262324900Y-53137500D01*
X259775000Y-32587500D02*
X261550100Y-32587500D01*
X264100000Y-53137500D02*
X262324900Y-53137500D01*
X280769000Y-72187500D02*
X278993900Y-72187500D01*
X278993900Y-72187500D02*
X278936100Y-72129700D01*
X278936100Y-72129700D02*
X276598800Y-72129700D01*
X276598800Y-72129700D02*
X276541000Y-72187500D01*
X276541000Y-72187500D02*
X275910400Y-72187500D01*
X275910400Y-72187500D02*
X274718100Y-70995200D01*
X274718100Y-70995200D02*
X267142600Y-70995200D01*
X267142600Y-70995200D02*
X266980100Y-70832700D01*
X266980100Y-70832700D02*
X266980100Y-56615000D01*
X266980100Y-56615000D02*
X267711500Y-55883600D01*
X269300000Y-51637500D02*
X271365700Y-51637500D01*
X278388000Y-91237500D02*
X273556800Y-91237500D01*
X273556800Y-91237500D02*
X270647100Y-88327800D01*
X270647100Y-88327800D02*
X270647100Y-86699600D01*
X270647100Y-86699600D02*
X275771400Y-81575300D01*
X275771400Y-81575300D02*
X279375700Y-81575300D01*
X279375700Y-81575300D02*
X280612000Y-80339000D01*
X280612000Y-80339000D02*
X280612000Y-79702300D01*
X285969000Y-70687500D02*
X287744100Y-70687500D01*
X287744100Y-70687500D02*
X287744100Y-72212900D01*
X287744100Y-72212900D02*
X288129800Y-72598600D01*
X283150000Y-110288000D02*
X278275100Y-110288000D01*
X278275100Y-110288000D02*
X277858400Y-109871300D01*
X277858400Y-109871300D02*
X277858400Y-108784500D01*
X277858400Y-108784500D02*
X282289500Y-104353400D01*
X283588000Y-89737500D02*
X285413200Y-89737500D01*
X285413200Y-89737500D02*
X287675000Y-91999300D01*
X290125100Y-108788000D02*
X288350000Y-108788000D01*
X290125100Y-104981500D02*
X290125100Y-108788000D01*
X283733400Y-101836500D02*
X286980100Y-101836500D01*
X286980100Y-101836500D02*
X290125100Y-104981500D01*
X274750000Y-106500000D02*
X274750000Y-108250000D01*
X269500000Y-101250000D02*
X274750000Y-106500000D01*
X274750000Y-108250000D02*
X277319900Y-108250000D01*
X265250000Y-101250000D02*
X269500000Y-101250000D01*
X258802600Y-107697400D02*
X265250000Y-101250000D01*
X258802600Y-109822600D02*
X258802600Y-107697400D01*
X259268000Y-110288000D02*
X258802600Y-109822600D01*
X277319900Y-108250000D02*
X283733400Y-101836500D01*
X264100000Y-110288000D02*
X259268000Y-110288000D01*
X271075100Y-108788000D02*
X271075100Y-103880400D01*
X271075100Y-103880400D02*
X269767300Y-102572600D01*
X269300000Y-108788000D02*
X271075100Y-108788000D01*
X259338000Y-91237500D02*
X257562900Y-91237500D01*
X257261200Y-91188400D02*
X257513800Y-91188400D01*
X257513800Y-91188400D02*
X257562900Y-91237500D01*
X247757800Y-71803100D02*
X248036900Y-72082200D01*
X248036900Y-72082200D02*
X248036900Y-72187500D01*
X249812000Y-72187500D02*
X248036900Y-72187500D01*
X264538000Y-89737500D02*
X264863200Y-89412300D01*
X264863200Y-89412300D02*
X264863200Y-84459700D01*
X264863200Y-84459700D02*
X262825300Y-82421800D01*
X262825300Y-82421800D02*
X258893800Y-82421800D01*
X255012000Y-70687500D02*
X255354700Y-70344800D01*
X255354700Y-70344800D02*
X255354700Y-65408500D01*
X255354700Y-65408500D02*
X253667200Y-63721000D01*
X253667200Y-63721000D02*
X250823400Y-63721000D01*
X243274900Y-53137500D02*
X243274900Y-53594800D01*
X243274900Y-53594800D02*
X242971400Y-53898300D01*
X245050000Y-53137500D02*
X243274900Y-53137500D01*
X250250000Y-51637500D02*
X252025100Y-51637500D01*
X252025100Y-51637500D02*
X252025100Y-45630400D01*
X252025100Y-45630400D02*
X251197350Y-44802650D01*
X247065700Y-40671000D02*
X239646900Y-40671000D01*
X235525000Y-34087500D02*
X235525000Y-37401000D01*
X235525000Y-37401000D02*
X235859200Y-37735200D01*
X249072350Y-42677650D02*
X247065700Y-40671000D01*
X211590100Y-34087500D02*
X216475000Y-34087500D01*
X211196700Y-33694100D02*
X211590100Y-34087500D01*
X240725000Y-32587500D02*
X242500100Y-32587500D01*
X230164400Y-31335600D02*
X227959700Y-31335600D01*
X242500100Y-32587500D02*
X242500100Y-27750100D01*
X242500100Y-27750100D02*
X240000000Y-25250000D01*
X240000000Y-25250000D02*
X236250000Y-25250000D01*
X217882700Y-25624200D02*
X211196700Y-32310200D01*
X236250000Y-25250000D02*
X230164400Y-31335600D01*
X227959700Y-31335600D02*
X222248300Y-25624200D01*
X222248300Y-25624200D02*
X217882700Y-25624200D01*
X211196700Y-32310200D02*
X211196700Y-33694100D01*
X221675000Y-32587500D02*
X223450100Y-32587500D01*
X223450100Y-32587500D02*
X223450100Y-34095400D01*
X223450100Y-34095400D02*
X226468000Y-37113300D01*
X225336500Y-44416500D02*
X220688700Y-49064300D01*
X220688700Y-49064300D02*
X220688700Y-51746700D01*
X220688700Y-51746700D02*
X222079500Y-53137500D01*
X222079500Y-53137500D02*
X226000000Y-53137500D01*
X232975100Y-51637500D02*
X232975100Y-53519300D01*
X232975100Y-53519300D02*
X233354100Y-53898300D01*
X231200000Y-51637500D02*
X232975100Y-51637500D01*
X232842800Y-60298600D02*
X232842800Y-60796100D01*
X232842800Y-60796100D02*
X231563700Y-62075200D01*
X231563700Y-62075200D02*
X228738000Y-62075200D01*
X224031600Y-66781600D02*
X222218400Y-66781600D01*
X228738000Y-62075200D02*
X224031600Y-66781600D01*
X222218400Y-66781600D02*
X222000000Y-67000000D01*
X222000000Y-67000000D02*
X222000000Y-69500000D01*
X224687500Y-72187500D02*
X226187500Y-72187500D01*
X222000000Y-69500000D02*
X224687500Y-72187500D01*
X226187500Y-72187500D02*
X230762000Y-72187500D01*
X238512900Y-91237500D02*
X238223200Y-90947800D01*
X238223200Y-90947800D02*
X238223200Y-90872500D01*
X240288000Y-91237500D02*
X238512900Y-91237500D01*
X235962000Y-70687500D02*
X238807200Y-70687500D01*
X238807200Y-70687500D02*
X238964600Y-70844900D01*
X240893900Y-110288000D02*
X240606900Y-110001000D01*
X240606900Y-110001000D02*
X240606900Y-109869300D01*
X245488000Y-89737500D02*
X247263100Y-89737500D01*
X242669000Y-110288000D02*
X240893900Y-110288000D01*
X247263100Y-89737500D02*
X247263100Y-89985800D01*
X247263100Y-89985800D02*
X248071600Y-90794300D01*
X247869000Y-108788000D02*
X249644100Y-108788000D01*
X249644100Y-108788000D02*
X250865400Y-107566700D01*
X250865400Y-107566700D02*
X250865400Y-99310100D01*
X250865400Y-99310100D02*
X250126600Y-98571300D01*
X250126600Y-98571300D02*
X246303200Y-98571300D01*
X246303200Y-98571300D02*
X240899300Y-103975200D01*
X240899300Y-103975200D02*
X227804600Y-103975200D01*
X227804600Y-103975200D02*
X225653600Y-101824200D01*
X225653600Y-101824200D02*
X220225900Y-101824200D01*
X220225900Y-101824200D02*
X214717200Y-107332900D01*
X214717200Y-107332900D02*
X214717200Y-108807100D01*
X214717200Y-108807100D02*
X216198100Y-110288000D01*
X216198100Y-110288000D02*
X218856000Y-110288000D01*
X224056000Y-108788000D02*
X224387300Y-108456700D01*
X224387300Y-108456700D02*
X224387300Y-102799300D01*
X224387300Y-102799300D02*
X224165100Y-102577100D01*
X219462900Y-91237500D02*
X219164000Y-91536400D01*
X219164000Y-91536400D02*
X219164000Y-92013700D01*
X221238000Y-91237500D02*
X219462900Y-91237500D01*
X216377800Y-86759800D02*
X220363400Y-82774200D01*
X220363400Y-82774200D02*
X225041500Y-82774200D01*
X225041500Y-82774200D02*
X228213100Y-85945800D01*
X228213100Y-85945800D02*
X228213100Y-89737500D01*
X226438000Y-89737500D02*
X228213100Y-89737500D01*
X211712000Y-72187500D02*
X209540400Y-72187500D01*
X209540400Y-72187500D02*
X208762800Y-72965100D01*
X205174900Y-53137500D02*
X204405400Y-53907000D01*
X204405400Y-53907000D02*
X204000600Y-53907000D01*
X216912000Y-70687500D02*
X218687100Y-70687500D01*
X206950000Y-53137500D02*
X205174900Y-53137500D01*
X218687100Y-70687500D02*
X218687100Y-66895800D01*
X218687100Y-66895800D02*
X215515500Y-63724200D01*
X215515500Y-63724200D02*
X211028800Y-63724200D01*
X211028800Y-63724200D02*
X206662300Y-68090700D01*
X213925100Y-51637500D02*
X213925100Y-47857000D01*
X213925100Y-47857000D02*
X210721100Y-44653000D01*
X210721100Y-44653000D02*
X208330800Y-44653000D01*
X208330800Y-44653000D02*
X207548300Y-45435500D01*
X207548300Y-45435500D02*
X205818500Y-45435500D01*
X197425000Y-34087500D02*
X197425000Y-34587400D01*
X197425000Y-34587400D02*
X200575900Y-37738300D01*
X200575900Y-37738300D02*
X203606500Y-37738300D01*
X212150000Y-51637500D02*
X213925100Y-51637500D01*
X179786100Y-25624200D02*
X174482400Y-30927900D01*
X175020000Y-34087500D02*
X178375000Y-34087500D01*
X184135800Y-25624200D02*
X179786100Y-25624200D01*
X174482400Y-30927900D02*
X174482400Y-33549900D01*
X190261600Y-31750000D02*
X184135800Y-25624200D01*
X192600000Y-31750000D02*
X190261600Y-31750000D01*
X201195500Y-25597700D02*
X198752300Y-25597700D01*
X202975000Y-27377200D02*
X201195500Y-25597700D01*
X202975000Y-32237500D02*
X202975000Y-27377200D01*
X174482400Y-33549900D02*
X175020000Y-34087500D01*
X198752300Y-25597700D02*
X192600000Y-31750000D01*
X202625000Y-32587500D02*
X202975000Y-32237500D01*
X183575000Y-32587500D02*
X185350100Y-32587500D01*
X187900000Y-53137500D02*
X186124900Y-53137500D01*
X184915100Y-53653600D02*
X185608800Y-53653600D01*
X185608800Y-53653600D02*
X186124900Y-53137500D01*
X185350100Y-32587500D02*
X185350100Y-34555100D01*
X185350100Y-34555100D02*
X188533000Y-37738000D01*
X193100000Y-51637500D02*
X194875100Y-51637500D01*
X192662000Y-72187500D02*
X190886900Y-72187500D01*
X190532900Y-71843200D02*
X190542600Y-71843200D01*
X190542600Y-71843200D02*
X190886900Y-72187500D01*
X194875100Y-51637500D02*
X194875100Y-51698100D01*
X194875100Y-51698100D02*
X195154500Y-51977500D01*
X197862000Y-70687500D02*
X199637100Y-70687500D01*
X199637100Y-70687500D02*
X199637100Y-71237400D01*
X199637100Y-71237400D02*
X199868900Y-71469200D01*
X200412900Y-91237500D02*
X199819000Y-90643600D01*
X199819000Y-90643600D02*
X199819000Y-90619900D01*
X202188000Y-91237500D02*
X200412900Y-91237500D01*
X207388000Y-89737500D02*
X207718600Y-89406900D01*
X207718600Y-89406900D02*
X207718600Y-84465200D01*
X207718600Y-84465200D02*
X206045400Y-82792000D01*
X206045400Y-82792000D02*
X201580400Y-82792000D01*
X201580400Y-82792000D02*
X195897200Y-88475200D01*
X195897200Y-88475200D02*
X194540500Y-88475200D01*
X194540500Y-88475200D02*
X188816100Y-82750800D01*
X188816100Y-82750800D02*
X184554000Y-82750800D01*
X184554000Y-82750800D02*
X178732000Y-88572800D01*
X178732000Y-88572800D02*
X178732000Y-90058300D01*
X178732000Y-90058300D02*
X179911200Y-91237500D01*
X179911200Y-91237500D02*
X183138000Y-91237500D01*
X190113100Y-89737500D02*
X190113100Y-85106300D01*
X190113100Y-85106300D02*
X188770100Y-83763300D01*
X188338000Y-89737500D02*
X190113100Y-89737500D01*
X171836900Y-72187500D02*
X171622600Y-71973200D01*
X171622600Y-71973200D02*
X171551500Y-71973200D01*
X173612000Y-72187500D02*
X171836900Y-72187500D01*
X180587100Y-70687500D02*
X181794400Y-69480200D01*
X181794400Y-69480200D02*
X181794400Y-61156400D01*
X181794400Y-61156400D02*
X180384600Y-59746600D01*
X180384600Y-59746600D02*
X170483200Y-59746600D01*
X170483200Y-59746600D02*
X170200000Y-60029800D01*
X167074900Y-53137500D02*
X167074900Y-53472200D01*
X167074900Y-53472200D02*
X166648800Y-53898300D01*
X168850000Y-53137500D02*
X167074900Y-53137500D01*
X178812000Y-70687500D02*
X180587100Y-70687500D01*
X174050000Y-51637500D02*
X175825100Y-51637500D01*
X175825100Y-51637500D02*
X175825100Y-46484700D01*
X175825100Y-46484700D02*
X175110700Y-45770300D01*
X159325000Y-34087500D02*
X159325000Y-34587400D01*
X159325000Y-34587400D02*
X161751600Y-37014000D01*
X161751600Y-37014000D02*
X166166700Y-37014000D01*
X160465900Y-25634100D02*
X163140700Y-25634100D01*
X163140700Y-25634100D02*
X164862000Y-27355400D01*
X154774800Y-31325200D02*
X160465900Y-25634100D01*
X151706300Y-31325200D02*
X154774800Y-31325200D01*
X164862000Y-32250500D02*
X164525000Y-32587500D01*
X164862000Y-27355400D02*
X164862000Y-32250500D01*
X143940550Y-22190550D02*
X143940550Y-23559450D01*
X138250000Y-21500000D02*
X143250000Y-21500000D01*
X143250000Y-21500000D02*
X143940550Y-22190550D01*
X135274800Y-24475200D02*
X138250000Y-21500000D01*
X135274800Y-33119200D02*
X135274800Y-24475200D01*
X143940550Y-23559450D02*
X151706300Y-31325200D01*
X140275000Y-34087500D02*
X136243100Y-34087500D01*
X136243100Y-34087500D02*
X135274800Y-33119200D01*
X148024900Y-53137500D02*
X147933900Y-53137500D01*
X147933900Y-53137500D02*
X147142100Y-52345700D01*
X147250100Y-32587500D02*
X147250100Y-34631600D01*
X147250100Y-34631600D02*
X150125700Y-37507200D01*
X149800000Y-53137500D02*
X148024900Y-53137500D01*
X145475000Y-32587500D02*
X147250100Y-32587500D01*
X154562000Y-72187500D02*
X152786900Y-72187500D01*
X155000000Y-51637500D02*
X156775100Y-51637500D01*
X156775100Y-51637500D02*
X156775100Y-51019600D01*
X156775100Y-51019600D02*
X156936200Y-50858500D01*
X152131000Y-71794400D02*
X152393800Y-71794400D01*
X152393800Y-71794400D02*
X152786900Y-72187500D01*
X161537100Y-70687500D02*
X161537100Y-72683200D01*
X161537100Y-72683200D02*
X161764600Y-72910700D01*
X164088000Y-91237500D02*
X160876300Y-91237500D01*
X160876300Y-91237500D02*
X159744700Y-90105900D01*
X159744700Y-90105900D02*
X159744700Y-85693600D01*
X159744700Y-85693600D02*
X161764600Y-83673700D01*
X159762000Y-70687500D02*
X161537100Y-70687500D01*
X169288000Y-89737500D02*
X171063100Y-89737500D01*
X147419000Y-110288000D02*
X145643900Y-110288000D01*
X145643900Y-110288000D02*
X145643900Y-110654300D01*
X145643900Y-110654300D02*
X145252900Y-111045300D01*
X171063100Y-89737500D02*
X171063100Y-89850400D01*
X171063100Y-89850400D02*
X172007000Y-90794300D01*
X145038000Y-91237500D02*
X143262900Y-91237500D01*
X143262900Y-91237500D02*
X143262900Y-91241300D01*
X143262900Y-91241300D02*
X142974600Y-91529600D01*
X154394100Y-108788000D02*
X156092310Y-110486210D01*
X156092310Y-110486210D02*
X200580210Y-110486210D01*
X152619000Y-108788000D02*
X154394100Y-108788000D01*
X150238000Y-89737500D02*
X150238000Y-87661700D01*
X150238000Y-87661700D02*
X150647900Y-87251800D01*
X135512000Y-72187500D02*
X133671100Y-72187500D01*
X133671100Y-72187500D02*
X133432500Y-71948900D01*
X140712000Y-70687500D02*
X142487100Y-70687500D01*
X142487100Y-70687500D02*
X142487100Y-67320100D01*
X142487100Y-67320100D02*
X141326700Y-66159700D01*
X128974900Y-53137500D02*
X128974900Y-53582700D01*
X128974900Y-53582700D02*
X128659300Y-53898300D01*
X130750000Y-53137500D02*
X128974900Y-53137500D01*
X126881400Y-37712600D02*
X124350200Y-37712600D01*
X124350200Y-37712600D02*
X121225000Y-34587400D01*
X121225000Y-34587400D02*
X121225000Y-34087500D01*
X135950000Y-51637500D02*
X136275200Y-51312300D01*
X136275200Y-51312300D02*
X136275200Y-46406700D01*
X136275200Y-46406700D02*
X134083200Y-44214700D01*
X134083200Y-44214700D02*
X130106700Y-44214700D01*
X126425000Y-32587500D02*
X128200100Y-32587500D01*
X128200100Y-32587500D02*
X128200100Y-28812600D01*
X128200100Y-28812600D02*
X124996000Y-25608500D01*
X124996000Y-25608500D02*
X122602200Y-25608500D01*
X122602200Y-25608500D02*
X116849600Y-31361100D01*
X116849600Y-31361100D02*
X113674400Y-31361100D01*
X113674400Y-31361100D02*
X107961000Y-25647700D01*
X107961000Y-25647700D02*
X103522500Y-25647700D01*
X103522500Y-25647700D02*
X97015700Y-32154500D01*
X97015700Y-32154500D02*
X97015700Y-32841800D01*
X97015700Y-32841800D02*
X98261400Y-34087500D01*
X98261400Y-34087500D02*
X102175000Y-34087500D01*
X109150100Y-32587500D02*
X109150100Y-33912800D01*
X109150100Y-33912800D02*
X112972500Y-37735200D01*
X107375000Y-32587500D02*
X109150100Y-32587500D01*
X111700000Y-53137500D02*
X109924900Y-53137500D01*
X109015400Y-53653600D02*
X109408800Y-53653600D01*
X109408800Y-53653600D02*
X109924900Y-53137500D01*
X116462000Y-72187500D02*
X113136300Y-72187500D01*
X113136300Y-72187500D02*
X112222700Y-71273900D01*
X112222700Y-71273900D02*
X112222700Y-67265500D01*
X112222700Y-67265500D02*
X115020800Y-64467400D01*
X116900000Y-51637500D02*
X116833400Y-51570900D01*
X116833400Y-51570900D02*
X116833400Y-50617700D01*
X121662000Y-70687500D02*
X123437100Y-70687500D01*
X123437100Y-70687500D02*
X123437100Y-72631900D01*
X123437100Y-72631900D02*
X123740300Y-72935100D01*
X124212900Y-91237500D02*
X124212900Y-91077900D01*
X124212900Y-91077900D02*
X123740300Y-90605300D01*
X125988000Y-91237500D02*
X124212900Y-91237500D01*
X103944100Y-91237500D02*
X106938000Y-91237500D01*
X112500350Y-82787200D02*
X108287800Y-82787200D01*
X118963150Y-89250000D02*
X112500350Y-82787200D01*
X120500000Y-89250000D02*
X118963150Y-89250000D01*
X108287800Y-82787200D02*
X103010000Y-88065000D01*
X103010000Y-90303400D02*
X103944100Y-91237500D01*
X103010000Y-88065000D02*
X103010000Y-90303400D01*
X132963100Y-89737500D02*
X132963100Y-85907300D01*
X129838900Y-82783100D02*
X126966900Y-82783100D01*
X131188000Y-89737500D02*
X132963100Y-89737500D01*
X132963100Y-85907300D02*
X129838900Y-82783100D01*
X126966900Y-82783100D02*
X120500000Y-89250000D01*
X97412000Y-72187500D02*
X95636900Y-72187500D01*
X95340900Y-71668900D02*
X95636900Y-71964900D01*
X95636900Y-71964900D02*
X95636900Y-72187500D01*
X112138000Y-89737500D02*
X113010965Y-88864535D01*
X113010965Y-84888820D02*
X113010965Y-84323135D01*
X113010965Y-88864535D02*
X113010965Y-84888820D01*
X102612000Y-70687500D02*
X104387100Y-70687500D01*
X104387100Y-70687500D02*
X105573800Y-69500800D01*
X105573800Y-69500800D02*
X105573800Y-61145300D01*
X105573800Y-61145300D02*
X100783600Y-56355100D01*
X100783600Y-56355100D02*
X88119600Y-56355100D01*
X92650000Y-53137500D02*
X88294700Y-53137500D01*
X88294700Y-53137500D02*
X87525200Y-53907000D01*
X91900800Y-44810000D02*
X92036200Y-44674600D01*
X92036200Y-44674600D02*
X96466200Y-44674600D01*
X96466200Y-44674600D02*
X99625100Y-47833500D01*
X99625100Y-47833500D02*
X99625100Y-51637500D01*
X97850000Y-51637500D02*
X99625100Y-51637500D01*
X83125000Y-34087500D02*
X83125000Y-34587400D01*
X83125000Y-34587400D02*
X86276700Y-37739100D01*
X86276700Y-37739100D02*
X89584900Y-37739100D01*
X90100100Y-32587500D02*
X88325000Y-32587500D01*
X90100100Y-28749100D02*
X90100100Y-32587500D01*
X86988800Y-25637800D02*
X90100100Y-28749100D01*
X84123600Y-25637800D02*
X86988800Y-25637800D01*
X64075000Y-34087500D02*
X60989900Y-34087500D01*
X60989900Y-34087500D02*
X58997500Y-32095100D01*
X58997500Y-32095100D02*
X58997500Y-30232200D01*
X56349900Y-25990300D02*
X60666700Y-21673500D01*
X60666700Y-21673500D02*
X71482700Y-21673500D01*
X71482700Y-21673500D02*
X74886500Y-25077300D01*
X58997500Y-30232200D02*
X56349900Y-27584600D01*
X74886500Y-30479200D02*
X74886600Y-30479200D01*
X56349900Y-27584600D02*
X56349900Y-25990300D01*
X75750000Y-32000000D02*
X77761400Y-32000000D01*
X77761400Y-32000000D02*
X84123600Y-25637800D01*
X74886500Y-25077300D02*
X74886500Y-30479200D01*
X74886600Y-30479200D02*
X74886600Y-31136600D01*
X74886600Y-31136600D02*
X75750000Y-32000000D01*
X69275000Y-32587500D02*
X71050100Y-32587500D01*
X71050100Y-32587500D02*
X71050100Y-34125900D01*
X71050100Y-34125900D02*
X74646400Y-37722200D01*
X72181300Y-47640400D02*
X72181300Y-47929500D01*
X72181300Y-47929500D02*
X69997700Y-50113100D01*
X69997700Y-50113100D02*
X69997700Y-52348600D01*
X69997700Y-52348600D02*
X70786600Y-53137500D01*
X70786600Y-53137500D02*
X73600000Y-53137500D01*
X78362500Y-72187500D02*
X76106700Y-72187500D01*
X76106700Y-72187500D02*
X74710300Y-70791100D01*
X74710300Y-70791100D02*
X74710300Y-67420100D01*
X74710300Y-67420100D02*
X73010700Y-65720500D01*
X73010700Y-65720500D02*
X73010700Y-64107400D01*
X73010700Y-64107400D02*
X77645400Y-59472700D01*
X77645400Y-59472700D02*
X79089400Y-59472700D01*
X78800000Y-51637500D02*
X80575100Y-51637500D01*
X80575100Y-51637500D02*
X80575100Y-53463300D01*
X80575100Y-53463300D02*
X81027200Y-53915400D01*
X85337600Y-70687500D02*
X85337600Y-70136100D01*
X85337600Y-70136100D02*
X84878200Y-69676700D01*
X86112400Y-91237500D02*
X85516000Y-90641100D01*
X85516000Y-90641100D02*
X84580200Y-90641100D01*
X87887500Y-91237500D02*
X86112400Y-91237500D01*
X83562500Y-70687500D02*
X85337600Y-70687500D01*
X94862600Y-89737500D02*
X94862600Y-91600000D01*
X94862600Y-91600000D02*
X95266700Y-92004100D01*
X93087500Y-89737500D02*
X94862600Y-89737500D01*
X75981200Y-110288000D02*
X74206100Y-110288000D01*
X74206100Y-110288000D02*
X73937100Y-110019000D01*
X73937100Y-110019000D02*
X73904400Y-110019000D01*
X67062400Y-91237500D02*
X66761600Y-91538300D01*
X66761600Y-91538300D02*
X66761600Y-91982000D01*
X81181200Y-108788000D02*
X81506400Y-108462800D01*
X81506400Y-108462800D02*
X81506400Y-103542600D01*
X81506400Y-103542600D02*
X79787200Y-101823400D01*
X79787200Y-101823400D02*
X76287400Y-101823400D01*
X68837500Y-91237500D02*
X67062400Y-91237500D01*
X74037500Y-89737500D02*
X75812600Y-89737500D01*
X75812600Y-89737500D02*
X75812600Y-84727400D01*
X75812600Y-84727400D02*
X74602700Y-83517500D01*
X59312500Y-72187500D02*
X57537400Y-72187500D01*
X57249300Y-71843200D02*
X57537400Y-72131300D01*
X57537400Y-72131300D02*
X57537400Y-72187500D01*
X54550000Y-53137500D02*
X52774900Y-53137500D01*
X52465900Y-53653600D02*
X52774900Y-53344600D01*
X52774900Y-53344600D02*
X52774900Y-53137500D01*
X64512500Y-70687500D02*
X64837700Y-70362300D01*
X64837700Y-70362300D02*
X64837700Y-64277700D01*
X64837700Y-64277700D02*
X64831700Y-64271700D01*
X59750000Y-51637500D02*
X61525100Y-51637500D01*
X61525100Y-51637500D02*
X61525100Y-46853000D01*
X61525100Y-46853000D02*
X60072800Y-45400700D01*
X45025000Y-34087500D02*
X45025000Y-34587400D01*
X45025000Y-34587400D02*
X47415400Y-36977800D01*
X47415400Y-36977800D02*
X51638000Y-36977800D01*
X52000100Y-32587500D02*
X50225000Y-32587500D01*
X52000100Y-28789000D02*
X52000100Y-32587500D01*
X48858800Y-25647700D02*
X52000100Y-28789000D01*
X31633700Y-25620300D02*
X37338600Y-31325200D01*
X20625000Y-31875000D02*
X26879700Y-25620300D01*
X37338600Y-31325200D02*
X40735500Y-31325200D01*
X25975000Y-34087500D02*
X22837500Y-34087500D01*
X22837500Y-34087500D02*
X20625000Y-31875000D01*
X26879700Y-25620300D02*
X31633700Y-25620300D01*
X40735500Y-31325200D02*
X46413000Y-25647700D01*
X46413000Y-25647700D02*
X48858800Y-25647700D01*
X31175000Y-32587500D02*
X32950100Y-32587500D01*
X32950100Y-32587500D02*
X32950100Y-33816500D01*
X32950100Y-33816500D02*
X36868800Y-37735200D01*
X29384900Y-48067300D02*
X26470400Y-50981800D01*
X26470400Y-50981800D02*
X26470400Y-52045000D01*
X26470400Y-52045000D02*
X27562900Y-53137500D01*
X27562900Y-53137500D02*
X30737500Y-53137500D01*
X28867400Y-72187500D02*
X33118800Y-72187500D01*
X25393600Y-68713700D02*
X28867400Y-72187500D01*
X33886500Y-62147900D02*
X26684000Y-62147900D01*
X34244400Y-61790000D02*
X33886500Y-62147900D01*
X25393600Y-63438300D02*
X25393600Y-68713700D01*
X34244400Y-61750759D02*
X34244400Y-61790000D01*
X35000000Y-44500000D02*
X31926800Y-44500000D01*
X36500000Y-51075000D02*
X36500000Y-46000000D01*
X26020300Y-52231500D02*
X27537100Y-53748300D01*
X36500000Y-46000000D02*
X35000000Y-44500000D01*
X26020300Y-50406500D02*
X26020300Y-52231500D01*
X31926800Y-44500000D02*
X26020300Y-50406500D01*
X27537100Y-53748300D02*
X27935000Y-53748300D01*
X26684000Y-62147900D02*
X25393600Y-63438300D01*
X27935000Y-53748300D02*
X34244400Y-60057700D01*
X34244400Y-60057700D02*
X34244400Y-60099241D01*
X35937500Y-51637500D02*
X36500000Y-51075000D01*
X34244400Y-60099241D02*
X34593810Y-60448651D01*
X34593810Y-60448651D02*
X34593810Y-61401349D01*
X34593810Y-61401349D02*
X34244400Y-61750759D01*
X37881200Y-91237500D02*
X36106100Y-91237500D01*
X38318800Y-70687500D02*
X40093900Y-70687500D01*
X40093900Y-70687500D02*
X40093900Y-72467300D01*
X40093900Y-72467300D02*
X40378100Y-72751500D01*
X23067600Y-75274500D02*
X23067600Y-95718400D01*
X23067600Y-95718400D02*
X27547200Y-100198000D01*
X27547200Y-100198000D02*
X29172100Y-100198000D01*
X29172100Y-100198000D02*
X36106100Y-93264000D01*
X36106100Y-93264000D02*
X36106100Y-91237500D01*
X52168800Y-110288000D02*
X48512400Y-110288000D01*
X48512400Y-110288000D02*
X47222800Y-108998400D01*
X47222800Y-108998400D02*
X47222800Y-107613400D01*
X47222800Y-107613400D02*
X52250900Y-102585300D01*
X43081200Y-89737500D02*
X44856400Y-89737500D01*
X44856400Y-89737500D02*
X47135400Y-92016500D01*
X47135400Y-92016500D02*
X56212300Y-92016500D01*
X59143900Y-103893900D02*
X59143900Y-108788000D01*
X52310400Y-101500000D02*
X56750000Y-101500000D01*
X33277600Y-101803800D02*
X39043100Y-107569300D01*
X28356200Y-110288000D02*
X26189300Y-110288000D01*
X56750000Y-101500000D02*
X59143900Y-103893900D01*
X24997000Y-106529100D02*
X29722300Y-101803800D01*
X59143900Y-108788000D02*
X57368800Y-108788000D01*
X26189300Y-110288000D02*
X24997000Y-109095700D01*
X24997000Y-109095700D02*
X24997000Y-106529100D01*
X29722300Y-101803800D02*
X33277600Y-101803800D01*
X39043100Y-107569300D02*
X46241100Y-107569300D01*
X46241100Y-107569300D02*
X52310400Y-101500000D01*
X318110000Y-54950000D02*
X323879200Y-49180800D01*
X323879200Y-49180800D02*
X329125400Y-49180800D01*
X214625800Y-21322800D02*
X214789500Y-21159100D01*
X214789500Y-21159100D02*
X223395800Y-21159100D01*
X223395800Y-21159100D02*
X225134600Y-22897900D01*
X225134600Y-22897900D02*
X231742800Y-22897900D01*
X231742800Y-22897900D02*
X235621200Y-19019500D01*
X235621200Y-19019500D02*
X302089100Y-19019500D01*
X302089100Y-19019500D02*
X302275200Y-19205600D01*
X302275200Y-19205600D02*
X302275200Y-21953000D01*
X302275200Y-21953000D02*
X307328700Y-27006500D01*
X307328700Y-27006500D02*
X312018600Y-27006500D01*
X28356200Y-90081900D02*
X32768200Y-90081900D01*
X32768200Y-90081900D02*
X32996400Y-89853700D01*
X32996400Y-89853700D02*
X32996400Y-86009900D01*
X32996400Y-86009900D02*
X37881200Y-81125100D01*
X33118800Y-60925000D02*
X27225400Y-60925000D01*
X27225400Y-60925000D02*
X24061900Y-64088500D01*
X24061900Y-64088500D02*
X24061900Y-89813500D01*
X24061900Y-89813500D02*
X24330300Y-90081900D01*
X24330300Y-90081900D02*
X28356200Y-90081900D01*
X28356200Y-90081900D02*
X28356200Y-97874900D01*
X37881200Y-79975000D02*
X37881200Y-81125100D01*
X28356200Y-99025000D02*
X28356200Y-97874900D01*
X176899900Y-22825000D02*
X173539300Y-26185600D01*
X173539300Y-26185600D02*
X173539300Y-33250100D01*
X173539300Y-33250100D02*
X177296400Y-37007200D01*
X177296400Y-37007200D02*
X184579400Y-37007200D01*
X178375000Y-22825000D02*
X176899900Y-22825000D01*
X20174991Y-32712491D02*
X29337500Y-41875000D01*
X29337500Y-41875000D02*
X30737500Y-41875000D01*
X20174991Y-29825009D02*
X20174991Y-32712491D01*
X25975000Y-24025000D02*
X20174991Y-29825009D01*
X25975000Y-22825000D02*
X25975000Y-24025000D01*
X68837500Y-79975000D02*
X66261000Y-79975000D01*
X66261000Y-79975000D02*
X63040400Y-83195600D01*
X46500100Y-22825000D02*
X46969500Y-22355600D01*
X46969500Y-22355600D02*
X52510900Y-22355600D01*
X52510900Y-22355600D02*
X54099500Y-23944200D01*
X54099500Y-23944200D02*
X54099500Y-35300700D01*
X54099500Y-35300700D02*
X54099600Y-35300700D01*
X54099600Y-35300700D02*
X56538000Y-37739100D01*
X208599200Y-37739100D02*
X204941100Y-34081000D01*
X204941100Y-34081000D02*
X204941100Y-28627300D01*
X204941100Y-28627300D02*
X199138800Y-22825000D01*
X199138800Y-22825000D02*
X198900100Y-22825000D01*
X197425000Y-22825000D02*
X198900100Y-22825000D01*
X45025000Y-22825000D02*
X46500100Y-22825000D01*
X64075000Y-22825000D02*
X65550100Y-22825000D01*
X65550100Y-22825000D02*
X65988400Y-22386700D01*
X65988400Y-22386700D02*
X71559200Y-22386700D01*
X71559200Y-22386700D02*
X73238700Y-24066200D01*
X73238700Y-24066200D02*
X73238700Y-35001300D01*
X73238700Y-35001300D02*
X75972600Y-37735200D01*
X87887500Y-78824900D02*
X240288000Y-78824900D01*
X240288000Y-79975000D02*
X240288000Y-78824900D01*
X87887500Y-79975000D02*
X87887500Y-78824900D01*
X214999900Y-22825000D02*
X214999900Y-23284400D01*
X214999900Y-23284400D02*
X208723700Y-29560600D01*
X208723700Y-29560600D02*
X208723700Y-31878500D01*
X208723700Y-31878500D02*
X213442000Y-36596800D01*
X213442000Y-36596800D02*
X222333500Y-36596800D01*
X216475000Y-22825000D02*
X214999900Y-22825000D01*
X259338000Y-78824900D02*
X261299800Y-76863100D01*
X261299800Y-76863100D02*
X296848400Y-76863100D01*
X296848400Y-76863100D02*
X303545500Y-70166000D01*
X259338000Y-79975000D02*
X259338000Y-78824900D01*
X308502800Y-38493600D02*
X313378200Y-38493600D01*
X313378200Y-38493600D02*
X313905400Y-39020800D01*
X83125000Y-22825000D02*
X84600100Y-22825000D01*
X84600100Y-22825000D02*
X85043400Y-22381700D01*
X85043400Y-22381700D02*
X90660600Y-22381700D01*
X90660600Y-22381700D02*
X92958500Y-24679600D01*
X92958500Y-24679600D02*
X92958500Y-37471400D01*
X237000100Y-22825000D02*
X237470800Y-22354300D01*
X237470800Y-22354300D02*
X243004300Y-22354300D01*
X243004300Y-22354300D02*
X246361100Y-25711100D01*
X246361100Y-25711100D02*
X246361100Y-36306900D01*
X246361100Y-36306900D02*
X247789400Y-37735200D01*
X235525000Y-22825000D02*
X237000100Y-22825000D01*
X102175000Y-22825000D02*
X97614300Y-22825000D01*
X97614300Y-22825000D02*
X94449800Y-25989500D01*
X94449800Y-25989500D02*
X94449800Y-27603200D01*
X94449800Y-27603200D02*
X96431600Y-29585000D01*
X96431600Y-29585000D02*
X96431600Y-32919500D01*
X96431600Y-32919500D02*
X100519800Y-37007700D01*
X100519800Y-37007700D02*
X108637100Y-37007700D01*
X264100000Y-43025100D02*
X264042600Y-43025100D01*
X264042600Y-43025100D02*
X258395800Y-48671900D01*
X276912900Y-79975000D02*
X274537200Y-77599300D01*
X274537200Y-77599300D02*
X265444100Y-77599300D01*
X278388000Y-79975000D02*
X276912900Y-79975000D01*
X264100000Y-41875000D02*
X264100000Y-43025100D01*
X262750000Y-22000000D02*
X264816500Y-24066500D01*
X256050100Y-22825000D02*
X256875100Y-22000000D01*
X264816500Y-24066500D02*
X264816500Y-37735200D01*
X254575000Y-22825000D02*
X256050100Y-22825000D01*
X256875100Y-22000000D02*
X262750000Y-22000000D01*
X122700100Y-22825000D02*
X122938800Y-22825000D01*
X122938800Y-22825000D02*
X132568500Y-32454700D01*
X132568500Y-32454700D02*
X132568500Y-37739100D01*
X265373000Y-39712400D02*
X265119000Y-39458400D01*
X265119000Y-39458400D02*
X132016500Y-39458400D01*
X132016500Y-39458400D02*
X130750000Y-40724900D01*
X287912000Y-41875000D02*
X280232400Y-41875000D01*
X280232400Y-41875000D02*
X278069800Y-39712400D01*
X278069800Y-39712400D02*
X265373000Y-39712400D01*
X304589200Y-32731400D02*
X304394800Y-32925800D01*
X304394800Y-32925800D02*
X293508300Y-32925800D01*
X293508300Y-32925800D02*
X292522500Y-31940000D01*
X292522500Y-31940000D02*
X292522500Y-22989000D01*
X292522500Y-22989000D02*
X290960700Y-21427200D01*
X290960700Y-21427200D02*
X286022900Y-21427200D01*
X286022900Y-21427200D02*
X284625100Y-22825000D01*
X267711500Y-37645900D02*
X270133300Y-35224100D01*
X270133300Y-35224100D02*
X270133300Y-34681500D01*
X121225000Y-22825000D02*
X122700100Y-22825000D01*
X306799100Y-34971700D02*
X306799100Y-37815300D01*
X306799100Y-37815300D02*
X313084600Y-44100800D01*
X313084600Y-44100800D02*
X313905400Y-44100800D01*
X283150000Y-22825000D02*
X284625100Y-22825000D01*
X130750000Y-41875000D02*
X130750000Y-40724900D01*
X321250000Y-97874900D02*
X321250000Y-97100000D01*
X321250000Y-97100000D02*
X317881100Y-93731100D01*
X317881100Y-93731100D02*
X216390800Y-93731100D01*
X141750100Y-22825000D02*
X152222600Y-33297500D01*
X152222600Y-33297500D02*
X152222600Y-37739100D01*
X140275000Y-22825000D02*
X141750100Y-22825000D01*
X321250000Y-99025000D02*
X321250000Y-97874900D01*
X328250000Y-63956200D02*
X328250000Y-61000000D01*
X330850000Y-66556200D02*
X328250000Y-63956200D01*
X165602100Y-27627000D02*
X171886700Y-33911600D01*
X171886700Y-33911600D02*
X171886700Y-37739100D01*
X163027400Y-20597700D02*
X160800100Y-22825000D01*
X224424900Y-20597700D02*
X163027400Y-20597700D01*
X160800100Y-22825000D02*
X159325000Y-22825000D01*
X308311600Y-23573000D02*
X308311600Y-20815300D01*
X330650000Y-42576200D02*
X330650000Y-30660000D01*
X330120800Y-30130800D02*
X319394600Y-30130800D01*
X330650000Y-30660000D02*
X330120800Y-30130800D01*
X319394600Y-30130800D02*
X314314600Y-25050800D01*
X314314600Y-25050800D02*
X309789400Y-25050800D01*
X329125400Y-44100800D02*
X330650000Y-42576200D01*
X230827500Y-22447700D02*
X226274900Y-22447700D01*
X309789400Y-25050800D02*
X308311600Y-23573000D01*
X226274900Y-22447700D02*
X224424900Y-20597700D01*
X308311600Y-20815300D02*
X305871400Y-18375100D01*
X305871400Y-18375100D02*
X234900100Y-18375100D01*
X234900100Y-18375100D02*
X230827500Y-22447700D01*
X329125400Y-23780800D02*
X334745300Y-29400700D01*
X334745300Y-29400700D02*
X334745300Y-49009200D01*
X334745300Y-49009200D02*
X317198300Y-66556200D01*
X317198300Y-66556200D02*
X316350000Y-66556200D01*
M02*
