G04 #@! TF.GenerationSoftware,KiCad,Pcbnew,(5.1.12)-1*
G04 #@! TF.CreationDate,2023-09-29T20:02:25+09:00*
G04 #@! TF.ProjectId,JTNK66L,4a544e4b-3636-44c2-9e6b-696361645f70,rev?*
G04 #@! TF.SameCoordinates,Original*
G04 #@! TF.FileFunction,Profile,NP*
%FSLAX46Y46*%
G04 Gerber Fmt 4.6, Leading zero omitted, Abs format (unit mm)*
G04 Created by KiCad (PCBNEW (5.1.12)-1) date 2023-09-29 20:02:25*
%MOMM*%
%LPD*%
G01*
G04 APERTURE LIST*
G04 #@! TA.AperFunction,Profile*
%ADD10C,0.100000*%
G04 #@! TD*
G04 #@! TA.AperFunction,Profile*
%ADD11C,0.010000*%
G04 #@! TD*
G04 #@! TA.AperFunction,Profile*
%ADD12C,0.120000*%
G04 #@! TD*
G04 APERTURE END LIST*
D10*
X56681250Y-76560000D02*
X56671250Y-89730000D01*
X48441250Y-77800000D02*
X32671250Y-77810000D01*
X24441250Y-89720000D02*
X24461250Y-76550000D01*
X48451250Y-89730000D02*
X48441250Y-77800000D01*
X32661250Y-89720000D02*
X24441250Y-89720000D01*
X24461250Y-76550000D02*
X56681250Y-76560000D01*
X32661250Y-89720000D02*
X32671250Y-77810000D01*
X56671250Y-89730000D02*
X48451250Y-89730000D01*
X299568750Y-57510000D02*
X299558750Y-70680000D01*
X291328750Y-58750000D02*
X275558750Y-58760000D01*
X267328750Y-70670000D02*
X267348750Y-57500000D01*
X291338750Y-70680000D02*
X291328750Y-58750000D01*
X275548750Y-70670000D02*
X267328750Y-70670000D01*
X267348750Y-57500000D02*
X299568750Y-57510000D01*
X275548750Y-70670000D02*
X275558750Y-58760000D01*
X299558750Y-70680000D02*
X291338750Y-70680000D01*
X95860000Y-108780000D02*
X95870000Y-95600000D01*
X104080000Y-108780000D02*
X95860000Y-108780000D01*
X104080000Y-108780000D02*
X104070000Y-96860000D01*
X204330000Y-95620000D02*
X204320000Y-108790000D01*
X196100000Y-96880000D02*
X104070000Y-96860000D01*
X196100000Y-108790000D02*
X196100000Y-96880000D01*
X95870000Y-95600000D02*
X204330000Y-95620000D01*
X204320000Y-108790000D02*
X196100000Y-108790000D01*
X277930000Y-32570000D02*
X277940000Y-20660000D01*
X277930000Y-32570000D02*
X269710000Y-32570000D01*
X293710000Y-20650000D02*
X277940000Y-20660000D01*
X293720000Y-32580000D02*
X293710000Y-20650000D01*
X301940000Y-32580000D02*
X293720000Y-32580000D01*
X301950000Y-19410000D02*
X301940000Y-32580000D01*
X269730000Y-19400000D02*
X301950000Y-19410000D01*
X269710000Y-32570000D02*
X269730000Y-19400000D01*
X17275000Y-116050000D02*
G75*
G02*
X14275000Y-113050000I0J3000000D01*
G01*
X14275000Y-20250000D02*
G75*
G02*
X17275000Y-17250000I3000000J0D01*
G01*
X334483441Y-17249685D02*
G75*
G02*
X337483441Y-20249685I0J-3000000D01*
G01*
X337483441Y-113049685D02*
G75*
G02*
X334483441Y-116049685I-3000000J0D01*
G01*
X337483441Y-113049685D02*
X337483441Y-20249685D01*
X17275000Y-116050000D02*
X334483441Y-116049685D01*
X14275000Y-20250000D02*
X14275000Y-113050000D01*
X334483441Y-17249685D02*
X17275000Y-17250000D01*
D11*
X315445000Y-54778800D02*
G75*
G03*
X315445000Y-54778800I-1100000J0D01*
G01*
X334475000Y-54768800D02*
G75*
G03*
X334475000Y-54768800I-1100000J0D01*
G01*
D12*
X29206200Y-111138000D02*
X29206200Y-107938000D01*
X29206200Y-107938000D02*
X32706200Y-107938000D01*
X32706200Y-107938000D02*
X32706200Y-111138000D01*
X32706200Y-111138000D02*
X29206200Y-111138000D01*
X53018800Y-111138000D02*
X53018800Y-107938000D01*
X53018800Y-107938000D02*
X56518800Y-107938000D01*
X56518800Y-107938000D02*
X56518800Y-111138000D01*
X56518800Y-111138000D02*
X53018800Y-111138000D01*
X38731200Y-92087500D02*
X38731200Y-88887500D01*
X38731200Y-88887500D02*
X42231200Y-88887500D01*
X42231200Y-88887500D02*
X42231200Y-92087500D01*
X42231200Y-92087500D02*
X38731200Y-92087500D01*
X33968800Y-73037500D02*
X33968800Y-69837500D01*
X33968800Y-69837500D02*
X37468800Y-69837500D01*
X37468800Y-69837500D02*
X37468800Y-73037500D01*
X37468800Y-73037500D02*
X33968800Y-73037500D01*
X31587500Y-53987500D02*
X31587500Y-50787500D01*
X31587500Y-50787500D02*
X35087500Y-50787500D01*
X35087500Y-50787500D02*
X35087500Y-53987500D01*
X35087500Y-53987500D02*
X31587500Y-53987500D01*
X26825000Y-34937500D02*
X26825000Y-31737500D01*
X26825000Y-31737500D02*
X30325000Y-31737500D01*
X30325000Y-31737500D02*
X30325000Y-34937500D01*
X30325000Y-34937500D02*
X26825000Y-34937500D01*
X45875000Y-34937500D02*
X45875000Y-31737500D01*
X45875000Y-31737500D02*
X49375000Y-31737500D01*
X49375000Y-31737500D02*
X49375000Y-34937500D01*
X49375000Y-34937500D02*
X45875000Y-34937500D01*
X55400000Y-53987500D02*
X55400000Y-50787500D01*
X55400000Y-50787500D02*
X58900000Y-50787500D01*
X58900000Y-50787500D02*
X58900000Y-53987500D01*
X58900000Y-53987500D02*
X55400000Y-53987500D01*
X60162500Y-73037500D02*
X60162500Y-69837500D01*
X60162500Y-69837500D02*
X63662500Y-69837500D01*
X63662500Y-69837500D02*
X63662500Y-73037500D01*
X63662500Y-73037500D02*
X60162500Y-73037500D01*
X69687500Y-92087500D02*
X69687500Y-88887500D01*
X69687500Y-88887500D02*
X73187500Y-88887500D01*
X73187500Y-88887500D02*
X73187500Y-92087500D01*
X73187500Y-92087500D02*
X69687500Y-92087500D01*
X76831200Y-111138000D02*
X76831200Y-107938000D01*
X76831200Y-107938000D02*
X80331200Y-107938000D01*
X80331200Y-107938000D02*
X80331200Y-111138000D01*
X80331200Y-111138000D02*
X76831200Y-111138000D01*
X88737500Y-92087500D02*
X88737500Y-88887500D01*
X88737500Y-88887500D02*
X92237500Y-88887500D01*
X92237500Y-88887500D02*
X92237500Y-92087500D01*
X92237500Y-92087500D02*
X88737500Y-92087500D01*
X79212500Y-73037500D02*
X79212500Y-69837500D01*
X79212500Y-69837500D02*
X82712500Y-69837500D01*
X82712500Y-69837500D02*
X82712500Y-73037500D01*
X82712500Y-73037500D02*
X79212500Y-73037500D01*
X74450000Y-53987500D02*
X74450000Y-50787500D01*
X74450000Y-50787500D02*
X77950000Y-50787500D01*
X77950000Y-50787500D02*
X77950000Y-53987500D01*
X77950000Y-53987500D02*
X74450000Y-53987500D01*
X64925000Y-34937500D02*
X64925000Y-31737500D01*
X64925000Y-31737500D02*
X68425000Y-31737500D01*
X68425000Y-31737500D02*
X68425000Y-34937500D01*
X68425000Y-34937500D02*
X64925000Y-34937500D01*
X83975000Y-34937500D02*
X83975000Y-31737500D01*
X83975000Y-31737500D02*
X87475000Y-31737500D01*
X87475000Y-31737500D02*
X87475000Y-34937500D01*
X87475000Y-34937500D02*
X83975000Y-34937500D01*
X93500000Y-53987500D02*
X93500000Y-50787500D01*
X93500000Y-50787500D02*
X97000000Y-50787500D01*
X97000000Y-50787500D02*
X97000000Y-53987500D01*
X97000000Y-53987500D02*
X93500000Y-53987500D01*
X98262000Y-73037500D02*
X98262000Y-69837500D01*
X98262000Y-69837500D02*
X101762000Y-69837500D01*
X101762000Y-69837500D02*
X101762000Y-73037500D01*
X101762000Y-73037500D02*
X98262000Y-73037500D01*
X107788000Y-92087500D02*
X107788000Y-88887500D01*
X107788000Y-88887500D02*
X111288000Y-88887500D01*
X111288000Y-88887500D02*
X111288000Y-92087500D01*
X111288000Y-92087500D02*
X107788000Y-92087500D01*
X126838000Y-92087500D02*
X126838000Y-88887500D01*
X126838000Y-88887500D02*
X130338000Y-88887500D01*
X130338000Y-88887500D02*
X130338000Y-92087500D01*
X130338000Y-92087500D02*
X126838000Y-92087500D01*
X117312000Y-73037500D02*
X117312000Y-69837500D01*
X117312000Y-69837500D02*
X120812000Y-69837500D01*
X120812000Y-69837500D02*
X120812000Y-73037500D01*
X120812000Y-73037500D02*
X117312000Y-73037500D01*
X112550000Y-53987500D02*
X112550000Y-50787500D01*
X112550000Y-50787500D02*
X116050000Y-50787500D01*
X116050000Y-50787500D02*
X116050000Y-53987500D01*
X116050000Y-53987500D02*
X112550000Y-53987500D01*
X103025000Y-34937500D02*
X103025000Y-31737500D01*
X103025000Y-31737500D02*
X106525000Y-31737500D01*
X106525000Y-31737500D02*
X106525000Y-34937500D01*
X106525000Y-34937500D02*
X103025000Y-34937500D01*
X122075000Y-34937500D02*
X122075000Y-31737500D01*
X122075000Y-31737500D02*
X125575000Y-31737500D01*
X125575000Y-31737500D02*
X125575000Y-34937500D01*
X125575000Y-34937500D02*
X122075000Y-34937500D01*
X131600000Y-53987500D02*
X131600000Y-50787500D01*
X131600000Y-50787500D02*
X135100000Y-50787500D01*
X135100000Y-50787500D02*
X135100000Y-53987500D01*
X135100000Y-53987500D02*
X131600000Y-53987500D01*
X136362000Y-73037500D02*
X136362000Y-69837500D01*
X136362000Y-69837500D02*
X139862000Y-69837500D01*
X139862000Y-69837500D02*
X139862000Y-73037500D01*
X139862000Y-73037500D02*
X136362000Y-73037500D01*
X145888000Y-92087500D02*
X145888000Y-88887500D01*
X145888000Y-88887500D02*
X149388000Y-88887500D01*
X149388000Y-88887500D02*
X149388000Y-92087500D01*
X149388000Y-92087500D02*
X145888000Y-92087500D01*
X148269000Y-111138000D02*
X148269000Y-107938000D01*
X148269000Y-107938000D02*
X151769000Y-107938000D01*
X151769000Y-107938000D02*
X151769000Y-111138000D01*
X151769000Y-111138000D02*
X148269000Y-111138000D01*
X164938000Y-92087500D02*
X164938000Y-88887500D01*
X164938000Y-88887500D02*
X168438000Y-88887500D01*
X168438000Y-88887500D02*
X168438000Y-92087500D01*
X168438000Y-92087500D02*
X164938000Y-92087500D01*
X155412000Y-73037500D02*
X155412000Y-69837500D01*
X155412000Y-69837500D02*
X158912000Y-69837500D01*
X158912000Y-69837500D02*
X158912000Y-73037500D01*
X158912000Y-73037500D02*
X155412000Y-73037500D01*
X150650000Y-53987500D02*
X150650000Y-50787500D01*
X150650000Y-50787500D02*
X154150000Y-50787500D01*
X154150000Y-50787500D02*
X154150000Y-53987500D01*
X154150000Y-53987500D02*
X150650000Y-53987500D01*
X141125000Y-34937500D02*
X141125000Y-31737500D01*
X141125000Y-31737500D02*
X144625000Y-31737500D01*
X144625000Y-31737500D02*
X144625000Y-34937500D01*
X144625000Y-34937500D02*
X141125000Y-34937500D01*
X160175000Y-34937500D02*
X160175000Y-31737500D01*
X160175000Y-31737500D02*
X163675000Y-31737500D01*
X163675000Y-31737500D02*
X163675000Y-34937500D01*
X163675000Y-34937500D02*
X160175000Y-34937500D01*
X169700000Y-53987500D02*
X169700000Y-50787500D01*
X169700000Y-50787500D02*
X173200000Y-50787500D01*
X173200000Y-50787500D02*
X173200000Y-53987500D01*
X173200000Y-53987500D02*
X169700000Y-53987500D01*
X174462000Y-73037500D02*
X174462000Y-69837500D01*
X174462000Y-69837500D02*
X177962000Y-69837500D01*
X177962000Y-69837500D02*
X177962000Y-73037500D01*
X177962000Y-73037500D02*
X174462000Y-73037500D01*
X183988000Y-92087500D02*
X183988000Y-88887500D01*
X183988000Y-88887500D02*
X187488000Y-88887500D01*
X187488000Y-88887500D02*
X187488000Y-92087500D01*
X187488000Y-92087500D02*
X183988000Y-92087500D01*
X203038000Y-92087500D02*
X203038000Y-88887500D01*
X203038000Y-88887500D02*
X206538000Y-88887500D01*
X206538000Y-88887500D02*
X206538000Y-92087500D01*
X206538000Y-92087500D02*
X203038000Y-92087500D01*
X193512000Y-73037500D02*
X193512000Y-69837500D01*
X193512000Y-69837500D02*
X197012000Y-69837500D01*
X197012000Y-69837500D02*
X197012000Y-73037500D01*
X197012000Y-73037500D02*
X193512000Y-73037500D01*
X188750000Y-53987500D02*
X188750000Y-50787500D01*
X188750000Y-50787500D02*
X192250000Y-50787500D01*
X192250000Y-50787500D02*
X192250000Y-53987500D01*
X192250000Y-53987500D02*
X188750000Y-53987500D01*
X179225000Y-34937500D02*
X179225000Y-31737500D01*
X179225000Y-31737500D02*
X182725000Y-31737500D01*
X182725000Y-31737500D02*
X182725000Y-34937500D01*
X182725000Y-34937500D02*
X179225000Y-34937500D01*
X198275000Y-34937500D02*
X198275000Y-31737500D01*
X198275000Y-31737500D02*
X201775000Y-31737500D01*
X201775000Y-31737500D02*
X201775000Y-34937500D01*
X201775000Y-34937500D02*
X198275000Y-34937500D01*
X207800000Y-53987500D02*
X207800000Y-50787500D01*
X207800000Y-50787500D02*
X211300000Y-50787500D01*
X211300000Y-50787500D02*
X211300000Y-53987500D01*
X211300000Y-53987500D02*
X207800000Y-53987500D01*
X212562000Y-73037500D02*
X212562000Y-69837500D01*
X212562000Y-69837500D02*
X216062000Y-69837500D01*
X216062000Y-69837500D02*
X216062000Y-73037500D01*
X216062000Y-73037500D02*
X212562000Y-73037500D01*
X222088000Y-92087500D02*
X222088000Y-88887500D01*
X222088000Y-88887500D02*
X225588000Y-88887500D01*
X225588000Y-88887500D02*
X225588000Y-92087500D01*
X225588000Y-92087500D02*
X222088000Y-92087500D01*
X219706000Y-111138000D02*
X219706000Y-107938000D01*
X219706000Y-107938000D02*
X223206000Y-107938000D01*
X223206000Y-107938000D02*
X223206000Y-111138000D01*
X223206000Y-111138000D02*
X219706000Y-111138000D01*
X243519000Y-111138000D02*
X243519000Y-107938000D01*
X243519000Y-107938000D02*
X247019000Y-107938000D01*
X247019000Y-107938000D02*
X247019000Y-111138000D01*
X247019000Y-111138000D02*
X243519000Y-111138000D01*
X241138000Y-92087500D02*
X241138000Y-88887500D01*
X241138000Y-88887500D02*
X244638000Y-88887500D01*
X244638000Y-88887500D02*
X244638000Y-92087500D01*
X244638000Y-92087500D02*
X241138000Y-92087500D01*
X231612000Y-73037500D02*
X231612000Y-69837500D01*
X231612000Y-69837500D02*
X235112000Y-69837500D01*
X235112000Y-69837500D02*
X235112000Y-73037500D01*
X235112000Y-73037500D02*
X231612000Y-73037500D01*
X226850000Y-53987500D02*
X226850000Y-50787500D01*
X226850000Y-50787500D02*
X230350000Y-50787500D01*
X230350000Y-50787500D02*
X230350000Y-53987500D01*
X230350000Y-53987500D02*
X226850000Y-53987500D01*
X217325000Y-34937500D02*
X217325000Y-31737500D01*
X217325000Y-31737500D02*
X220825000Y-31737500D01*
X220825000Y-31737500D02*
X220825000Y-34937500D01*
X220825000Y-34937500D02*
X217325000Y-34937500D01*
X236375000Y-34937500D02*
X236375000Y-31737500D01*
X236375000Y-31737500D02*
X239875000Y-31737500D01*
X239875000Y-31737500D02*
X239875000Y-34937500D01*
X239875000Y-34937500D02*
X236375000Y-34937500D01*
X245900000Y-53987500D02*
X245900000Y-50787500D01*
X245900000Y-50787500D02*
X249400000Y-50787500D01*
X249400000Y-50787500D02*
X249400000Y-53987500D01*
X249400000Y-53987500D02*
X245900000Y-53987500D01*
X250662000Y-73037500D02*
X250662000Y-69837500D01*
X250662000Y-69837500D02*
X254162000Y-69837500D01*
X254162000Y-69837500D02*
X254162000Y-73037500D01*
X254162000Y-73037500D02*
X250662000Y-73037500D01*
X260188000Y-92087500D02*
X260188000Y-88887500D01*
X260188000Y-88887500D02*
X263688000Y-88887500D01*
X263688000Y-88887500D02*
X263688000Y-92087500D01*
X263688000Y-92087500D02*
X260188000Y-92087500D01*
X264950000Y-111138000D02*
X264950000Y-107938000D01*
X264950000Y-107938000D02*
X268450000Y-107938000D01*
X268450000Y-107938000D02*
X268450000Y-111138000D01*
X268450000Y-111138000D02*
X264950000Y-111138000D01*
X284000000Y-111138000D02*
X284000000Y-107938000D01*
X284000000Y-107938000D02*
X287500000Y-107938000D01*
X287500000Y-107938000D02*
X287500000Y-111138000D01*
X287500000Y-111138000D02*
X284000000Y-111138000D01*
X279238000Y-92087500D02*
X279238000Y-88887500D01*
X279238000Y-88887500D02*
X282738000Y-88887500D01*
X282738000Y-88887500D02*
X282738000Y-92087500D01*
X282738000Y-92087500D02*
X279238000Y-92087500D01*
X281619000Y-73037500D02*
X281619000Y-69837500D01*
X281619000Y-69837500D02*
X285119000Y-69837500D01*
X285119000Y-69837500D02*
X285119000Y-73037500D01*
X285119000Y-73037500D02*
X281619000Y-73037500D01*
X264950000Y-53987500D02*
X264950000Y-50787500D01*
X264950000Y-50787500D02*
X268450000Y-50787500D01*
X268450000Y-50787500D02*
X268450000Y-53987500D01*
X268450000Y-53987500D02*
X264950000Y-53987500D01*
X255425000Y-34937500D02*
X255425000Y-31737500D01*
X255425000Y-31737500D02*
X258925000Y-31737500D01*
X258925000Y-31737500D02*
X258925000Y-34937500D01*
X258925000Y-34937500D02*
X255425000Y-34937500D01*
X284000000Y-34937500D02*
X284000000Y-31737500D01*
X284000000Y-31737500D02*
X287500000Y-31737500D01*
X287500000Y-31737500D02*
X287500000Y-34937500D01*
X287500000Y-34937500D02*
X284000000Y-34937500D01*
X288762000Y-53987500D02*
X288762000Y-50787500D01*
X288762000Y-50787500D02*
X292262000Y-50787500D01*
X292262000Y-50787500D02*
X292262000Y-53987500D01*
X292262000Y-53987500D02*
X288762000Y-53987500D01*
X303050000Y-92087500D02*
X303050000Y-88887500D01*
X303050000Y-88887500D02*
X306550000Y-88887500D01*
X306550000Y-88887500D02*
X306550000Y-92087500D01*
X306550000Y-92087500D02*
X303050000Y-92087500D01*
X303050000Y-111138000D02*
X303050000Y-107938000D01*
X303050000Y-107938000D02*
X306550000Y-107938000D01*
X306550000Y-107938000D02*
X306550000Y-111138000D01*
X306550000Y-111138000D02*
X303050000Y-111138000D01*
X322100000Y-111138000D02*
X322100000Y-107938000D01*
X322100000Y-107938000D02*
X325600000Y-107938000D01*
X325600000Y-107938000D02*
X325600000Y-111138000D01*
X325600000Y-111138000D02*
X322100000Y-111138000D01*
X322100000Y-80181200D02*
X322100000Y-76981200D01*
X322100000Y-76981200D02*
X325600000Y-76981200D01*
X325600000Y-76981200D02*
X325600000Y-80181200D01*
X325600000Y-80181200D02*
X322100000Y-80181200D01*
D11*
X206960000Y-57640000D02*
G75*
G03*
X206960000Y-57640000I-2200000J0D01*
G01*
X111780000Y-57660000D02*
G75*
G03*
X111780000Y-57660000I-2200000J0D01*
G01*
X116490000Y-19780000D02*
G75*
G03*
X116490000Y-19780000I-2200000J0D01*
G01*
X230790000Y-19920000D02*
G75*
G03*
X230790000Y-19920000I-2200000J0D01*
G01*
X307000000Y-20910000D02*
G75*
G03*
X307000000Y-20910000I-2200000J0D01*
G01*
X336880000Y-67220000D02*
G75*
G03*
X336880000Y-67220000I-2200000J0D01*
G01*
X336540000Y-112810000D02*
G75*
G03*
X336540000Y-112810000I-2200000J0D01*
G01*
X210650000Y-111919000D02*
G75*
G03*
X210650000Y-111919000I-2200000J0D01*
G01*
X108256000Y-111919000D02*
G75*
G03*
X108256000Y-111919000I-2200000J0D01*
G01*
X19760000Y-112600000D02*
G75*
G03*
X19760000Y-112600000I-2200000J0D01*
G01*
X20270000Y-67770000D02*
G75*
G03*
X20270000Y-67770000I-2200000J0D01*
G01*
X19810000Y-20690000D02*
G75*
G03*
X19810000Y-20690000I-2200000J0D01*
G01*
M02*
