G04 #@! TF.GenerationSoftware,KiCad,Pcbnew,(5.1.12)-1*
G04 #@! TF.CreationDate,2023-09-29T20:02:25+09:00*
G04 #@! TF.ProjectId,JTNK66L,4a544e4b-3636-44c2-9e6b-696361645f70,rev?*
G04 #@! TF.SameCoordinates,Original*
G04 #@! TF.FileFunction,Soldermask,Top*
G04 #@! TF.FilePolarity,Negative*
%FSLAX46Y46*%
G04 Gerber Fmt 4.6, Leading zero omitted, Abs format (unit mm)*
G04 Created by KiCad (PCBNEW (5.1.12)-1) date 2023-09-29 20:02:25*
%MOMM*%
%LPD*%
G01*
G04 APERTURE LIST*
%ADD10O,1.650000X2.300000*%
%ADD11O,2.300000X1.650000*%
%ADD12C,5.200000*%
%ADD13C,2.000000*%
%ADD14R,3.200000X2.500000*%
%ADD15C,1.524000*%
%ADD16C,1.397000*%
%ADD17O,1.500000X1.500000*%
G04 APERTURE END LIST*
D10*
X328250000Y-100075000D03*
D11*
X321250000Y-99025000D03*
D12*
X323850000Y-104775000D03*
D13*
X330850000Y-71556200D03*
X330850000Y-66556200D03*
D14*
X323850000Y-74656200D03*
X323850000Y-63456200D03*
D13*
X316350000Y-71556200D03*
X316350000Y-69056200D03*
X316350000Y-66556200D03*
D15*
X313905400Y-18700800D03*
X329125400Y-18700800D03*
X329125400Y-21240800D03*
X329125400Y-23780800D03*
X329125400Y-26320800D03*
X329125400Y-28860800D03*
X329125400Y-31400800D03*
X329125400Y-33940800D03*
X329125400Y-36480800D03*
X329125400Y-39020800D03*
X329125400Y-41560800D03*
X329125400Y-44100800D03*
X329125400Y-46640800D03*
X329125400Y-49180800D03*
X313905400Y-49180800D03*
X313905400Y-46640800D03*
X313905400Y-44100800D03*
X313905400Y-41560800D03*
X313905400Y-39020800D03*
X313905400Y-36480800D03*
X313905400Y-33940800D03*
X313905400Y-31400800D03*
X313905400Y-28860800D03*
X313905400Y-26320800D03*
X313905400Y-23780800D03*
X313905400Y-21240800D03*
D13*
X333375000Y-48493800D03*
X333375000Y-41993800D03*
D10*
X309200000Y-100075000D03*
D11*
X302200000Y-99025000D03*
D12*
X304800000Y-104775000D03*
D10*
X309200000Y-81025000D03*
D11*
X302200000Y-79975000D03*
D12*
X304800000Y-85725000D03*
D10*
X294912000Y-42925000D03*
D11*
X287912000Y-41875000D03*
D12*
X290512000Y-47625000D03*
D10*
X290150000Y-23875000D03*
D11*
X283150000Y-22825000D03*
D12*
X285750000Y-28575000D03*
D10*
X290150000Y-100075000D03*
D11*
X283150000Y-99025000D03*
D12*
X285750000Y-104775000D03*
D10*
X285388000Y-81025000D03*
D11*
X278388000Y-79975000D03*
D12*
X280988000Y-85725000D03*
D10*
X287769000Y-61975000D03*
D11*
X280769000Y-60925000D03*
D12*
X283369000Y-66675000D03*
D10*
X271100000Y-42925000D03*
D11*
X264100000Y-41875000D03*
D12*
X266700000Y-47625000D03*
D10*
X261575000Y-23875000D03*
D11*
X254575000Y-22825000D03*
D12*
X257175000Y-28575000D03*
D10*
X271100000Y-100075000D03*
D11*
X264100000Y-99025000D03*
D12*
X266700000Y-104775000D03*
D10*
X266338000Y-81025000D03*
D11*
X259338000Y-79975000D03*
D12*
X261938000Y-85725000D03*
D10*
X256812000Y-61975000D03*
D11*
X249812000Y-60925000D03*
D12*
X252412000Y-66675000D03*
D10*
X252050000Y-42925000D03*
D11*
X245050000Y-41875000D03*
D12*
X247650000Y-47625000D03*
D10*
X242525000Y-23875000D03*
D11*
X235525000Y-22825000D03*
D12*
X238125000Y-28575000D03*
D10*
X249669000Y-100075000D03*
D11*
X242669000Y-99025000D03*
D12*
X245269000Y-104775000D03*
D10*
X247288000Y-81025000D03*
D11*
X240288000Y-79975000D03*
D12*
X242888000Y-85725000D03*
D10*
X237762000Y-61975000D03*
D11*
X230762000Y-60925000D03*
D12*
X233362000Y-66675000D03*
D10*
X233000000Y-42925000D03*
D11*
X226000000Y-41875000D03*
D12*
X228600000Y-47625000D03*
D10*
X223475000Y-23875000D03*
D11*
X216475000Y-22825000D03*
D12*
X219075000Y-28575000D03*
D10*
X225856000Y-100075000D03*
D11*
X218856000Y-99025000D03*
D12*
X221456000Y-104775000D03*
D10*
X228238000Y-81025000D03*
D11*
X221238000Y-79975000D03*
D12*
X223838000Y-85725000D03*
D10*
X218712000Y-61975000D03*
D11*
X211712000Y-60925000D03*
D12*
X214312000Y-66675000D03*
D10*
X213950000Y-42925000D03*
D11*
X206950000Y-41875000D03*
D12*
X209550000Y-47625000D03*
D10*
X204425000Y-23875000D03*
D11*
X197425000Y-22825000D03*
D12*
X200025000Y-28575000D03*
D10*
X209188000Y-81025000D03*
D11*
X202188000Y-79975000D03*
D12*
X204788000Y-85725000D03*
D10*
X199662000Y-61975000D03*
D11*
X192662000Y-60925000D03*
D12*
X195262000Y-66675000D03*
D10*
X194900000Y-42925000D03*
D11*
X187900000Y-41875000D03*
D12*
X190500000Y-47625000D03*
D10*
X185375000Y-23875000D03*
D11*
X178375000Y-22825000D03*
D12*
X180975000Y-28575000D03*
D10*
X190138000Y-81025000D03*
D11*
X183138000Y-79975000D03*
D12*
X185738000Y-85725000D03*
D10*
X180612000Y-61975000D03*
D11*
X173612000Y-60925000D03*
D12*
X176212000Y-66675000D03*
D10*
X175850000Y-42925000D03*
D11*
X168850000Y-41875000D03*
D12*
X171450000Y-47625000D03*
D10*
X166325000Y-23875000D03*
D11*
X159325000Y-22825000D03*
D12*
X161925000Y-28575000D03*
D10*
X171088000Y-81025000D03*
D11*
X164088000Y-79975000D03*
D12*
X166688000Y-85725000D03*
D10*
X161562000Y-61975000D03*
D11*
X154562000Y-60925000D03*
D12*
X157162000Y-66675000D03*
D10*
X156800000Y-42925000D03*
D11*
X149800000Y-41875000D03*
D12*
X152400000Y-47625000D03*
D10*
X147275000Y-23875000D03*
D11*
X140275000Y-22825000D03*
D12*
X142875000Y-28575000D03*
D10*
X152038000Y-81025000D03*
D11*
X145038000Y-79975000D03*
D12*
X147638000Y-85725000D03*
D10*
X142512000Y-61975000D03*
D11*
X135512000Y-60925000D03*
D12*
X138112000Y-66675000D03*
D10*
X137750000Y-42925000D03*
D11*
X130750000Y-41875000D03*
D12*
X133350000Y-47625000D03*
D10*
X128225000Y-23875000D03*
D11*
X121225000Y-22825000D03*
D12*
X123825000Y-28575000D03*
D10*
X132988000Y-81025000D03*
D11*
X125988000Y-79975000D03*
D12*
X128588000Y-85725000D03*
D10*
X123462000Y-61975000D03*
D11*
X116462000Y-60925000D03*
D12*
X119062000Y-66675000D03*
D10*
X118700000Y-42925000D03*
D11*
X111700000Y-41875000D03*
D12*
X114300000Y-47625000D03*
D10*
X109175000Y-23875000D03*
D11*
X102175000Y-22825000D03*
D12*
X104775000Y-28575000D03*
D10*
X154419000Y-100075000D03*
D11*
X147419000Y-99025000D03*
D12*
X150019000Y-104775000D03*
D10*
X113938000Y-81025000D03*
D11*
X106938000Y-79975000D03*
D12*
X109538000Y-85725000D03*
D10*
X104412000Y-61975000D03*
D11*
X97412000Y-60925000D03*
D12*
X100012000Y-66675000D03*
D10*
X99650000Y-42925000D03*
D11*
X92650000Y-41875000D03*
D12*
X95250000Y-47625000D03*
D10*
X90125000Y-23875000D03*
D11*
X83125000Y-22825000D03*
D12*
X85725000Y-28575000D03*
D10*
X82981200Y-100075000D03*
D11*
X75981200Y-99025000D03*
D12*
X78581200Y-104775000D03*
D10*
X94887500Y-81025000D03*
D11*
X87887500Y-79975000D03*
D12*
X90487500Y-85725000D03*
D10*
X85362500Y-61975000D03*
D11*
X78362500Y-60925000D03*
D12*
X80962500Y-66675000D03*
D10*
X80600000Y-42925000D03*
D11*
X73600000Y-41875000D03*
D12*
X76200000Y-47625000D03*
D10*
X71075000Y-23875000D03*
D11*
X64075000Y-22825000D03*
D12*
X66675000Y-28575000D03*
D10*
X59168800Y-100075000D03*
D11*
X52168800Y-99025000D03*
D12*
X54768800Y-104775000D03*
D10*
X75837500Y-81025000D03*
D11*
X68837500Y-79975000D03*
D12*
X71437500Y-85725000D03*
D10*
X66312500Y-61975000D03*
D11*
X59312500Y-60925000D03*
D12*
X61912500Y-66675000D03*
D10*
X61550000Y-42925000D03*
D11*
X54550000Y-41875000D03*
D12*
X57150000Y-47625000D03*
D10*
X52025000Y-23875000D03*
D11*
X45025000Y-22825000D03*
D12*
X47625000Y-28575000D03*
D10*
X35356200Y-100075000D03*
D11*
X28356200Y-99025000D03*
D12*
X30956200Y-104775000D03*
D10*
X44881200Y-81025000D03*
D11*
X37881200Y-79975000D03*
D12*
X40481200Y-85725000D03*
D10*
X40118800Y-61975000D03*
D11*
X33118800Y-60925000D03*
D12*
X35718800Y-66675000D03*
D10*
X37737500Y-42925000D03*
D11*
X30737500Y-41875000D03*
D12*
X33337500Y-47625000D03*
D10*
X32975000Y-23875000D03*
D11*
X25975000Y-22825000D03*
D12*
X28575000Y-28575000D03*
D16*
X325730000Y-54950000D03*
X323190000Y-54950000D03*
X320650000Y-54950000D03*
X318110000Y-54950000D03*
D17*
X321350000Y-83393800D03*
X323850000Y-83393800D03*
X326350000Y-83393800D03*
M02*
