M48
; DRILL file {KiCad (5.1.12)-1} date 09/29/23 20:02:53
; FORMAT={-:-/ absolute / metric / decimal}
; #@! TF.CreationDate,2023-09-29T20:02:53+09:00
; #@! TF.GenerationSoftware,Kicad,Pcbnew,(5.1.12)-1
; #@! TF.FileFunction,NonPlated,1,2,NPTH
FMAT,2
METRIC
T1C5.200
%
G90
G05
T1
X28.575Y-28.575
X30.956Y-104.775
X33.337Y-47.625
X35.719Y-66.675
X40.481Y-85.725
X47.625Y-28.575
X54.769Y-104.775
X57.15Y-47.625
X61.912Y-66.675
X66.675Y-28.575
X71.438Y-85.725
X76.2Y-47.625
X78.581Y-104.775
X80.962Y-66.675
X85.725Y-28.575
X90.487Y-85.725
X95.25Y-47.625
X100.012Y-66.675
X104.775Y-28.575
X109.538Y-85.725
X114.3Y-47.625
X119.062Y-66.675
X123.825Y-28.575
X128.588Y-85.725
X133.35Y-47.625
X138.112Y-66.675
X142.875Y-28.575
X147.638Y-85.725
X150.019Y-104.775
X152.4Y-47.625
X157.162Y-66.675
X161.925Y-28.575
X166.688Y-85.725
X171.45Y-47.625
X176.212Y-66.675
X180.975Y-28.575
X185.738Y-85.725
X190.5Y-47.625
X195.262Y-66.675
X200.025Y-28.575
X204.788Y-85.725
X209.55Y-47.625
X214.312Y-66.675
X219.075Y-28.575
X221.456Y-104.775
X223.838Y-85.725
X228.6Y-47.625
X233.362Y-66.675
X238.125Y-28.575
X242.888Y-85.725
X245.269Y-104.775
X247.65Y-47.625
X252.412Y-66.675
X257.175Y-28.575
X261.938Y-85.725
X266.7Y-47.625
X266.7Y-104.775
X280.988Y-85.725
X283.369Y-66.675
X285.75Y-28.575
X285.75Y-104.775
X290.512Y-47.625
X304.8Y-85.725
X304.8Y-104.775
X323.85Y-104.775
T0
M30
