G04 #@! TF.GenerationSoftware,KiCad,Pcbnew,(5.1.12)-1*
G04 #@! TF.CreationDate,2023-09-29T20:02:25+09:00*
G04 #@! TF.ProjectId,JTNK66L,4a544e4b-3636-44c2-9e6b-696361645f70,rev?*
G04 #@! TF.SameCoordinates,Original*
G04 #@! TF.FileFunction,Soldermask,Bot*
G04 #@! TF.FilePolarity,Negative*
%FSLAX46Y46*%
G04 Gerber Fmt 4.6, Leading zero omitted, Abs format (unit mm)*
G04 Created by KiCad (PCBNEW (5.1.12)-1) date 2023-09-29 20:02:25*
%MOMM*%
%LPD*%
G01*
G04 APERTURE LIST*
%ADD10O,1.650000X2.300000*%
%ADD11O,2.300000X1.650000*%
%ADD12C,5.200000*%
%ADD13C,2.000000*%
%ADD14R,3.200000X2.500000*%
%ADD15C,1.524000*%
%ADD16C,1.397000*%
%ADD17R,2.200000X0.820000*%
%ADD18O,1.500000X1.500000*%
%ADD19R,0.950000X1.300000*%
G04 APERTURE END LIST*
D10*
X328250000Y-100075000D03*
D11*
X321250000Y-99025000D03*
D12*
X323850000Y-104775000D03*
D13*
X330850000Y-71556200D03*
X330850000Y-66556200D03*
D14*
X323850000Y-74656200D03*
X323850000Y-63456200D03*
D13*
X316350000Y-71556200D03*
X316350000Y-69056200D03*
X316350000Y-66556200D03*
D15*
X313905400Y-18700800D03*
X329125400Y-18700800D03*
X329125400Y-21240800D03*
X329125400Y-23780800D03*
X329125400Y-26320800D03*
X329125400Y-28860800D03*
X329125400Y-31400800D03*
X329125400Y-33940800D03*
X329125400Y-36480800D03*
X329125400Y-39020800D03*
X329125400Y-41560800D03*
X329125400Y-44100800D03*
X329125400Y-46640800D03*
X329125400Y-49180800D03*
X313905400Y-49180800D03*
X313905400Y-46640800D03*
X313905400Y-44100800D03*
X313905400Y-41560800D03*
X313905400Y-39020800D03*
X313905400Y-36480800D03*
X313905400Y-33940800D03*
X313905400Y-31400800D03*
X313905400Y-28860800D03*
X313905400Y-26320800D03*
X313905400Y-23780800D03*
X313905400Y-21240800D03*
D13*
X333375000Y-48493800D03*
X333375000Y-41993800D03*
D10*
X309200000Y-100075000D03*
D11*
X302200000Y-99025000D03*
D12*
X304800000Y-104775000D03*
D10*
X309200000Y-81025000D03*
D11*
X302200000Y-79975000D03*
D12*
X304800000Y-85725000D03*
D10*
X294912000Y-42925000D03*
D11*
X287912000Y-41875000D03*
D12*
X290512000Y-47625000D03*
D10*
X290150000Y-23875000D03*
D11*
X283150000Y-22825000D03*
D12*
X285750000Y-28575000D03*
D10*
X290150000Y-100075000D03*
D11*
X283150000Y-99025000D03*
D12*
X285750000Y-104775000D03*
D10*
X285388000Y-81025000D03*
D11*
X278388000Y-79975000D03*
D12*
X280988000Y-85725000D03*
D10*
X287769000Y-61975000D03*
D11*
X280769000Y-60925000D03*
D12*
X283369000Y-66675000D03*
D10*
X271100000Y-42925000D03*
D11*
X264100000Y-41875000D03*
D12*
X266700000Y-47625000D03*
D10*
X261575000Y-23875000D03*
D11*
X254575000Y-22825000D03*
D12*
X257175000Y-28575000D03*
D10*
X271100000Y-100075000D03*
D11*
X264100000Y-99025000D03*
D12*
X266700000Y-104775000D03*
D10*
X266338000Y-81025000D03*
D11*
X259338000Y-79975000D03*
D12*
X261938000Y-85725000D03*
D10*
X256812000Y-61975000D03*
D11*
X249812000Y-60925000D03*
D12*
X252412000Y-66675000D03*
D10*
X252050000Y-42925000D03*
D11*
X245050000Y-41875000D03*
D12*
X247650000Y-47625000D03*
D10*
X242525000Y-23875000D03*
D11*
X235525000Y-22825000D03*
D12*
X238125000Y-28575000D03*
D10*
X249669000Y-100075000D03*
D11*
X242669000Y-99025000D03*
D12*
X245269000Y-104775000D03*
D10*
X247288000Y-81025000D03*
D11*
X240288000Y-79975000D03*
D12*
X242888000Y-85725000D03*
D10*
X237762000Y-61975000D03*
D11*
X230762000Y-60925000D03*
D12*
X233362000Y-66675000D03*
D10*
X233000000Y-42925000D03*
D11*
X226000000Y-41875000D03*
D12*
X228600000Y-47625000D03*
D10*
X223475000Y-23875000D03*
D11*
X216475000Y-22825000D03*
D12*
X219075000Y-28575000D03*
D10*
X225856000Y-100075000D03*
D11*
X218856000Y-99025000D03*
D12*
X221456000Y-104775000D03*
D10*
X228238000Y-81025000D03*
D11*
X221238000Y-79975000D03*
D12*
X223838000Y-85725000D03*
D10*
X218712000Y-61975000D03*
D11*
X211712000Y-60925000D03*
D12*
X214312000Y-66675000D03*
D10*
X213950000Y-42925000D03*
D11*
X206950000Y-41875000D03*
D12*
X209550000Y-47625000D03*
D10*
X204425000Y-23875000D03*
D11*
X197425000Y-22825000D03*
D12*
X200025000Y-28575000D03*
D10*
X209188000Y-81025000D03*
D11*
X202188000Y-79975000D03*
D12*
X204788000Y-85725000D03*
D10*
X199662000Y-61975000D03*
D11*
X192662000Y-60925000D03*
D12*
X195262000Y-66675000D03*
D10*
X194900000Y-42925000D03*
D11*
X187900000Y-41875000D03*
D12*
X190500000Y-47625000D03*
D10*
X185375000Y-23875000D03*
D11*
X178375000Y-22825000D03*
D12*
X180975000Y-28575000D03*
D10*
X190138000Y-81025000D03*
D11*
X183138000Y-79975000D03*
D12*
X185738000Y-85725000D03*
D10*
X180612000Y-61975000D03*
D11*
X173612000Y-60925000D03*
D12*
X176212000Y-66675000D03*
D10*
X175850000Y-42925000D03*
D11*
X168850000Y-41875000D03*
D12*
X171450000Y-47625000D03*
D10*
X166325000Y-23875000D03*
D11*
X159325000Y-22825000D03*
D12*
X161925000Y-28575000D03*
D10*
X171088000Y-81025000D03*
D11*
X164088000Y-79975000D03*
D12*
X166688000Y-85725000D03*
D10*
X161562000Y-61975000D03*
D11*
X154562000Y-60925000D03*
D12*
X157162000Y-66675000D03*
D10*
X156800000Y-42925000D03*
D11*
X149800000Y-41875000D03*
D12*
X152400000Y-47625000D03*
D10*
X147275000Y-23875000D03*
D11*
X140275000Y-22825000D03*
D12*
X142875000Y-28575000D03*
D10*
X152038000Y-81025000D03*
D11*
X145038000Y-79975000D03*
D12*
X147638000Y-85725000D03*
D10*
X142512000Y-61975000D03*
D11*
X135512000Y-60925000D03*
D12*
X138112000Y-66675000D03*
D10*
X137750000Y-42925000D03*
D11*
X130750000Y-41875000D03*
D12*
X133350000Y-47625000D03*
D10*
X128225000Y-23875000D03*
D11*
X121225000Y-22825000D03*
D12*
X123825000Y-28575000D03*
D10*
X132988000Y-81025000D03*
D11*
X125988000Y-79975000D03*
D12*
X128588000Y-85725000D03*
D10*
X123462000Y-61975000D03*
D11*
X116462000Y-60925000D03*
D12*
X119062000Y-66675000D03*
D10*
X118700000Y-42925000D03*
D11*
X111700000Y-41875000D03*
D12*
X114300000Y-47625000D03*
D10*
X109175000Y-23875000D03*
D11*
X102175000Y-22825000D03*
D12*
X104775000Y-28575000D03*
D10*
X154419000Y-100075000D03*
D11*
X147419000Y-99025000D03*
D12*
X150019000Y-104775000D03*
D10*
X113938000Y-81025000D03*
D11*
X106938000Y-79975000D03*
D12*
X109538000Y-85725000D03*
D10*
X104412000Y-61975000D03*
D11*
X97412000Y-60925000D03*
D12*
X100012000Y-66675000D03*
D10*
X99650000Y-42925000D03*
D11*
X92650000Y-41875000D03*
D12*
X95250000Y-47625000D03*
D10*
X90125000Y-23875000D03*
D11*
X83125000Y-22825000D03*
D12*
X85725000Y-28575000D03*
D10*
X82981200Y-100075000D03*
D11*
X75981200Y-99025000D03*
D12*
X78581200Y-104775000D03*
D10*
X94887500Y-81025000D03*
D11*
X87887500Y-79975000D03*
D12*
X90487500Y-85725000D03*
D10*
X85362500Y-61975000D03*
D11*
X78362500Y-60925000D03*
D12*
X80962500Y-66675000D03*
D10*
X80600000Y-42925000D03*
D11*
X73600000Y-41875000D03*
D12*
X76200000Y-47625000D03*
D10*
X71075000Y-23875000D03*
D11*
X64075000Y-22825000D03*
D12*
X66675000Y-28575000D03*
D10*
X59168800Y-100075000D03*
D11*
X52168800Y-99025000D03*
D12*
X54768800Y-104775000D03*
D10*
X75837500Y-81025000D03*
D11*
X68837500Y-79975000D03*
D12*
X71437500Y-85725000D03*
D10*
X66312500Y-61975000D03*
D11*
X59312500Y-60925000D03*
D12*
X61912500Y-66675000D03*
D10*
X61550000Y-42925000D03*
D11*
X54550000Y-41875000D03*
D12*
X57150000Y-47625000D03*
D10*
X52025000Y-23875000D03*
D11*
X45025000Y-22825000D03*
D12*
X47625000Y-28575000D03*
D10*
X35356200Y-100075000D03*
D11*
X28356200Y-99025000D03*
D12*
X30956200Y-104775000D03*
D10*
X44881200Y-81025000D03*
D11*
X37881200Y-79975000D03*
D12*
X40481200Y-85725000D03*
D10*
X40118800Y-61975000D03*
D11*
X33118800Y-60925000D03*
D12*
X35718800Y-66675000D03*
D10*
X37737500Y-42925000D03*
D11*
X30737500Y-41875000D03*
D12*
X33337500Y-47625000D03*
D10*
X32975000Y-23875000D03*
D11*
X25975000Y-22825000D03*
D12*
X28575000Y-28575000D03*
D16*
X325730000Y-54950000D03*
X323190000Y-54950000D03*
X320650000Y-54950000D03*
X318110000Y-54950000D03*
D17*
X28006200Y-110288000D03*
X28006200Y-108788000D03*
X33906200Y-108788000D03*
X33906200Y-110288000D03*
X51818800Y-110288000D03*
X51818800Y-108788000D03*
X57718800Y-108788000D03*
X57718800Y-110288000D03*
X37531200Y-91237500D03*
X37531200Y-89737500D03*
X43431200Y-89737500D03*
X43431200Y-91237500D03*
X32768800Y-72187500D03*
X32768800Y-70687500D03*
X38668800Y-70687500D03*
X38668800Y-72187500D03*
X30387500Y-53137500D03*
X30387500Y-51637500D03*
X36287500Y-51637500D03*
X36287500Y-53137500D03*
X25625000Y-34087500D03*
X25625000Y-32587500D03*
X31525000Y-32587500D03*
X31525000Y-34087500D03*
X44675000Y-34087500D03*
X44675000Y-32587500D03*
X50575000Y-32587500D03*
X50575000Y-34087500D03*
X54200000Y-53137500D03*
X54200000Y-51637500D03*
X60100000Y-51637500D03*
X60100000Y-53137500D03*
X58962500Y-72187500D03*
X58962500Y-70687500D03*
X64862500Y-70687500D03*
X64862500Y-72187500D03*
X68487500Y-91237500D03*
X68487500Y-89737500D03*
X74387500Y-89737500D03*
X74387500Y-91237500D03*
X75631200Y-110288000D03*
X75631200Y-108788000D03*
X81531200Y-108788000D03*
X81531200Y-110288000D03*
X87537500Y-91237500D03*
X87537500Y-89737500D03*
X93437500Y-89737500D03*
X93437500Y-91237500D03*
X78012500Y-72187500D03*
X78012500Y-70687500D03*
X83912500Y-70687500D03*
X83912500Y-72187500D03*
X73250000Y-53137500D03*
X73250000Y-51637500D03*
X79150000Y-51637500D03*
X79150000Y-53137500D03*
X63725000Y-34087500D03*
X63725000Y-32587500D03*
X69625000Y-32587500D03*
X69625000Y-34087500D03*
X82775000Y-34087500D03*
X82775000Y-32587500D03*
X88675000Y-32587500D03*
X88675000Y-34087500D03*
X92300000Y-53137500D03*
X92300000Y-51637500D03*
X98200000Y-51637500D03*
X98200000Y-53137500D03*
X97062000Y-72187500D03*
X97062000Y-70687500D03*
X102962000Y-70687500D03*
X102962000Y-72187500D03*
X106588000Y-91237500D03*
X106588000Y-89737500D03*
X112488000Y-89737500D03*
X112488000Y-91237500D03*
X125638000Y-91237500D03*
X125638000Y-89737500D03*
X131538000Y-89737500D03*
X131538000Y-91237500D03*
X116112000Y-72187500D03*
X116112000Y-70687500D03*
X122012000Y-70687500D03*
X122012000Y-72187500D03*
X111350000Y-53137500D03*
X111350000Y-51637500D03*
X117250000Y-51637500D03*
X117250000Y-53137500D03*
X101825000Y-34087500D03*
X101825000Y-32587500D03*
X107725000Y-32587500D03*
X107725000Y-34087500D03*
X120875000Y-34087500D03*
X120875000Y-32587500D03*
X126775000Y-32587500D03*
X126775000Y-34087500D03*
X130400000Y-53137500D03*
X130400000Y-51637500D03*
X136300000Y-51637500D03*
X136300000Y-53137500D03*
X135162000Y-72187500D03*
X135162000Y-70687500D03*
X141062000Y-70687500D03*
X141062000Y-72187500D03*
X144688000Y-91237500D03*
X144688000Y-89737500D03*
X150588000Y-89737500D03*
X150588000Y-91237500D03*
X147069000Y-110288000D03*
X147069000Y-108788000D03*
X152969000Y-108788000D03*
X152969000Y-110288000D03*
X163738000Y-91237500D03*
X163738000Y-89737500D03*
X169638000Y-89737500D03*
X169638000Y-91237500D03*
X154212000Y-72187500D03*
X154212000Y-70687500D03*
X160112000Y-70687500D03*
X160112000Y-72187500D03*
X149450000Y-53137500D03*
X149450000Y-51637500D03*
X155350000Y-51637500D03*
X155350000Y-53137500D03*
X139925000Y-34087500D03*
X139925000Y-32587500D03*
X145825000Y-32587500D03*
X145825000Y-34087500D03*
X158975000Y-34087500D03*
X158975000Y-32587500D03*
X164875000Y-32587500D03*
X164875000Y-34087500D03*
X168500000Y-53137500D03*
X168500000Y-51637500D03*
X174400000Y-51637500D03*
X174400000Y-53137500D03*
X173262000Y-72187500D03*
X173262000Y-70687500D03*
X179162000Y-70687500D03*
X179162000Y-72187500D03*
X182788000Y-91237500D03*
X182788000Y-89737500D03*
X188688000Y-89737500D03*
X188688000Y-91237500D03*
X201838000Y-91237500D03*
X201838000Y-89737500D03*
X207738000Y-89737500D03*
X207738000Y-91237500D03*
X192312000Y-72187500D03*
X192312000Y-70687500D03*
X198212000Y-70687500D03*
X198212000Y-72187500D03*
X187550000Y-53137500D03*
X187550000Y-51637500D03*
X193450000Y-51637500D03*
X193450000Y-53137500D03*
X178025000Y-34087500D03*
X178025000Y-32587500D03*
X183925000Y-32587500D03*
X183925000Y-34087500D03*
X197075000Y-34087500D03*
X197075000Y-32587500D03*
X202975000Y-32587500D03*
X202975000Y-34087500D03*
X206600000Y-53137500D03*
X206600000Y-51637500D03*
X212500000Y-51637500D03*
X212500000Y-53137500D03*
X211362000Y-72187500D03*
X211362000Y-70687500D03*
X217262000Y-70687500D03*
X217262000Y-72187500D03*
X220888000Y-91237500D03*
X220888000Y-89737500D03*
X226788000Y-89737500D03*
X226788000Y-91237500D03*
X218506000Y-110288000D03*
X218506000Y-108788000D03*
X224406000Y-108788000D03*
X224406000Y-110288000D03*
X242319000Y-110288000D03*
X242319000Y-108788000D03*
X248219000Y-108788000D03*
X248219000Y-110288000D03*
X239938000Y-91237500D03*
X239938000Y-89737500D03*
X245838000Y-89737500D03*
X245838000Y-91237500D03*
X230412000Y-72187500D03*
X230412000Y-70687500D03*
X236312000Y-70687500D03*
X236312000Y-72187500D03*
X225650000Y-53137500D03*
X225650000Y-51637500D03*
X231550000Y-51637500D03*
X231550000Y-53137500D03*
X216125000Y-34087500D03*
X216125000Y-32587500D03*
X222025000Y-32587500D03*
X222025000Y-34087500D03*
X235175000Y-34087500D03*
X235175000Y-32587500D03*
X241075000Y-32587500D03*
X241075000Y-34087500D03*
X244700000Y-53137500D03*
X244700000Y-51637500D03*
X250600000Y-51637500D03*
X250600000Y-53137500D03*
X249462000Y-72187500D03*
X249462000Y-70687500D03*
X255362000Y-70687500D03*
X255362000Y-72187500D03*
X258988000Y-91237500D03*
X258988000Y-89737500D03*
X264888000Y-89737500D03*
X264888000Y-91237500D03*
X263750000Y-110288000D03*
X263750000Y-108788000D03*
X269650000Y-108788000D03*
X269650000Y-110288000D03*
X282800000Y-110288000D03*
X282800000Y-108788000D03*
X288700000Y-108788000D03*
X288700000Y-110288000D03*
X278038000Y-91237500D03*
X278038000Y-89737500D03*
X283938000Y-89737500D03*
X283938000Y-91237500D03*
X280419000Y-72187500D03*
X280419000Y-70687500D03*
X286319000Y-70687500D03*
X286319000Y-72187500D03*
X263750000Y-53137500D03*
X263750000Y-51637500D03*
X269650000Y-51637500D03*
X269650000Y-53137500D03*
X254225000Y-34087500D03*
X254225000Y-32587500D03*
X260125000Y-32587500D03*
X260125000Y-34087500D03*
X282800000Y-34087500D03*
X282800000Y-32587500D03*
X288700000Y-32587500D03*
X288700000Y-34087500D03*
X287562000Y-53137500D03*
X287562000Y-51637500D03*
X293462000Y-51637500D03*
X293462000Y-53137500D03*
X301850000Y-91237500D03*
X301850000Y-89737500D03*
X307750000Y-89737500D03*
X307750000Y-91237500D03*
X301850000Y-110288000D03*
X301850000Y-108788000D03*
X307750000Y-108788000D03*
X307750000Y-110288000D03*
X320900000Y-110288000D03*
X320900000Y-108788000D03*
X326800000Y-108788000D03*
X326800000Y-110288000D03*
X320900000Y-79331200D03*
X320900000Y-77831200D03*
X326800000Y-77831200D03*
X326800000Y-79331200D03*
D18*
X321350000Y-83393800D03*
X323850000Y-83393800D03*
X326350000Y-83393800D03*
D19*
X314325000Y-103000000D03*
X314325000Y-106550000D03*
X330994000Y-79187500D03*
X330994000Y-82737500D03*
X295275000Y-103000000D03*
X295275000Y-106550000D03*
X295275000Y-83950000D03*
X295275000Y-87500000D03*
X280988000Y-45850000D03*
X280988000Y-49400000D03*
X276225000Y-33943800D03*
X276225000Y-37493800D03*
X276225000Y-103000000D03*
X276225000Y-106550000D03*
X271462000Y-83950000D03*
X271462000Y-87500000D03*
X273844000Y-72043800D03*
X273844000Y-75593800D03*
X257175000Y-45850000D03*
X257175000Y-49400000D03*
X247650000Y-26800000D03*
X247650000Y-30350000D03*
X257175000Y-103000000D03*
X257175000Y-106550000D03*
X252412000Y-83343800D03*
X252412000Y-86893800D03*
X242888000Y-64900000D03*
X242888000Y-68450000D03*
X238125000Y-45850000D03*
X238125000Y-49400000D03*
X228600000Y-26800000D03*
X228600000Y-30350000D03*
X235744000Y-103000000D03*
X235744000Y-106550000D03*
X233362000Y-83950000D03*
X233362000Y-87500000D03*
X223838000Y-64900000D03*
X223838000Y-68450000D03*
X219075000Y-45850000D03*
X219075000Y-49400000D03*
X209550000Y-26800000D03*
X209550000Y-30350000D03*
X211931000Y-103000000D03*
X211931000Y-106550000D03*
X214312000Y-83950000D03*
X214312000Y-87500000D03*
X204788000Y-64900000D03*
X204788000Y-68450000D03*
X200025000Y-45850000D03*
X200025000Y-49400000D03*
X190500000Y-26800000D03*
X190500000Y-30350000D03*
X195262000Y-83950000D03*
X195262000Y-87500000D03*
X185738000Y-64900000D03*
X185738000Y-68450000D03*
X180975000Y-45850000D03*
X180975000Y-49400000D03*
X171450000Y-26800000D03*
X171450000Y-30350000D03*
X176212000Y-83950000D03*
X176212000Y-87500000D03*
X166688000Y-64900000D03*
X166688000Y-68450000D03*
X161925000Y-45850000D03*
X161925000Y-49400000D03*
X152400000Y-26800000D03*
X152400000Y-30350000D03*
X157162000Y-83950000D03*
X157162000Y-87500000D03*
X147638000Y-64900000D03*
X147638000Y-68450000D03*
X142875000Y-45850000D03*
X142875000Y-49400000D03*
X133350000Y-26800000D03*
X133350000Y-30350000D03*
X138112000Y-83950000D03*
X138112000Y-87500000D03*
X128588000Y-64900000D03*
X128588000Y-68450000D03*
X123825000Y-45850000D03*
X123825000Y-49400000D03*
X114300000Y-26800000D03*
X114300000Y-30350000D03*
X119062000Y-83950000D03*
X119062000Y-87500000D03*
X109538000Y-64900000D03*
X109538000Y-68450000D03*
X104775000Y-45850000D03*
X104775000Y-49400000D03*
X95250000Y-26800000D03*
X95250000Y-30350000D03*
X140494000Y-103000000D03*
X140494000Y-106550000D03*
X100012000Y-83950000D03*
X100012000Y-87500000D03*
X90487500Y-64900000D03*
X90487500Y-68450000D03*
X85725000Y-45850000D03*
X85725000Y-49400000D03*
X76200000Y-26800000D03*
X76200000Y-30350000D03*
X69056200Y-103000000D03*
X69056200Y-106550000D03*
X80962500Y-83950000D03*
X80962500Y-87500000D03*
X73818800Y-64900000D03*
X73818800Y-68450000D03*
X69056200Y-45850000D03*
X69056200Y-49400000D03*
X57150000Y-26800000D03*
X57150000Y-30350000D03*
X45243800Y-103000000D03*
X45243800Y-106550000D03*
X61912500Y-83950000D03*
X61912500Y-87500000D03*
X52387500Y-64900000D03*
X52387500Y-68450000D03*
X47625000Y-45850000D03*
X47625000Y-49400000D03*
X38100000Y-26800000D03*
X38100000Y-30350000D03*
X21431200Y-103000000D03*
X21431200Y-106550000D03*
X30956200Y-91093800D03*
X30956200Y-94643800D03*
X26193800Y-64285000D03*
X26193800Y-67835000D03*
X23812500Y-45685000D03*
X23812500Y-49235000D03*
X19050000Y-26800000D03*
X19050000Y-30350000D03*
M02*
