G04 #@! TF.GenerationSoftware,KiCad,Pcbnew,(5.1.12)-1*
G04 #@! TF.CreationDate,2023-09-29T20:02:25+09:00*
G04 #@! TF.ProjectId,JTNK66L,4a544e4b-3636-44c2-9e6b-696361645f70,rev?*
G04 #@! TF.SameCoordinates,Original*
G04 #@! TF.FileFunction,Copper,L1,Top*
G04 #@! TF.FilePolarity,Positive*
%FSLAX46Y46*%
G04 Gerber Fmt 4.6, Leading zero omitted, Abs format (unit mm)*
G04 Created by KiCad (PCBNEW (5.1.12)-1) date 2023-09-29 20:02:25*
%MOMM*%
%LPD*%
G01*
G04 APERTURE LIST*
G04 #@! TA.AperFunction,ComponentPad*
%ADD10O,1.650000X2.300000*%
G04 #@! TD*
G04 #@! TA.AperFunction,ComponentPad*
%ADD11O,2.300000X1.650000*%
G04 #@! TD*
G04 #@! TA.AperFunction,ComponentPad*
%ADD12C,2.000000*%
G04 #@! TD*
G04 #@! TA.AperFunction,ComponentPad*
%ADD13R,3.200000X2.500000*%
G04 #@! TD*
G04 #@! TA.AperFunction,ComponentPad*
%ADD14C,1.524000*%
G04 #@! TD*
G04 #@! TA.AperFunction,ComponentPad*
%ADD15C,1.397000*%
G04 #@! TD*
G04 #@! TA.AperFunction,ComponentPad*
%ADD16O,1.500000X1.500000*%
G04 #@! TD*
G04 #@! TA.AperFunction,ViaPad*
%ADD17C,0.800000*%
G04 #@! TD*
G04 #@! TA.AperFunction,Conductor*
%ADD18C,0.250000*%
G04 #@! TD*
G04 #@! TA.AperFunction,Conductor*
%ADD19C,0.500000*%
G04 #@! TD*
G04 APERTURE END LIST*
D10*
X328250000Y-100075000D03*
D11*
X321250000Y-99025000D03*
D12*
X330850000Y-71556200D03*
X330850000Y-66556200D03*
D13*
X323850000Y-74656200D03*
X323850000Y-63456200D03*
D12*
X316350000Y-71556200D03*
X316350000Y-69056200D03*
X316350000Y-66556200D03*
D14*
X313905400Y-18700800D03*
X329125400Y-18700800D03*
X329125400Y-21240800D03*
X329125400Y-23780800D03*
X329125400Y-26320800D03*
X329125400Y-28860800D03*
X329125400Y-31400800D03*
X329125400Y-33940800D03*
X329125400Y-36480800D03*
X329125400Y-39020800D03*
X329125400Y-41560800D03*
X329125400Y-44100800D03*
X329125400Y-46640800D03*
X329125400Y-49180800D03*
X313905400Y-49180800D03*
X313905400Y-46640800D03*
X313905400Y-44100800D03*
X313905400Y-41560800D03*
X313905400Y-39020800D03*
X313905400Y-36480800D03*
X313905400Y-33940800D03*
X313905400Y-31400800D03*
X313905400Y-28860800D03*
X313905400Y-26320800D03*
X313905400Y-23780800D03*
X313905400Y-21240800D03*
D12*
X333375000Y-48493800D03*
X333375000Y-41993800D03*
D10*
X309200000Y-100075000D03*
D11*
X302200000Y-99025000D03*
D10*
X309200000Y-81025000D03*
D11*
X302200000Y-79975000D03*
D10*
X294912000Y-42925000D03*
D11*
X287912000Y-41875000D03*
D10*
X290150000Y-23875000D03*
D11*
X283150000Y-22825000D03*
D10*
X290150000Y-100075000D03*
D11*
X283150000Y-99025000D03*
D10*
X285388000Y-81025000D03*
D11*
X278388000Y-79975000D03*
D10*
X287769000Y-61975000D03*
D11*
X280769000Y-60925000D03*
D10*
X271100000Y-42925000D03*
D11*
X264100000Y-41875000D03*
D10*
X261575000Y-23875000D03*
D11*
X254575000Y-22825000D03*
D10*
X271100000Y-100075000D03*
D11*
X264100000Y-99025000D03*
D10*
X266338000Y-81025000D03*
D11*
X259338000Y-79975000D03*
D10*
X256812000Y-61975000D03*
D11*
X249812000Y-60925000D03*
D10*
X252050000Y-42925000D03*
D11*
X245050000Y-41875000D03*
D10*
X242525000Y-23875000D03*
D11*
X235525000Y-22825000D03*
D10*
X249669000Y-100075000D03*
D11*
X242669000Y-99025000D03*
D10*
X247288000Y-81025000D03*
D11*
X240288000Y-79975000D03*
D10*
X237762000Y-61975000D03*
D11*
X230762000Y-60925000D03*
D10*
X233000000Y-42925000D03*
D11*
X226000000Y-41875000D03*
D10*
X223475000Y-23875000D03*
D11*
X216475000Y-22825000D03*
D10*
X225856000Y-100075000D03*
D11*
X218856000Y-99025000D03*
D10*
X228238000Y-81025000D03*
D11*
X221238000Y-79975000D03*
D10*
X218712000Y-61975000D03*
D11*
X211712000Y-60925000D03*
D10*
X213950000Y-42925000D03*
D11*
X206950000Y-41875000D03*
D10*
X204425000Y-23875000D03*
D11*
X197425000Y-22825000D03*
D10*
X209188000Y-81025000D03*
D11*
X202188000Y-79975000D03*
D10*
X199662000Y-61975000D03*
D11*
X192662000Y-60925000D03*
D10*
X194900000Y-42925000D03*
D11*
X187900000Y-41875000D03*
D10*
X185375000Y-23875000D03*
D11*
X178375000Y-22825000D03*
D10*
X190138000Y-81025000D03*
D11*
X183138000Y-79975000D03*
D10*
X180612000Y-61975000D03*
D11*
X173612000Y-60925000D03*
D10*
X175850000Y-42925000D03*
D11*
X168850000Y-41875000D03*
D10*
X166325000Y-23875000D03*
D11*
X159325000Y-22825000D03*
D10*
X171088000Y-81025000D03*
D11*
X164088000Y-79975000D03*
D10*
X161562000Y-61975000D03*
D11*
X154562000Y-60925000D03*
D10*
X156800000Y-42925000D03*
D11*
X149800000Y-41875000D03*
D10*
X147275000Y-23875000D03*
D11*
X140275000Y-22825000D03*
D10*
X152038000Y-81025000D03*
D11*
X145038000Y-79975000D03*
D10*
X142512000Y-61975000D03*
D11*
X135512000Y-60925000D03*
D10*
X137750000Y-42925000D03*
D11*
X130750000Y-41875000D03*
D10*
X128225000Y-23875000D03*
D11*
X121225000Y-22825000D03*
D10*
X132988000Y-81025000D03*
D11*
X125988000Y-79975000D03*
D10*
X123462000Y-61975000D03*
D11*
X116462000Y-60925000D03*
D10*
X118700000Y-42925000D03*
D11*
X111700000Y-41875000D03*
D10*
X109175000Y-23875000D03*
D11*
X102175000Y-22825000D03*
D10*
X154419000Y-100075000D03*
D11*
X147419000Y-99025000D03*
D10*
X113938000Y-81025000D03*
D11*
X106938000Y-79975000D03*
D10*
X104412000Y-61975000D03*
D11*
X97412000Y-60925000D03*
D10*
X99650000Y-42925000D03*
D11*
X92650000Y-41875000D03*
D10*
X90125000Y-23875000D03*
D11*
X83125000Y-22825000D03*
D10*
X82981200Y-100075000D03*
D11*
X75981200Y-99025000D03*
D10*
X94887500Y-81025000D03*
D11*
X87887500Y-79975000D03*
D10*
X85362500Y-61975000D03*
D11*
X78362500Y-60925000D03*
D10*
X80600000Y-42925000D03*
D11*
X73600000Y-41875000D03*
D10*
X71075000Y-23875000D03*
D11*
X64075000Y-22825000D03*
D10*
X59168800Y-100075000D03*
D11*
X52168800Y-99025000D03*
D10*
X75837500Y-81025000D03*
D11*
X68837500Y-79975000D03*
D10*
X66312500Y-61975000D03*
D11*
X59312500Y-60925000D03*
D10*
X61550000Y-42925000D03*
D11*
X54550000Y-41875000D03*
D10*
X52025000Y-23875000D03*
D11*
X45025000Y-22825000D03*
D10*
X35356200Y-100075000D03*
D11*
X28356200Y-99025000D03*
D10*
X44881200Y-81025000D03*
D11*
X37881200Y-79975000D03*
D10*
X40118800Y-61975000D03*
D11*
X33118800Y-60925000D03*
D10*
X37737500Y-42925000D03*
D11*
X30737500Y-41875000D03*
D10*
X32975000Y-23875000D03*
D11*
X25975000Y-22825000D03*
D15*
X325730000Y-54950000D03*
X323190000Y-54950000D03*
X320650000Y-54950000D03*
X318110000Y-54950000D03*
D16*
X321350000Y-83393800D03*
X323850000Y-83393800D03*
X326350000Y-83393800D03*
D17*
X257426500Y-53023200D03*
X277489300Y-72901400D03*
X330000042Y-81298300D03*
X307493100Y-56292600D03*
X304901600Y-70389200D03*
X318345900Y-95221400D03*
X174425050Y-28175050D03*
X172800050Y-29800050D03*
X275551900Y-75308900D03*
X25750000Y-108750000D03*
X35000000Y-89750000D03*
X48000000Y-108750000D03*
X29250000Y-70500000D03*
X27250000Y-51750000D03*
X72250000Y-109000000D03*
X65250000Y-89750000D03*
X56000000Y-70750000D03*
X50750000Y-51500000D03*
X41750000Y-32750000D03*
X84000000Y-89750000D03*
X75500000Y-70500000D03*
X73600000Y-51637500D03*
X70750000Y-52000000D03*
X60750000Y-32750000D03*
X103750000Y-90000000D03*
X93250000Y-70750000D03*
X88750000Y-51500000D03*
X79750000Y-32250000D03*
X122000000Y-89750000D03*
X113000000Y-71000000D03*
X107781000Y-51468800D03*
X102175000Y-32587500D03*
X97750000Y-32500000D03*
X142750000Y-108750000D03*
X145038000Y-89737500D03*
X141250000Y-90000000D03*
X132500000Y-70750000D03*
X127500000Y-51750000D03*
X117250000Y-32500000D03*
X160500000Y-89750000D03*
X150750000Y-70750000D03*
X145469000Y-51468800D03*
X136000000Y-32750000D03*
X179500000Y-89750000D03*
X170000000Y-70750000D03*
X165500000Y-51750000D03*
X155500000Y-32500000D03*
X198500000Y-89750000D03*
X189000000Y-70750000D03*
X183719000Y-51718800D03*
X175250000Y-33250000D03*
X215500000Y-108500000D03*
X218250000Y-89750000D03*
X207750000Y-70750000D03*
X202719000Y-51968800D03*
X193750000Y-33250000D03*
X242669000Y-108788000D03*
X238750000Y-109000000D03*
X235500000Y-90000000D03*
X225750000Y-71000000D03*
X221456000Y-51456200D03*
X211931000Y-33337500D03*
X230981000Y-33337500D03*
X259556000Y-109538000D03*
X254794000Y-90487500D03*
X245269000Y-71437500D03*
X250031000Y-35718800D03*
X240506000Y-50006200D03*
X278606000Y-109538000D03*
X273844000Y-90487500D03*
X276225000Y-71437500D03*
X259556000Y-52387500D03*
X283369000Y-52387500D03*
X297656000Y-107156000D03*
X297656000Y-88106200D03*
X278606000Y-35718800D03*
X316706000Y-107156000D03*
X309594000Y-23780800D03*
X316810010Y-78581200D03*
X23250000Y-32499990D03*
X319176500Y-109967100D03*
X331753900Y-90568600D03*
X299585500Y-91714300D03*
X309515700Y-106672300D03*
X258704200Y-53804200D03*
X272972400Y-86060300D03*
X279778900Y-37735200D03*
X282500400Y-39875900D03*
X261692500Y-52505100D03*
X263607200Y-37735200D03*
X267711500Y-55883600D03*
X271365700Y-51637500D03*
X280612000Y-79702300D03*
X288129800Y-72598600D03*
X282289500Y-104353400D03*
X287675000Y-91999300D03*
X257261200Y-91188400D03*
X269767300Y-102572600D03*
X247757800Y-71803100D03*
X258893800Y-82421800D03*
X242971400Y-53898300D03*
X250823400Y-63721000D03*
X235859200Y-37735200D03*
X239646900Y-40671000D03*
X249072350Y-42677650D03*
X251197350Y-44802650D03*
X225336500Y-44416500D03*
X226468000Y-37113300D03*
X232842800Y-60298600D03*
X233354100Y-53898300D03*
X238223200Y-90872500D03*
X238964600Y-70844900D03*
X240606900Y-109869300D03*
X248071600Y-90794300D03*
X219164000Y-92013700D03*
X224165100Y-102577100D03*
X208762800Y-72965100D03*
X216377800Y-86759800D03*
X204000600Y-53907000D03*
X206662300Y-68090700D03*
X203606500Y-37738300D03*
X205818500Y-45435500D03*
X184915100Y-53653600D03*
X188533000Y-37738000D03*
X190532900Y-71843200D03*
X195154500Y-51977500D03*
X199819000Y-90619900D03*
X199868900Y-71469200D03*
X171551500Y-71973200D03*
X188770100Y-83763300D03*
X166648800Y-53898300D03*
X170200000Y-60029800D03*
X166166700Y-37014000D03*
X175110700Y-45770300D03*
X147142100Y-52345700D03*
X150125700Y-37507200D03*
X152131000Y-71794400D03*
X156936200Y-50858500D03*
X161764600Y-83673700D03*
X161764600Y-72910700D03*
X145252900Y-111045300D03*
X172007000Y-90794300D03*
X142974600Y-91529600D03*
X200580210Y-110486210D03*
X133432500Y-71948900D03*
X150647900Y-87251800D03*
X128659300Y-53898300D03*
X141326700Y-66159700D03*
X126881400Y-37712600D03*
X130106700Y-44214700D03*
X109015400Y-53653600D03*
X112972500Y-37735200D03*
X115020800Y-64467400D03*
X116833400Y-50617700D03*
X123740300Y-90605300D03*
X123740300Y-72935100D03*
X95340900Y-71668900D03*
X113010965Y-84323135D03*
X87525200Y-53907000D03*
X88119600Y-56355100D03*
X89584900Y-37739100D03*
X91900800Y-44810000D03*
X72181300Y-47640400D03*
X74646400Y-37722200D03*
X79089400Y-59472700D03*
X81027200Y-53915400D03*
X84580200Y-90641100D03*
X84878200Y-69676700D03*
X73904400Y-110019000D03*
X95266700Y-92004100D03*
X66761600Y-91982000D03*
X76287400Y-101823400D03*
X57249300Y-71843200D03*
X74602700Y-83517500D03*
X52465900Y-53653600D03*
X64831700Y-64271700D03*
X51638000Y-36977800D03*
X60072800Y-45400700D03*
X29384900Y-48067300D03*
X36868800Y-37735200D03*
X23067600Y-75274500D03*
X40378100Y-72751500D03*
X52250900Y-102585300D03*
X56212300Y-92016500D03*
X312018600Y-27006500D03*
X214625800Y-21322800D03*
X184579400Y-37007200D03*
X63040400Y-83195600D03*
X208599200Y-37739100D03*
X56538000Y-37739100D03*
X75972600Y-37735200D03*
X222333500Y-36596800D03*
X308502800Y-38493600D03*
X303545500Y-70166000D03*
X92958500Y-37471400D03*
X247789400Y-37735200D03*
X108637100Y-37007700D03*
X264816500Y-37735200D03*
X265444100Y-77599300D03*
X258395800Y-48671900D03*
X270133300Y-34681500D03*
X267711500Y-37645900D03*
X265373000Y-39712400D03*
X132568500Y-37739100D03*
X304589200Y-32731400D03*
X306799100Y-34971700D03*
X152222600Y-37739100D03*
X216390800Y-93731100D03*
X328250000Y-61000000D03*
X171886700Y-37739100D03*
X165602100Y-27627000D03*
D18*
X257426500Y-60389400D02*
X257426500Y-53023200D01*
X257962100Y-60925000D02*
X257426500Y-60389400D01*
X257962100Y-75574100D02*
X257962100Y-60925000D01*
X329125400Y-33940800D02*
X335750000Y-40565400D01*
X329477200Y-65138700D02*
X329477200Y-72431200D01*
X329477200Y-72431200D02*
X331433300Y-74387300D01*
X335750000Y-40565400D02*
X335750000Y-58865900D01*
X331433300Y-74387300D02*
X331433300Y-86294500D01*
X331433300Y-86294500D02*
X319521300Y-98206500D01*
X319521300Y-98206500D02*
X319521300Y-106013300D01*
X319521300Y-106013300D02*
X313552000Y-111982600D01*
X335750000Y-58865900D02*
X329477200Y-65138700D01*
X313552000Y-111982600D02*
X280020800Y-111982600D01*
X280020800Y-111982600D02*
X273118800Y-105080600D01*
X273118800Y-105080600D02*
X273118800Y-90730800D01*
X273118800Y-90730800D02*
X257962100Y-75574100D01*
X329477200Y-55911700D02*
X329477200Y-63017787D01*
X329675012Y-63215599D02*
X329675012Y-64304071D01*
X329675012Y-64304071D02*
X329027100Y-64951983D01*
X318884700Y-97984400D02*
X330000042Y-86869058D01*
X329027100Y-64951983D02*
X329027100Y-80325358D01*
X277489300Y-72901400D02*
X279863010Y-75275110D01*
X279863010Y-75275110D02*
X279863010Y-80287310D01*
X279863010Y-80287310D02*
X296699000Y-97123300D01*
X296699000Y-97123300D02*
X296699000Y-107260000D01*
X296699000Y-107260000D02*
X300962010Y-111523010D01*
X334719800Y-50669100D02*
X329477200Y-55911700D01*
X318884700Y-106013300D02*
X318884700Y-97984400D01*
X329027100Y-80325358D02*
X330000042Y-81298300D01*
X334719800Y-40997570D02*
X334719800Y-50669100D01*
X330203030Y-36480800D02*
X334719800Y-40997570D01*
X329125400Y-36480800D02*
X330203030Y-36480800D01*
X329477200Y-63017787D02*
X329675012Y-63215599D01*
X330000042Y-86869058D02*
X330000042Y-81298300D01*
X300962010Y-111523010D02*
X313374990Y-111523010D01*
X313374990Y-111523010D02*
X318884700Y-106013300D01*
X304901600Y-70389200D02*
X307493100Y-67797700D01*
X307493100Y-67797700D02*
X307493100Y-56292600D01*
X330665100Y-50001700D02*
X328946700Y-51720100D01*
X329125400Y-41560800D02*
X330665100Y-43100500D01*
X330665100Y-43100500D02*
X330665100Y-50001700D01*
X328946700Y-51720100D02*
X328946700Y-60623698D01*
X328946700Y-60623698D02*
X328975001Y-60651999D01*
X328975001Y-60651999D02*
X328975001Y-64367671D01*
X328577000Y-64765672D02*
X328577000Y-84990300D01*
X328577000Y-84990300D02*
X318345900Y-95221400D01*
X328975001Y-64367671D02*
X328577000Y-64765672D01*
D19*
X174425050Y-28175050D02*
X172800050Y-29800050D01*
D18*
X275551900Y-75308900D02*
X275551900Y-73813200D01*
X275551900Y-73813200D02*
X277453000Y-71912100D01*
X277453000Y-71912100D02*
X277453000Y-68372900D01*
X277453000Y-68372900D02*
X283850900Y-61975000D01*
X283850900Y-61975000D02*
X286618900Y-61975000D01*
X287769000Y-61975000D02*
X286618900Y-61975000D01*
X321350000Y-83393800D02*
X320274900Y-83393800D01*
X316706000Y-86651300D02*
X317017400Y-86651300D01*
X317017400Y-86651300D02*
X320274900Y-83393800D01*
D19*
X316706000Y-86651300D02*
X316706000Y-107156000D01*
X165281000Y-35718800D02*
X165281000Y-51531200D01*
X165281000Y-51531200D02*
X165500000Y-51750000D01*
X175969000Y-35718800D02*
X165281000Y-35718800D01*
X126031000Y-35718800D02*
X117281000Y-35718800D01*
X136031000Y-35718800D02*
X126031000Y-35718800D01*
X98468800Y-35718800D02*
X98031200Y-35718800D01*
X107781000Y-35718800D02*
X98468800Y-35718800D01*
X98031200Y-35718800D02*
X88718800Y-35718800D01*
X98468800Y-35718800D02*
X98031200Y-35718800D01*
X88718800Y-35718800D02*
X79781200Y-35718800D01*
X70968800Y-35718800D02*
X60968800Y-35718800D01*
X79781200Y-35718800D02*
X70968800Y-35718800D01*
X50781200Y-35718800D02*
X41718800Y-35718800D01*
X60968800Y-35718800D02*
X50781200Y-35718800D01*
X41718800Y-35718800D02*
X27468800Y-35718800D01*
X35000000Y-96750000D02*
X47750000Y-96750000D01*
X47750000Y-96750000D02*
X48000000Y-97000000D01*
X48000000Y-97000000D02*
X48000000Y-108750000D01*
X25750000Y-97000000D02*
X26000000Y-96750000D01*
X26000000Y-96750000D02*
X35000000Y-96750000D01*
X145469000Y-35718800D02*
X136031000Y-35718800D01*
X155531000Y-35718800D02*
X145469000Y-35718800D01*
X183719000Y-35718800D02*
X175969000Y-35718800D01*
X194031000Y-35718800D02*
X183719000Y-35718800D01*
X202719000Y-35718800D02*
X194031000Y-35718800D01*
X211931000Y-35718800D02*
X202719000Y-35718800D01*
X221456000Y-35718800D02*
X211931000Y-35718800D01*
X230981000Y-35718800D02*
X221456000Y-35718800D01*
X250031000Y-35718800D02*
X245269000Y-35718800D01*
X261938000Y-35718800D02*
X250031000Y-35718800D01*
X259556000Y-50006200D02*
X259556000Y-52387500D01*
X261938000Y-35718800D02*
X259556000Y-38100000D01*
X259556000Y-38100000D02*
X259556000Y-50006200D01*
X259556000Y-52387500D02*
X259556000Y-69056200D01*
X259556000Y-69056200D02*
X264319000Y-73818800D01*
X264319000Y-73818800D02*
X273844000Y-73818800D01*
X259556000Y-50006200D02*
X259556000Y-52387500D01*
X283369000Y-35718800D02*
X283369000Y-52387500D01*
X278606000Y-35718800D02*
X283369000Y-35718800D01*
X283369000Y-35718800D02*
X278606000Y-35718800D01*
X300038000Y-35189600D02*
X294746000Y-35189600D01*
X294746000Y-35189600D02*
X294217000Y-35718800D01*
X294217000Y-35718800D02*
X283369000Y-35718800D01*
X278606000Y-35718800D02*
X261938000Y-35718800D01*
X309594000Y-23780800D02*
X309594000Y-25632900D01*
X29250000Y-70500000D02*
X26000000Y-73750000D01*
X26000000Y-73750000D02*
X22000000Y-73750000D01*
X22000000Y-73750000D02*
X21500000Y-74250000D01*
X21500000Y-74250000D02*
X21500000Y-90750000D01*
X21500000Y-90750000D02*
X25750000Y-95000000D01*
X25750000Y-95000000D02*
X25750000Y-97000000D01*
X25750000Y-97000000D02*
X25750000Y-108750000D01*
X35000000Y-96750000D02*
X35000000Y-89750000D01*
X27250000Y-51750000D02*
X27250000Y-60500000D01*
X27250000Y-60500000D02*
X29250000Y-62500000D01*
X29250000Y-62500000D02*
X29250000Y-70500000D01*
X27468800Y-35718800D02*
X27468800Y-51031200D01*
X27468800Y-51031200D02*
X27250000Y-51250000D01*
X27250000Y-51250000D02*
X27250000Y-51750000D01*
X65250000Y-89750000D02*
X65250000Y-93500000D01*
X65250000Y-93500000D02*
X72250000Y-100500000D01*
X72250000Y-100500000D02*
X72250000Y-109000000D01*
X56000000Y-70750000D02*
X56000000Y-72750000D01*
X56000000Y-72750000D02*
X65250000Y-82000000D01*
X65250000Y-82000000D02*
X65250000Y-89750000D01*
X50750000Y-51500000D02*
X50750000Y-58250000D01*
X50750000Y-58250000D02*
X56000000Y-63500000D01*
X56000000Y-63500000D02*
X56000000Y-70750000D01*
X50781200Y-35718800D02*
X50781200Y-51468800D01*
X50781200Y-51468800D02*
X50750000Y-51500000D01*
X41718800Y-35718800D02*
X41750000Y-35687500D01*
X41750000Y-35687500D02*
X41750000Y-32750000D01*
X75500000Y-70500000D02*
X75500000Y-73250000D01*
X75500000Y-73250000D02*
X84000000Y-81750000D01*
X84000000Y-81750000D02*
X84000000Y-89750000D01*
X70750000Y-52000000D02*
X70750000Y-58250000D01*
X70750000Y-58250000D02*
X75500000Y-63000000D01*
X75500000Y-63000000D02*
X75500000Y-70500000D01*
X70968800Y-35718800D02*
X70968800Y-51531200D01*
X70968800Y-51531200D02*
X70750000Y-51750000D01*
X70750000Y-51750000D02*
X70750000Y-52000000D01*
X60968800Y-35718800D02*
X60750000Y-35500000D01*
X60750000Y-35500000D02*
X60750000Y-32750000D01*
X93250000Y-70750000D02*
X93250000Y-72000000D01*
X93250000Y-72000000D02*
X103750000Y-82500000D01*
X103750000Y-82500000D02*
X103750000Y-90000000D01*
X88750000Y-51500000D02*
X88750000Y-55750000D01*
X88750000Y-55750000D02*
X93250000Y-60250000D01*
X93250000Y-60250000D02*
X93250000Y-70750000D01*
X88718800Y-35718800D02*
X88718800Y-51468800D01*
X88718800Y-51468800D02*
X88750000Y-51500000D01*
X79781200Y-35718800D02*
X79750000Y-35687500D01*
X79750000Y-35687500D02*
X79750000Y-32250000D01*
X113000000Y-71000000D02*
X113000000Y-75750000D01*
X113000000Y-75750000D02*
X117750000Y-80500000D01*
X117750000Y-80500000D02*
X122000000Y-80500000D01*
X122000000Y-80500000D02*
X122000000Y-89750000D01*
X107781000Y-51468800D02*
X107781000Y-54718800D01*
X107781000Y-54718800D02*
X108062000Y-55000000D01*
X108062000Y-55000000D02*
X111750000Y-55000000D01*
X111750000Y-55000000D02*
X113000000Y-56250000D01*
X113000000Y-56250000D02*
X113000000Y-71000000D01*
X117281000Y-35718800D02*
X107781000Y-35718800D01*
X107781000Y-35718800D02*
X107781000Y-51468800D01*
X98031200Y-35718800D02*
X97750000Y-35437500D01*
X97750000Y-35437500D02*
X97750000Y-32500000D01*
X132500000Y-70750000D02*
X132500000Y-73500000D01*
X132500000Y-73500000D02*
X141250000Y-82250000D01*
X141250000Y-82250000D02*
X141250000Y-90000000D01*
X127500000Y-51750000D02*
X127500000Y-58750000D01*
X127500000Y-58750000D02*
X132500000Y-63750000D01*
X132500000Y-63750000D02*
X132500000Y-70750000D01*
X126031000Y-35718800D02*
X126031000Y-51781200D01*
X126031000Y-51781200D02*
X126062000Y-51750000D01*
X126062000Y-51750000D02*
X127500000Y-51750000D01*
X117281000Y-35718800D02*
X117250000Y-35687500D01*
X117250000Y-35687500D02*
X117250000Y-32500000D01*
X150750000Y-70750000D02*
X150750000Y-75250000D01*
X150750000Y-75250000D02*
X155000000Y-79500000D01*
X155000000Y-79500000D02*
X157500000Y-79500000D01*
X157500000Y-79500000D02*
X160500000Y-82500000D01*
X160500000Y-82500000D02*
X160500000Y-89750000D01*
X145469000Y-51468800D02*
X145469000Y-56468800D01*
X145469000Y-56468800D02*
X150500000Y-61500000D01*
X150500000Y-61500000D02*
X150500000Y-70500000D01*
X150500000Y-70500000D02*
X150750000Y-70750000D01*
X145469000Y-35718800D02*
X145469000Y-51468800D01*
X136031000Y-35718800D02*
X136000000Y-35687500D01*
X136000000Y-35687500D02*
X136000000Y-32750000D01*
X170000000Y-70750000D02*
X170000000Y-73250000D01*
X170000000Y-73250000D02*
X179500000Y-82750000D01*
X179500000Y-82750000D02*
X179500000Y-89750000D01*
X165500000Y-51750000D02*
X165500000Y-57500000D01*
X165500000Y-57500000D02*
X170000000Y-62000000D01*
X170000000Y-62000000D02*
X170000000Y-70750000D01*
X165281000Y-35718800D02*
X155531000Y-35718800D01*
X155531000Y-35718800D02*
X155500000Y-35687500D01*
X155500000Y-35687500D02*
X155500000Y-32500000D01*
X189000000Y-70750000D02*
X189000000Y-75000000D01*
X189000000Y-75000000D02*
X195000000Y-81000000D01*
X195000000Y-81000000D02*
X198500000Y-81000000D01*
X198500000Y-81000000D02*
X198500000Y-89750000D01*
X183719000Y-51718800D02*
X183719000Y-55468800D01*
X183719000Y-55468800D02*
X189000000Y-60750000D01*
X189000000Y-60750000D02*
X189000000Y-70750000D01*
X183719000Y-35718800D02*
X183719000Y-51718800D01*
X175969000Y-35718800D02*
X175250000Y-35000000D01*
X175250000Y-35000000D02*
X175250000Y-33250000D01*
X217250000Y-89750000D02*
X217250000Y-96500000D01*
X217250000Y-96500000D02*
X215500000Y-98250000D01*
X215500000Y-98250000D02*
X215500000Y-108500000D01*
X207750000Y-70750000D02*
X217250000Y-80250000D01*
X217250000Y-80250000D02*
X217250000Y-89750000D01*
X217250000Y-89750000D02*
X218250000Y-89750000D01*
X202719000Y-51968800D02*
X203284000Y-51968800D01*
X203284000Y-51968800D02*
X207750000Y-56434300D01*
X207750000Y-56434300D02*
X207750000Y-70750000D01*
X202719000Y-35718800D02*
X202719000Y-51968800D01*
X194031000Y-35718800D02*
X193750000Y-35437500D01*
X193750000Y-35437500D02*
X193750000Y-33250000D01*
X235500000Y-90000000D02*
X235500000Y-96500000D01*
X235500000Y-96500000D02*
X238750000Y-99750000D01*
X238750000Y-99750000D02*
X238750000Y-109000000D01*
X225750000Y-71000000D02*
X226750000Y-71000000D01*
X226750000Y-71000000D02*
X235500000Y-79750000D01*
X235500000Y-79750000D02*
X235500000Y-90000000D01*
X221500000Y-51500000D02*
X221500000Y-57250000D01*
X221500000Y-57250000D02*
X225750000Y-61500000D01*
X225750000Y-61500000D02*
X225750000Y-71000000D01*
X221500000Y-51500000D02*
X221456000Y-51456200D01*
X221456000Y-35718800D02*
X221456000Y-51456200D01*
X211931000Y-35718800D02*
X211931000Y-33337500D01*
X230981000Y-33337500D02*
X230981000Y-35718800D01*
X245269000Y-35718800D02*
X230981000Y-35718800D01*
X254794000Y-90487500D02*
X254794000Y-95250000D01*
X254794000Y-95250000D02*
X259556000Y-100012000D01*
X259556000Y-100012000D02*
X259556000Y-109538000D01*
X245269000Y-71437500D02*
X245269000Y-73818800D01*
X245269000Y-73818800D02*
X254794000Y-83343800D01*
X254794000Y-83343800D02*
X254794000Y-90487500D01*
X240506000Y-50006200D02*
X240506000Y-54768800D01*
X240506000Y-54768800D02*
X245269000Y-59531200D01*
X245269000Y-59531200D02*
X245269000Y-71437500D01*
X245269000Y-35718800D02*
X240506000Y-40481200D01*
X240506000Y-40481200D02*
X240506000Y-50006200D01*
X273844000Y-90487500D02*
X273844000Y-95250000D01*
X273844000Y-95250000D02*
X278606000Y-100012000D01*
X278606000Y-100012000D02*
X278606000Y-109538000D01*
X273844000Y-73818800D02*
X273844000Y-90487500D01*
X273844000Y-73818800D02*
X276225000Y-71437500D01*
X297656000Y-88106200D02*
X297656000Y-107156000D01*
X300038000Y-35189600D02*
X300038000Y-56748900D01*
X300038000Y-56748900D02*
X300069000Y-56780300D01*
X300069000Y-56780300D02*
X300069000Y-76168600D01*
X300069000Y-76168600D02*
X297656000Y-78581200D01*
X297656000Y-78581200D02*
X297656000Y-88106200D01*
X309594000Y-23780800D02*
X309594000Y-25632900D01*
X309594000Y-25632900D02*
X300038000Y-35189600D01*
X316410011Y-78181201D02*
X316810010Y-78581200D01*
X316706000Y-78685210D02*
X316810010Y-78581200D01*
X309594000Y-71365190D02*
X316410011Y-78181201D01*
X316706000Y-86651300D02*
X316706000Y-78685210D01*
X309594000Y-25632900D02*
X309594000Y-71365190D01*
X23649999Y-32899989D02*
X23250000Y-32499990D01*
X23649999Y-35399999D02*
X23649999Y-32899989D01*
X23968800Y-35718800D02*
X23649999Y-35399999D01*
X27468800Y-35718800D02*
X23968800Y-35718800D01*
X142750000Y-113250000D02*
X142750000Y-108750000D01*
X143000000Y-113500000D02*
X142750000Y-113250000D01*
X202500000Y-113500000D02*
X143000000Y-113500000D01*
X207500000Y-108500000D02*
X202500000Y-113500000D01*
X215500000Y-108500000D02*
X207500000Y-108500000D01*
D18*
X312766000Y-19840200D02*
X313905400Y-18700800D01*
X312766000Y-26763700D02*
X312766000Y-19840200D01*
X313994600Y-27412300D02*
X313414600Y-27412300D01*
X323850000Y-83393800D02*
X323850000Y-82318700D01*
X323850000Y-82318700D02*
X323715600Y-82318700D01*
X313414600Y-27412300D02*
X312766000Y-26763700D01*
X323715600Y-82318700D02*
X321963110Y-80566210D01*
X321963110Y-80566210D02*
X321940524Y-80566210D01*
X312000000Y-70603100D02*
X312000000Y-44399000D01*
X321940524Y-80566210D02*
X321714990Y-80340676D01*
X321714990Y-80340676D02*
X321714990Y-80318090D01*
X321714990Y-80318090D02*
X312000000Y-70603100D01*
X312000000Y-44399000D02*
X313568200Y-42830800D01*
X313568200Y-42830800D02*
X314191500Y-42830800D01*
X314191500Y-42830800D02*
X314999200Y-42023100D01*
X314999200Y-28416900D02*
X313994600Y-27412300D01*
X314999200Y-42023100D02*
X314999200Y-28416900D01*
X331753900Y-90568600D02*
X320537800Y-101784700D01*
X320537800Y-101784700D02*
X320537800Y-108605800D01*
X320537800Y-108605800D02*
X319176500Y-109967100D01*
X299585500Y-91714300D02*
X299585500Y-98381600D01*
X299585500Y-98381600D02*
X301855300Y-100651400D01*
X301855300Y-100651400D02*
X304868600Y-100651400D01*
X304868600Y-100651400D02*
X309515700Y-105298500D01*
X309515700Y-105298500D02*
X309515700Y-106672300D01*
X272972400Y-86060300D02*
X272972300Y-86060300D01*
X272972300Y-86060300D02*
X272972300Y-83854300D01*
X272972300Y-83854300D02*
X258862300Y-69744300D01*
X258862300Y-69744300D02*
X258862300Y-53962300D01*
X258862300Y-53962300D02*
X258704200Y-53804200D01*
X279778900Y-37735200D02*
X281919600Y-39875900D01*
X281919600Y-39875900D02*
X282500400Y-39875900D01*
X263607200Y-37735200D02*
X261692500Y-39649900D01*
X261692500Y-39649900D02*
X261692500Y-52505100D01*
X271365700Y-51637500D02*
X267711500Y-55291700D01*
X267711500Y-55291700D02*
X267711500Y-55883600D01*
X288129800Y-72598600D02*
X281026100Y-79702300D01*
X281026100Y-79702300D02*
X280612000Y-79702300D01*
X287675000Y-91999300D02*
X287675000Y-98078600D01*
X287675000Y-98078600D02*
X282289500Y-103464100D01*
X282289500Y-103464100D02*
X282289500Y-104353400D01*
X269767300Y-102572600D02*
X258383100Y-91188400D01*
X258383100Y-91188400D02*
X257261200Y-91188400D01*
X258893800Y-82421800D02*
X248275100Y-71803100D01*
X248275100Y-71803100D02*
X247757800Y-71803100D01*
X242971400Y-53898300D02*
X242971400Y-56094300D01*
X242971400Y-56094300D02*
X250598100Y-63721000D01*
X250598100Y-63721000D02*
X250823400Y-63721000D01*
X235859200Y-37735200D02*
X238795000Y-40671000D01*
X238795000Y-40671000D02*
X239646900Y-40671000D01*
D19*
X251197350Y-44802650D02*
X249072350Y-42677650D01*
D18*
X226468000Y-37113300D02*
X224524800Y-39056500D01*
X224524800Y-39056500D02*
X224524800Y-43604800D01*
X224524800Y-43604800D02*
X225336500Y-44416500D01*
X233354100Y-53898300D02*
X233354100Y-59787300D01*
X233354100Y-59787300D02*
X232842800Y-60298600D01*
X238964600Y-70844900D02*
X238223200Y-71586300D01*
X238223200Y-71586300D02*
X238223200Y-90872500D01*
X248071600Y-90794300D02*
X248071600Y-97071700D01*
X248071600Y-97071700D02*
X240606900Y-104536400D01*
X240606900Y-104536400D02*
X240606900Y-109869300D01*
X224165100Y-102577100D02*
X223437800Y-101849800D01*
X223437800Y-101849800D02*
X219680000Y-101849800D01*
X219680000Y-101849800D02*
X217354000Y-99523800D01*
X217354000Y-99523800D02*
X217354000Y-98346000D01*
X217354000Y-98346000D02*
X219164000Y-96536000D01*
X219164000Y-96536000D02*
X219164000Y-92013700D01*
X216377800Y-86759800D02*
X216377800Y-80580100D01*
X216377800Y-80580100D02*
X208762800Y-72965100D01*
X206662300Y-68090700D02*
X202225600Y-63654000D01*
X202225600Y-63654000D02*
X202225600Y-55682000D01*
X202225600Y-55682000D02*
X204000600Y-53907000D01*
X203606500Y-37738300D02*
X203606500Y-43223500D01*
X203606500Y-43223500D02*
X205818500Y-45435500D01*
X188533000Y-37738000D02*
X184915100Y-41355900D01*
X184915100Y-41355900D02*
X184915100Y-53653600D01*
X195154500Y-51977500D02*
X190532900Y-56599100D01*
X190532900Y-56599100D02*
X190532900Y-71843200D01*
X199819000Y-90619900D02*
X199819000Y-71519100D01*
X199819000Y-71519100D02*
X199868900Y-71469200D01*
X171551500Y-71973200D02*
X173966800Y-74388500D01*
X173966800Y-74388500D02*
X179510800Y-74388500D01*
X179510800Y-74388500D02*
X188770100Y-83647800D01*
X188770100Y-83647800D02*
X188770100Y-83763300D01*
X166648800Y-53898300D02*
X166648800Y-56478600D01*
X166648800Y-56478600D02*
X170200000Y-60029800D01*
X175110700Y-45770300D02*
X172776500Y-43436100D01*
X172776500Y-43436100D02*
X172776500Y-37569500D01*
X172776500Y-37569500D02*
X172221000Y-37014000D01*
X172221000Y-37014000D02*
X166166700Y-37014000D01*
X147142100Y-52345700D02*
X147142100Y-40490800D01*
X147142100Y-40490800D02*
X150125700Y-37507200D01*
X152131000Y-71794400D02*
X152131000Y-58909900D01*
X152131000Y-58909900D02*
X156936200Y-54104700D01*
X156936200Y-54104700D02*
X156936200Y-50858500D01*
X161764600Y-83673700D02*
X161764600Y-72910700D01*
X145670800Y-111463200D02*
X145252900Y-111045300D01*
X151928476Y-111523010D02*
X148109524Y-111523010D01*
X204655400Y-108985049D02*
X204655400Y-109344600D01*
X204655400Y-109344600D02*
X204238900Y-109761100D01*
X204485617Y-95245108D02*
X204705126Y-95464951D01*
X204694892Y-108945617D02*
X204655400Y-108985049D01*
X198577900Y-111463200D02*
X151988286Y-111463200D01*
X172007000Y-90794300D02*
X175393900Y-94181200D01*
X148109524Y-111523010D02*
X148049714Y-111463200D01*
X204485402Y-95245019D02*
X204485490Y-95245107D01*
X148049714Y-111463200D02*
X145670800Y-111463200D01*
X204238900Y-109761100D02*
X200280000Y-109761100D01*
X151988286Y-111463200D02*
X151928476Y-111523010D01*
X175393900Y-94181200D02*
X203408900Y-94181200D01*
X203408900Y-94181200D02*
X204472716Y-95245016D01*
X204472716Y-95245016D02*
X204485402Y-95245019D01*
X204485490Y-95245107D02*
X204485617Y-95245108D01*
X204705126Y-95464951D02*
X204694892Y-108945617D01*
X200280000Y-109761100D02*
X198577900Y-111463200D01*
X205155277Y-95278158D02*
X205155277Y-109594723D01*
X205155277Y-109594723D02*
X204263790Y-110486210D01*
X143917510Y-92472510D02*
X169296990Y-92472510D01*
X203608219Y-93731100D02*
X205155277Y-95278158D01*
X204263790Y-110486210D02*
X200580210Y-110486210D01*
X177698000Y-93731100D02*
X203608219Y-93731100D01*
X169296990Y-92472510D02*
X171700400Y-90069100D01*
X142974600Y-91529600D02*
X143917510Y-92472510D01*
X171700400Y-90069100D02*
X174036000Y-90069100D01*
X174036000Y-90069100D02*
X177698000Y-93731100D01*
X133432500Y-71948900D02*
X143466400Y-81982800D01*
X143466400Y-81982800D02*
X148089900Y-81982800D01*
X148089900Y-81982800D02*
X150647900Y-84540800D01*
X150647900Y-84540800D02*
X150647900Y-87251800D01*
X141326700Y-66159700D02*
X141326700Y-65741900D01*
X141326700Y-65741900D02*
X138136200Y-62551400D01*
X138136200Y-62551400D02*
X135153000Y-62551400D01*
X135153000Y-62551400D02*
X128659300Y-56057700D01*
X128659300Y-56057700D02*
X128659300Y-53898300D01*
X130106700Y-44214700D02*
X126881400Y-40989400D01*
X126881400Y-40989400D02*
X126881400Y-37712600D01*
X112972500Y-37735200D02*
X109015400Y-41692300D01*
X109015400Y-41692300D02*
X109015400Y-53653600D01*
X116833400Y-50617700D02*
X116833400Y-58337400D01*
X116833400Y-58337400D02*
X114941200Y-60229600D01*
X114941200Y-60229600D02*
X114941200Y-64387800D01*
X114941200Y-64387800D02*
X115020800Y-64467400D01*
X123740300Y-90605300D02*
X123740300Y-72935100D01*
X113010965Y-83757450D02*
X113010965Y-84323135D01*
X95340900Y-71668900D02*
X98573100Y-74901100D01*
X98573100Y-74901100D02*
X104154615Y-74901100D01*
X104154615Y-74901100D02*
X113010965Y-83757450D01*
X88119600Y-56355100D02*
X88119600Y-54501400D01*
X88119600Y-54501400D02*
X87525200Y-53907000D01*
X89584900Y-37739100D02*
X89584900Y-42494100D01*
X89584900Y-42494100D02*
X91900800Y-44810000D01*
X74646400Y-37722200D02*
X72118000Y-40250600D01*
X72118000Y-40250600D02*
X72118000Y-47577100D01*
X72118000Y-47577100D02*
X72181300Y-47640400D01*
X81027200Y-53915400D02*
X81027200Y-57534900D01*
X81027200Y-57534900D02*
X79089400Y-59472700D01*
X84580200Y-90641100D02*
X84847600Y-90373700D01*
X84847600Y-90373700D02*
X84847600Y-69707300D01*
X84847600Y-69707300D02*
X84878200Y-69676700D01*
X73904400Y-110019000D02*
X73904400Y-105292900D01*
X73904400Y-105292900D02*
X86147400Y-93049900D01*
X86147400Y-93049900D02*
X94220900Y-93049900D01*
X94220900Y-93049900D02*
X95266700Y-92004100D01*
X66761600Y-91982000D02*
X66761600Y-92297600D01*
X66761600Y-92297600D02*
X76287400Y-101823400D01*
X74602700Y-83517500D02*
X73223100Y-82137900D01*
X73223100Y-82137900D02*
X67544000Y-82137900D01*
X67544000Y-82137900D02*
X57249300Y-71843200D01*
X64831700Y-64271700D02*
X54213600Y-53653600D01*
X54213600Y-53653600D02*
X52465900Y-53653600D01*
X60072800Y-45400700D02*
X60072800Y-40214500D01*
X60072800Y-40214500D02*
X56836100Y-36977800D01*
X56836100Y-36977800D02*
X51638000Y-36977800D01*
X36868800Y-37735200D02*
X29384900Y-45219100D01*
X29384900Y-45219100D02*
X29384900Y-48067300D01*
X40378100Y-72751500D02*
X37855100Y-75274500D01*
X37855100Y-75274500D02*
X23067600Y-75274500D01*
X56212300Y-92016500D02*
X56212300Y-98623900D01*
X56212300Y-98623900D02*
X52250900Y-102585300D01*
X320650000Y-54950000D02*
X314880800Y-49180800D01*
X314880800Y-49180800D02*
X313905400Y-49180800D01*
X178375000Y-21674900D02*
X178375000Y-21322800D01*
X178375000Y-21322800D02*
X214625800Y-21322800D01*
X313905400Y-31400800D02*
X312018600Y-29514000D01*
X312018600Y-29514000D02*
X312018600Y-27006500D01*
X33118800Y-60925000D02*
X33118800Y-59774900D01*
X30737500Y-41875000D02*
X30737500Y-43025100D01*
X30737500Y-43025100D02*
X28650200Y-45112400D01*
X28650200Y-45112400D02*
X28650200Y-55306300D01*
X28650200Y-55306300D02*
X33118800Y-59774900D01*
X188350900Y-41299900D02*
X189305300Y-40345500D01*
X189305300Y-40345500D02*
X189305300Y-37401200D01*
X189305300Y-37401200D02*
X188911300Y-37007200D01*
X188911300Y-37007200D02*
X184579400Y-37007200D01*
X188350900Y-41299900D02*
X195883900Y-48832900D01*
X195883900Y-48832900D02*
X195883900Y-59178200D01*
X195883900Y-59178200D02*
X194137100Y-60925000D01*
X187900000Y-41299900D02*
X188350900Y-41299900D01*
X187900000Y-41875000D02*
X187900000Y-41299900D01*
X194137100Y-60925000D02*
X202188000Y-68975900D01*
X202188000Y-68975900D02*
X202188000Y-79975000D01*
X178375000Y-22825000D02*
X178375000Y-21674900D01*
X192662000Y-60925000D02*
X194137100Y-60925000D01*
X118484600Y-20774600D02*
X116951801Y-22307399D01*
X112296322Y-22309200D02*
X111087100Y-21099978D01*
X25975000Y-21750000D02*
X25975000Y-22825000D01*
X116951801Y-22307399D02*
X114500726Y-22307399D01*
X177826800Y-20774600D02*
X118484600Y-20774600D01*
X114131161Y-22309200D02*
X112296322Y-22309200D01*
X26556400Y-21168600D02*
X25975000Y-21750000D01*
X104033678Y-21168600D02*
X26556400Y-21168600D01*
X104102300Y-21099978D02*
X104033678Y-21168600D01*
X114133332Y-22311326D02*
X114131161Y-22309200D01*
X178375000Y-21322800D02*
X177826800Y-20774600D01*
X114500726Y-22307399D02*
X114133332Y-22311326D01*
X111087100Y-21099978D02*
X104102300Y-21099978D01*
X54550000Y-40724900D02*
X56538000Y-38736900D01*
X56538000Y-38736900D02*
X56538000Y-37739100D01*
X221238000Y-79975000D02*
X221238000Y-81125100D01*
X221238000Y-81125100D02*
X220087900Y-82275200D01*
X220087900Y-82275200D02*
X220087900Y-96643000D01*
X220087900Y-96643000D02*
X218856000Y-97874900D01*
X221238000Y-79975000D02*
X221238000Y-79399900D01*
X218856000Y-99025000D02*
X218856000Y-97874900D01*
X63040400Y-83195600D02*
X63040400Y-84126500D01*
X63040400Y-84126500D02*
X52168800Y-94998100D01*
X52168800Y-94998100D02*
X52168800Y-99025000D01*
X197425000Y-22825000D02*
X197425000Y-21888900D01*
X208599200Y-37739100D02*
X208599200Y-39075700D01*
X208599200Y-39075700D02*
X206950000Y-40724900D01*
X206950000Y-41875000D02*
X206950000Y-40724900D01*
X211712000Y-60925000D02*
X211712000Y-58412400D01*
X211712000Y-58412400D02*
X206578900Y-53279300D01*
X206578900Y-53279300D02*
X206578900Y-43396200D01*
X206578900Y-43396200D02*
X206950000Y-43025100D01*
X68837500Y-79975000D02*
X66604700Y-79975000D01*
X66604700Y-79975000D02*
X58525000Y-71895300D01*
X58525000Y-71895300D02*
X58525000Y-60925000D01*
X58525000Y-60925000D02*
X57837400Y-60925000D01*
X59312500Y-60925000D02*
X58525000Y-60925000D01*
X54550000Y-41540800D02*
X51706800Y-44384000D01*
X51706800Y-44384000D02*
X51706800Y-54794400D01*
X51706800Y-54794400D02*
X57837400Y-60925000D01*
X54550000Y-41540800D02*
X54550000Y-40724900D01*
X54550000Y-41875000D02*
X54550000Y-41540800D01*
X221238000Y-79399900D02*
X221238000Y-78824900D01*
X211712000Y-60925000D02*
X213187100Y-60925000D01*
X213187100Y-60925000D02*
X221238000Y-68975900D01*
X221238000Y-68975900D02*
X221238000Y-78824900D01*
X206950000Y-41875000D02*
X206950000Y-43025100D01*
X197425000Y-21888900D02*
X185318500Y-21888900D01*
X185318500Y-21888900D02*
X183211700Y-23995700D01*
X172697900Y-21224700D02*
X118671200Y-21224700D01*
X118671200Y-21224700D02*
X117136311Y-22759589D01*
X183211700Y-23995700D02*
X175468900Y-23995700D01*
X113951653Y-22763263D02*
X113947709Y-22759400D01*
X112110111Y-22759400D02*
X110900700Y-21549989D01*
X110900700Y-21549989D02*
X104288700Y-21549989D01*
X117136311Y-22759589D02*
X114302473Y-22759589D01*
X104288700Y-21549989D02*
X104163789Y-21674900D01*
X104163789Y-21674900D02*
X45100100Y-21674900D01*
X45100100Y-21674900D02*
X45025000Y-21750000D01*
X45025000Y-21750000D02*
X45025000Y-22825000D01*
X113947709Y-22759400D02*
X112110111Y-22759400D01*
X114302473Y-22759589D02*
X113951653Y-22763263D01*
X175468900Y-23995700D02*
X172697900Y-21224700D01*
X302683021Y-17910200D02*
X306120600Y-17910200D01*
X302622801Y-17849980D02*
X302683021Y-17910200D01*
X296734969Y-17849980D02*
X302622801Y-17849980D01*
X197425000Y-21888900D02*
X197584000Y-22047900D01*
X306120600Y-17910200D02*
X311293500Y-23083100D01*
X232972100Y-22477500D02*
X237539400Y-17910200D01*
X225065400Y-22477500D02*
X232972100Y-22477500D01*
X215307900Y-21666200D02*
X224254100Y-21666200D01*
X224254100Y-21666200D02*
X225065400Y-22477500D01*
X197584000Y-22047900D02*
X214926200Y-22047900D01*
X214926200Y-22047900D02*
X215307900Y-21666200D01*
X237539400Y-17910200D02*
X296674749Y-17910200D01*
X296674749Y-17910200D02*
X296734969Y-17849980D01*
X311293500Y-23083100D02*
X311293500Y-31328900D01*
X311293500Y-31328900D02*
X313905400Y-33940800D01*
X240288000Y-79975000D02*
X240288000Y-81125100D01*
X240288000Y-81125100D02*
X239926900Y-81486200D01*
X239926900Y-81486200D02*
X239926900Y-95132800D01*
X239926900Y-95132800D02*
X242669000Y-97874900D01*
X232237100Y-60925000D02*
X240288000Y-68975900D01*
X240288000Y-68975900D02*
X240288000Y-79975000D01*
X242669000Y-99025000D02*
X242669000Y-97874900D01*
X78362500Y-59774900D02*
X72857800Y-54270200D01*
X72857800Y-54270200D02*
X72857800Y-47989400D01*
X72857800Y-47989400D02*
X72906400Y-47940800D01*
X72906400Y-47940800D02*
X72906400Y-43718700D01*
X72906400Y-43718700D02*
X73600000Y-43025100D01*
X75972600Y-37735200D02*
X73600000Y-40107800D01*
X73600000Y-40107800D02*
X73600000Y-41875000D01*
X230762000Y-60925000D02*
X232237100Y-60925000D01*
X230762000Y-60861800D02*
X230762000Y-60925000D01*
X230762000Y-60861800D02*
X230762000Y-59774900D01*
X77456300Y-99025000D02*
X85310800Y-91170500D01*
X85310800Y-91170500D02*
X85310800Y-79929000D01*
X85310800Y-79929000D02*
X86414900Y-78824900D01*
X226000000Y-40965700D02*
X226130700Y-40965700D01*
X226130700Y-40965700D02*
X231549200Y-46384200D01*
X231549200Y-46384200D02*
X231549200Y-58987700D01*
X231549200Y-58987700D02*
X230762000Y-59774900D01*
X226000000Y-40965700D02*
X226000000Y-40724900D01*
X226000000Y-41875000D02*
X226000000Y-40965700D01*
X226000000Y-40724900D02*
X227199400Y-39525500D01*
X227199400Y-39525500D02*
X227199400Y-36774800D01*
X227199400Y-36774800D02*
X226768700Y-36344100D01*
X226768700Y-36344100D02*
X222586200Y-36344100D01*
X222586200Y-36344100D02*
X222333500Y-36596800D01*
X86414900Y-78824900D02*
X86414900Y-67973900D01*
X86414900Y-67973900D02*
X78790900Y-60349900D01*
X78790900Y-60349900D02*
X78362500Y-60349900D01*
X87887500Y-78824900D02*
X86414900Y-78824900D01*
X87887500Y-79975000D02*
X87887500Y-78824900D01*
X75981200Y-99025000D02*
X77456300Y-99025000D01*
X78362500Y-60349900D02*
X78362500Y-59774900D01*
X78362500Y-60925000D02*
X78362500Y-60349900D01*
X73600000Y-41875000D02*
X73600000Y-43025100D01*
X302496710Y-18360300D02*
X305854700Y-18360300D01*
X302436401Y-18299991D02*
X302496710Y-18360300D01*
X305854700Y-18360300D02*
X310843400Y-23349000D01*
X296921369Y-18299991D02*
X302436401Y-18299991D01*
X218393000Y-22382100D02*
X224079600Y-22382100D01*
X296861060Y-18360300D02*
X296921369Y-18299991D01*
X243497900Y-18360300D02*
X296861060Y-18360300D01*
X237875500Y-23982700D02*
X243497900Y-18360300D01*
X225680200Y-23982700D02*
X237875500Y-23982700D01*
X310843400Y-23349000D02*
X310843400Y-33418800D01*
X224079600Y-22382100D02*
X225680200Y-23982700D01*
X217950100Y-22825000D02*
X218393000Y-22382100D01*
X216475000Y-22825000D02*
X217950100Y-22825000D01*
X310843400Y-33418800D02*
X313905400Y-36480800D01*
X249812000Y-59774900D02*
X244686300Y-54649200D01*
X244686300Y-54649200D02*
X244686300Y-43388800D01*
X244686300Y-43388800D02*
X245050000Y-43025100D01*
X303545500Y-70166000D02*
X303545500Y-43450900D01*
X303545500Y-43450900D02*
X308502800Y-38493600D01*
X262624900Y-99025000D02*
X256515300Y-92915400D01*
X256515300Y-92915400D02*
X256515300Y-85825800D01*
X256515300Y-85825800D02*
X259618900Y-82722200D01*
X259618900Y-82722200D02*
X259618900Y-81406000D01*
X259618900Y-81406000D02*
X259338000Y-81125100D01*
X138479400Y-109114700D02*
X147419000Y-100175100D01*
X104504200Y-79975000D02*
X104504200Y-90284100D01*
X104504200Y-90284100D02*
X99513500Y-95274800D01*
X99513500Y-95274800D02*
X95641100Y-95274800D01*
X95641100Y-95274800D02*
X95534800Y-95381100D01*
X95534800Y-95381100D02*
X95534800Y-108946700D01*
X95534800Y-108946700D02*
X95702800Y-109114700D01*
X95702800Y-109114700D02*
X138479400Y-109114700D01*
X138479400Y-109114700D02*
X138479400Y-109808200D01*
X138479400Y-109808200D02*
X143114600Y-114443400D01*
X143114600Y-114443400D02*
X255739900Y-114443400D01*
X255739900Y-114443400D02*
X262624900Y-107558400D01*
X262624900Y-107558400D02*
X262624900Y-99025000D01*
X104504200Y-79975000D02*
X106938000Y-79975000D01*
X97412000Y-59989700D02*
X94602200Y-62799500D01*
X94602200Y-62799500D02*
X94602200Y-72013400D01*
X94602200Y-72013400D02*
X102563800Y-79975000D01*
X102563800Y-79975000D02*
X104504200Y-79975000D01*
X147419000Y-99025000D02*
X147419000Y-100175100D01*
X97412000Y-60637400D02*
X97412000Y-59989700D01*
X97412000Y-60925000D02*
X97412000Y-60637400D01*
X92650000Y-41875000D02*
X92650000Y-40724900D01*
X92958500Y-37471400D02*
X92958500Y-40416400D01*
X92958500Y-40416400D02*
X92650000Y-40724900D01*
X245050000Y-41875000D02*
X245050000Y-43025100D01*
X247789400Y-37735200D02*
X245050000Y-40474600D01*
X245050000Y-40474600D02*
X245050000Y-41875000D01*
X249812000Y-60925000D02*
X249812000Y-59774900D01*
X249812000Y-60925000D02*
X251287100Y-60925000D01*
X259338000Y-79975000D02*
X259338000Y-78824900D01*
X259338000Y-78824900D02*
X255863700Y-75350600D01*
X255863700Y-75350600D02*
X255863700Y-65501600D01*
X255863700Y-65501600D02*
X251287100Y-60925000D01*
X259338000Y-80550000D02*
X259338000Y-79975000D01*
X259338000Y-80550000D02*
X259338000Y-81125100D01*
X97412000Y-59774900D02*
X92318700Y-54681600D01*
X92318700Y-54681600D02*
X92318700Y-45417600D01*
X92318700Y-45417600D02*
X92650000Y-45086300D01*
X92650000Y-45086300D02*
X92650000Y-43025100D01*
X264100000Y-99025000D02*
X262624900Y-99025000D01*
X97412000Y-59989700D02*
X97412000Y-59774900D01*
X92650000Y-41875000D02*
X92650000Y-43025100D01*
X264816500Y-37735200D02*
X264100000Y-38451700D01*
X264100000Y-38451700D02*
X264100000Y-40724900D01*
X112909900Y-40724900D02*
X113724800Y-39910000D01*
X113724800Y-39910000D02*
X113724800Y-37419100D01*
X113724800Y-37419100D02*
X113313400Y-37007700D01*
X113313400Y-37007700D02*
X108637100Y-37007700D01*
X265444100Y-77599300D02*
X258412200Y-70567400D01*
X258412200Y-70567400D02*
X258412200Y-60513300D01*
X258412200Y-60513300D02*
X257962100Y-60063200D01*
X257962100Y-60063200D02*
X257962100Y-53520700D01*
X257962100Y-53520700D02*
X258395800Y-53087000D01*
X258395800Y-53087000D02*
X258395800Y-48671900D01*
X264100000Y-41875000D02*
X264100000Y-40724900D01*
X280769000Y-60925000D02*
X280769000Y-62075100D01*
X278388000Y-80550000D02*
X274812600Y-76974600D01*
X274812600Y-76974600D02*
X274812600Y-73915900D01*
X274812600Y-73915900D02*
X277002800Y-71725700D01*
X277002800Y-71725700D02*
X277002800Y-65841300D01*
X277002800Y-65841300D02*
X280769000Y-62075100D01*
X278388000Y-80550000D02*
X278388000Y-81125100D01*
X278388000Y-79975000D02*
X278388000Y-80550000D01*
X283150000Y-99025000D02*
X283150000Y-97874900D01*
X278388000Y-81125100D02*
X278024000Y-81489100D01*
X278024000Y-81489100D02*
X278024000Y-92748900D01*
X278024000Y-92748900D02*
X283150000Y-97874900D01*
X112909900Y-40724900D02*
X111700000Y-40724900D01*
X117467700Y-60925000D02*
X117560900Y-60831800D01*
X117560900Y-60831800D02*
X117560900Y-45375900D01*
X117560900Y-45375900D02*
X112909900Y-40724900D01*
X254575000Y-22825000D02*
X254575000Y-23400000D01*
X117467700Y-60925000D02*
X117937100Y-60925000D01*
X116462000Y-60925000D02*
X117467700Y-60925000D01*
X117937100Y-60925000D02*
X125988000Y-68975900D01*
X125988000Y-68975900D02*
X125988000Y-79975000D01*
X111700000Y-41875000D02*
X111700000Y-40724900D01*
X174154400Y-25368600D02*
X252606400Y-25368600D01*
X170460600Y-21674800D02*
X174154400Y-25368600D01*
X119082500Y-21674800D02*
X170460600Y-21674800D01*
X117547700Y-23209600D02*
X119082500Y-21674800D01*
X114304843Y-23209600D02*
X117547700Y-23209600D01*
X252606400Y-25368600D02*
X254575000Y-23400000D01*
X114142731Y-23211297D02*
X114304843Y-23209600D01*
X114142713Y-23211315D02*
X114142731Y-23211297D01*
X113764231Y-23209600D02*
X113769931Y-23215183D01*
X104475100Y-22000000D02*
X110714300Y-22000000D01*
X103650100Y-22825000D02*
X104475100Y-22000000D01*
X102175000Y-22825000D02*
X103650100Y-22825000D01*
X111923900Y-23209600D02*
X113764231Y-23209600D01*
X110714300Y-22000000D02*
X111923900Y-23209600D01*
X113769931Y-23215183D02*
X114142713Y-23211315D01*
X297107771Y-18750000D02*
X302250000Y-18750000D01*
X296824371Y-19033400D02*
X297107771Y-18750000D01*
X269574783Y-19024943D02*
X296824371Y-19033400D01*
X269566320Y-19033400D02*
X269574783Y-19024943D01*
X258941600Y-19033400D02*
X269566320Y-19033400D01*
X254575000Y-23400000D02*
X258941600Y-19033400D01*
X310337500Y-37992900D02*
X313905400Y-41560800D01*
X310337500Y-23489300D02*
X310337500Y-37992900D01*
X309886500Y-23038300D02*
X310337500Y-23489300D01*
X308609700Y-23038300D02*
X309886500Y-23038300D01*
X308167200Y-23480800D02*
X308609700Y-23038300D01*
X303723200Y-23480800D02*
X308167200Y-23480800D01*
X302275200Y-22032800D02*
X303723200Y-23480800D01*
X302275200Y-19338600D02*
X302275200Y-22032800D01*
X302250000Y-19179679D02*
X302325126Y-19254805D01*
X302325126Y-19254805D02*
X302325126Y-19254951D01*
X302325126Y-19254951D02*
X302325063Y-19338637D01*
X302250000Y-18750000D02*
X302250000Y-19179679D01*
X132568500Y-37739100D02*
X132568500Y-38906400D01*
X132568500Y-38906400D02*
X130750000Y-40724900D01*
X145038000Y-78824900D02*
X145038000Y-68816700D01*
X145038000Y-68816700D02*
X137146300Y-60925000D01*
X137146300Y-60925000D02*
X136987100Y-60925000D01*
X135512000Y-59774900D02*
X130407100Y-54670000D01*
X130407100Y-54670000D02*
X130407100Y-44939800D01*
X130407100Y-44939800D02*
X130831800Y-44515100D01*
X130831800Y-44515100D02*
X130831800Y-43106900D01*
X130831800Y-43106900D02*
X130750000Y-43025100D01*
X283150000Y-22825000D02*
X283150000Y-23975100D01*
X270133300Y-34681500D02*
X276283800Y-34681500D01*
X276283800Y-34681500D02*
X282348500Y-28616800D01*
X282348500Y-28616800D02*
X282348500Y-24776600D01*
X282348500Y-24776600D02*
X283150000Y-23975100D01*
X265373000Y-39712400D02*
X265645000Y-39712400D01*
X265645000Y-39712400D02*
X267711500Y-37645900D01*
X130750000Y-41875000D02*
X130750000Y-40724900D01*
X306799100Y-34971700D02*
X302200000Y-39570800D01*
X302200000Y-39570800D02*
X302200000Y-78824900D01*
X135512000Y-60925000D02*
X135512000Y-59774900D01*
X130750000Y-41875000D02*
X130750000Y-43025100D01*
X306799100Y-34971700D02*
X304589300Y-32761900D01*
X304589300Y-32761900D02*
X304589300Y-32731400D01*
X304589300Y-32731400D02*
X304589200Y-32731400D01*
X302200000Y-79975000D02*
X302200000Y-78824900D01*
X302200000Y-80550000D02*
X302200000Y-79975000D01*
X302200000Y-80550000D02*
X302200000Y-81125100D01*
X302200000Y-99025000D02*
X302200000Y-97874900D01*
X302200000Y-81125100D02*
X301844700Y-81480400D01*
X301844700Y-81480400D02*
X301844700Y-97519600D01*
X301844700Y-97519600D02*
X302200000Y-97874900D01*
X145038000Y-79975000D02*
X145038000Y-78824900D01*
X135512000Y-60925000D02*
X136987100Y-60925000D01*
X216390800Y-93731100D02*
X215638100Y-92978400D01*
X215638100Y-92978400D02*
X180456800Y-92978400D01*
X180456800Y-92978400D02*
X167453400Y-79975000D01*
X167453400Y-79975000D02*
X164088000Y-79975000D01*
X154562000Y-59774900D02*
X157741900Y-56595000D01*
X157741900Y-56595000D02*
X157741900Y-48341800D01*
X157741900Y-48341800D02*
X151275100Y-41875000D01*
X321250000Y-97874900D02*
X332222000Y-86902900D01*
X332222000Y-86902900D02*
X332222000Y-67928200D01*
X332222000Y-67928200D02*
X330850000Y-66556200D01*
X152222600Y-37739100D02*
X152222600Y-38302300D01*
X152222600Y-38302300D02*
X149800000Y-40724900D01*
X149800000Y-41875000D02*
X149800000Y-40724900D01*
X321250000Y-99025000D02*
X321250000Y-97874900D01*
X149800000Y-41875000D02*
X151275100Y-41875000D01*
X154562000Y-60925000D02*
X154562000Y-59774900D01*
X154562000Y-60925000D02*
X156037100Y-60925000D01*
X156037100Y-60925000D02*
X164088000Y-68975900D01*
X164088000Y-68975900D02*
X164088000Y-79975000D01*
X330215000Y-46181700D02*
X330215000Y-49815200D01*
X328250000Y-51780200D02*
X328250000Y-61000000D01*
X313905400Y-46640800D02*
X315023400Y-45522800D01*
X330215000Y-49815200D02*
X328250000Y-51780200D01*
X329556100Y-45522800D02*
X330215000Y-46181700D01*
X315023400Y-45522800D02*
X329556100Y-45522800D01*
X171886700Y-41875000D02*
X171886700Y-43534100D01*
X171886700Y-43534100D02*
X174376400Y-46023800D01*
X174376400Y-46023800D02*
X174376400Y-59010500D01*
X174376400Y-59010500D02*
X173612000Y-59774900D01*
X171886700Y-37739100D02*
X171886700Y-41875000D01*
X170325100Y-41875000D02*
X171886700Y-41875000D01*
X168850000Y-41875000D02*
X170325100Y-41875000D01*
X160800100Y-22825000D02*
X165602100Y-27627000D01*
X159325000Y-22825000D02*
X160800100Y-22825000D01*
X173612000Y-60925000D02*
X173612000Y-59774900D01*
X173612000Y-62075100D02*
X170820300Y-64866800D01*
X170820300Y-64866800D02*
X170820300Y-72267400D01*
X170820300Y-72267400D02*
X178527900Y-79975000D01*
X178527900Y-79975000D02*
X183138000Y-79975000D01*
X173612000Y-60925000D02*
X173612000Y-62075100D01*
X329125400Y-44100800D02*
X329159200Y-44100800D01*
X329125400Y-46640800D02*
X321924800Y-53841400D01*
X321924800Y-53841400D02*
X321924800Y-65981400D01*
X321924800Y-65981400D02*
X316350000Y-71556200D01*
X333375000Y-41993800D02*
X333375000Y-41724200D01*
X333375000Y-41724200D02*
X329401600Y-37750800D01*
X329401600Y-37750800D02*
X325335400Y-37750800D01*
X325335400Y-37750800D02*
X313905400Y-26320800D01*
M02*
