M48
; DRILL file {KiCad (5.1.12)-1} date 09/29/23 20:02:53
; FORMAT={-:-/ absolute / metric / decimal}
; #@! TF.CreationDate,2023-09-29T20:02:53+09:00
; #@! TF.GenerationSoftware,Kicad,Pcbnew,(5.1.12)-1
; #@! TF.FileFunction,Plated,1,2,PTH
FMAT,2
METRIC
T1C0.400
T2C0.650
T3C0.800
T4C0.813
T5C1.000
T6C1.300
T7C2.000
%
G90
G05
T1
X23.068Y-75.275
X23.25Y-32.5
X25.75Y-108.75
X27.25Y-51.75
X29.25Y-70.5
X29.385Y-48.067
X35.0Y-89.75
X36.869Y-37.735
X40.378Y-72.751
X41.75Y-32.75
X48.0Y-108.75
X50.75Y-51.5
X51.638Y-36.978
X52.251Y-102.585
X52.466Y-53.654
X56.0Y-70.75
X56.212Y-92.016
X56.538Y-37.739
X57.249Y-71.843
X60.073Y-45.401
X60.75Y-32.75
X63.04Y-83.196
X64.832Y-64.272
X65.25Y-89.75
X66.762Y-91.982
X70.75Y-52.0
X72.181Y-47.64
X72.25Y-109.0
X73.6Y-51.637
X73.904Y-110.019
X74.603Y-83.517
X74.646Y-37.722
X75.5Y-70.5
X75.973Y-37.735
X76.287Y-101.823
X79.089Y-59.473
X79.75Y-32.25
X81.027Y-53.915
X84.0Y-89.75
X84.58Y-90.641
X84.878Y-69.677
X87.525Y-53.907
X88.12Y-56.355
X88.75Y-51.5
X89.585Y-37.739
X91.901Y-44.81
X92.959Y-37.471
X93.25Y-70.75
X95.267Y-92.004
X95.341Y-71.669
X97.75Y-32.5
X102.175Y-32.587
X103.75Y-90.0
X107.781Y-51.469
X108.637Y-37.008
X109.015Y-53.654
X112.972Y-37.735
X113.0Y-71.0
X113.011Y-84.323
X115.021Y-64.467
X116.833Y-50.618
X117.25Y-32.5
X122.0Y-89.75
X123.74Y-72.935
X123.74Y-90.605
X126.881Y-37.713
X127.5Y-51.75
X128.659Y-53.898
X130.107Y-44.215
X132.5Y-70.75
X132.569Y-37.739
X133.433Y-71.949
X136.0Y-32.75
X141.25Y-90.0
X141.327Y-66.16
X142.75Y-108.75
X142.975Y-91.53
X145.038Y-89.737
X145.253Y-111.045
X145.469Y-51.469
X147.142Y-52.346
X150.126Y-37.507
X150.648Y-87.252
X150.75Y-70.75
X152.131Y-71.794
X152.223Y-37.739
X155.5Y-32.5
X156.936Y-50.858
X160.5Y-89.75
X161.765Y-72.911
X161.765Y-83.674
X165.5Y-51.75
X165.602Y-27.627
X166.167Y-37.014
X166.649Y-53.898
X170.0Y-70.75
X170.2Y-60.03
X171.552Y-71.973
X171.887Y-37.739
X172.007Y-90.794
X172.8Y-29.8
X174.425Y-28.175
X175.111Y-45.77
X175.25Y-33.25
X179.5Y-89.75
X183.719Y-51.719
X184.579Y-37.007
X184.915Y-53.654
X188.533Y-37.738
X188.77Y-83.763
X189.0Y-70.75
X190.533Y-71.843
X193.75Y-33.25
X195.154Y-51.977
X198.5Y-89.75
X199.819Y-90.62
X199.869Y-71.469
X200.58Y-110.486
X202.719Y-51.969
X203.606Y-37.738
X204.001Y-53.907
X205.819Y-45.435
X206.662Y-68.091
X207.75Y-70.75
X208.599Y-37.739
X208.763Y-72.965
X211.931Y-33.337
X214.626Y-21.323
X215.5Y-108.5
X216.378Y-86.76
X216.391Y-93.731
X218.25Y-89.75
X219.164Y-92.014
X221.456Y-51.456
X222.333Y-36.597
X224.165Y-102.577
X225.337Y-44.416
X225.75Y-71.0
X226.468Y-37.113
X230.981Y-33.337
X232.843Y-60.299
X233.354Y-53.898
X235.5Y-90.0
X235.859Y-37.735
X238.223Y-90.873
X238.75Y-109.0
X238.965Y-70.845
X239.647Y-40.671
X240.506Y-50.006
X240.607Y-109.869
X242.669Y-108.788
X242.971Y-53.898
X245.269Y-71.438
X247.758Y-71.803
X247.789Y-37.735
X248.072Y-90.794
X249.072Y-42.678
X250.031Y-35.719
X250.823Y-63.721
X251.197Y-44.803
X254.794Y-90.487
X257.261Y-91.188
X257.426Y-53.023
X258.396Y-48.672
X258.704Y-53.804
X258.894Y-82.422
X259.556Y-52.387
X259.556Y-109.538
X261.692Y-52.505
X263.607Y-37.735
X264.816Y-37.735
X265.373Y-39.712
X265.444Y-77.599
X267.712Y-37.646
X267.712Y-55.884
X269.767Y-102.573
X270.133Y-34.681
X271.366Y-51.637
X272.972Y-86.06
X273.844Y-90.487
X275.552Y-75.309
X276.225Y-71.438
X277.489Y-72.901
X278.606Y-35.719
X278.606Y-109.538
X279.779Y-37.735
X280.612Y-79.702
X282.289Y-104.353
X282.5Y-39.876
X283.369Y-52.387
X287.675Y-91.999
X288.13Y-72.599
X297.656Y-88.106
X297.656Y-107.156
X299.585Y-91.714
X303.546Y-70.166
X304.589Y-32.731
X304.902Y-70.389
X306.799Y-34.972
X307.493Y-56.293
X308.503Y-38.494
X309.516Y-106.672
X309.594Y-23.781
X312.019Y-27.006
X316.706Y-107.156
X316.81Y-78.581
X318.346Y-95.221
X319.176Y-109.967
X328.25Y-61.0
X330.0Y-81.298
X331.754Y-90.569
T4
X313.905Y-18.701
X313.905Y-21.241
X313.905Y-23.781
X313.905Y-26.321
X313.905Y-28.861
X313.905Y-31.401
X313.905Y-33.941
X313.905Y-36.481
X313.905Y-39.021
X313.905Y-41.561
X313.905Y-44.101
X313.905Y-46.641
X313.905Y-49.181
X318.11Y-54.95
X320.65Y-54.95
X323.19Y-54.95
X325.73Y-54.95
X329.125Y-18.701
X329.125Y-21.241
X329.125Y-23.781
X329.125Y-26.321
X329.125Y-28.861
X329.125Y-31.401
X329.125Y-33.941
X329.125Y-36.481
X329.125Y-39.021
X329.125Y-41.561
X329.125Y-44.101
X329.125Y-46.641
X329.125Y-49.181
T5
X316.35Y-66.556
X316.35Y-69.056
X316.35Y-71.556
X330.85Y-66.556
X330.85Y-71.556
T6
X333.375Y-41.994
X333.375Y-48.494
T2
G00X25.65Y-22.825
M15
G01X26.3Y-22.825
M16
G05
G00X28.031Y-99.025
M15
G01X28.681Y-99.025
M16
G05
G00X30.412Y-41.875
M15
G01X31.062Y-41.875
M16
G05
G00X32.975Y-23.55
M15
G01X32.975Y-24.2
M16
G05
G00X32.794Y-60.925
M15
G01X33.444Y-60.925
M16
G05
G00X35.356Y-99.75
M15
G01X35.356Y-100.4
M16
G05
G00X37.737Y-42.6
M15
G01X37.737Y-43.25
M16
G05
G00X37.556Y-79.975
M15
G01X38.206Y-79.975
M16
G05
G00X40.119Y-61.65
M15
G01X40.119Y-62.3
M16
G05
G00X44.881Y-80.7
M15
G01X44.881Y-81.35
M16
G05
G00X44.7Y-22.825
M15
G01X45.35Y-22.825
M16
G05
G00X52.025Y-23.55
M15
G01X52.025Y-24.2
M16
G05
G00X51.844Y-99.025
M15
G01X52.494Y-99.025
M16
G05
G00X54.225Y-41.875
M15
G01X54.875Y-41.875
M16
G05
G00X59.169Y-99.75
M15
G01X59.169Y-100.4
M16
G05
G00X58.987Y-60.925
M15
G01X59.637Y-60.925
M16
G05
G00X61.55Y-42.6
M15
G01X61.55Y-43.25
M16
G05
G00X63.75Y-22.825
M15
G01X64.4Y-22.825
M16
G05
G00X66.312Y-61.65
M15
G01X66.312Y-62.3
M16
G05
G00X68.513Y-79.975
M15
G01X69.162Y-79.975
M16
G05
G00X71.075Y-23.55
M15
G01X71.075Y-24.2
M16
G05
G00X73.275Y-41.875
M15
G01X73.925Y-41.875
M16
G05
G00X75.837Y-80.7
M15
G01X75.837Y-81.35
M16
G05
G00X75.656Y-99.025
M15
G01X76.306Y-99.025
M16
G05
G00X78.037Y-60.925
M15
G01X78.688Y-60.925
M16
G05
G00X80.6Y-42.6
M15
G01X80.6Y-43.25
M16
G05
G00X82.981Y-99.75
M15
G01X82.981Y-100.4
M16
G05
G00X82.8Y-22.825
M15
G01X83.45Y-22.825
M16
G05
G00X85.362Y-61.65
M15
G01X85.362Y-62.3
M16
G05
G00X87.562Y-79.975
M15
G01X88.212Y-79.975
M16
G05
G00X90.125Y-23.55
M15
G01X90.125Y-24.2
M16
G05
G00X92.325Y-41.875
M15
G01X92.975Y-41.875
M16
G05
G00X94.887Y-80.7
M15
G01X94.887Y-81.35
M16
G05
G00X97.087Y-60.925
M15
G01X97.737Y-60.925
M16
G05
G00X99.65Y-42.6
M15
G01X99.65Y-43.25
M16
G05
G00X101.85Y-22.825
M15
G01X102.5Y-22.825
M16
G05
G00X104.412Y-61.65
M15
G01X104.412Y-62.3
M16
G05
G00X106.613Y-79.975
M15
G01X107.263Y-79.975
M16
G05
G00X109.175Y-23.55
M15
G01X109.175Y-24.2
M16
G05
G00X111.375Y-41.875
M15
G01X112.025Y-41.875
M16
G05
G00X113.938Y-80.7
M15
G01X113.938Y-81.35
M16
G05
G00X116.137Y-60.925
M15
G01X116.787Y-60.925
M16
G05
G00X118.7Y-42.6
M15
G01X118.7Y-43.25
M16
G05
G00X120.9Y-22.825
M15
G01X121.55Y-22.825
M16
G05
G00X123.462Y-61.65
M15
G01X123.462Y-62.3
M16
G05
G00X125.663Y-79.975
M15
G01X126.313Y-79.975
M16
G05
G00X128.225Y-23.55
M15
G01X128.225Y-24.2
M16
G05
G00X130.425Y-41.875
M15
G01X131.075Y-41.875
M16
G05
G00X132.988Y-80.7
M15
G01X132.988Y-81.35
M16
G05
G00X135.187Y-60.925
M15
G01X135.837Y-60.925
M16
G05
G00X137.75Y-42.6
M15
G01X137.75Y-43.25
M16
G05
G00X139.95Y-22.825
M15
G01X140.6Y-22.825
M16
G05
G00X142.512Y-61.65
M15
G01X142.512Y-62.3
M16
G05
G00X144.713Y-79.975
M15
G01X145.363Y-79.975
M16
G05
G00X147.275Y-23.55
M15
G01X147.275Y-24.2
M16
G05
G00X147.094Y-99.025
M15
G01X147.744Y-99.025
M16
G05
G00X149.475Y-41.875
M15
G01X150.125Y-41.875
M16
G05
G00X152.038Y-80.7
M15
G01X152.038Y-81.35
M16
G05
G00X154.419Y-99.75
M15
G01X154.419Y-100.4
M16
G05
G00X154.237Y-60.925
M15
G01X154.887Y-60.925
M16
G05
G00X156.8Y-42.6
M15
G01X156.8Y-43.25
M16
G05
G00X159.0Y-22.825
M15
G01X159.65Y-22.825
M16
G05
G00X161.562Y-61.65
M15
G01X161.562Y-62.3
M16
G05
G00X163.763Y-79.975
M15
G01X164.413Y-79.975
M16
G05
G00X166.325Y-23.55
M15
G01X166.325Y-24.2
M16
G05
G00X168.525Y-41.875
M15
G01X169.175Y-41.875
M16
G05
G00X171.088Y-80.7
M15
G01X171.088Y-81.35
M16
G05
G00X173.287Y-60.925
M15
G01X173.937Y-60.925
M16
G05
G00X175.85Y-42.6
M15
G01X175.85Y-43.25
M16
G05
G00X178.05Y-22.825
M15
G01X178.7Y-22.825
M16
G05
G00X180.612Y-61.65
M15
G01X180.612Y-62.3
M16
G05
G00X182.813Y-79.975
M15
G01X183.463Y-79.975
M16
G05
G00X185.375Y-23.55
M15
G01X185.375Y-24.2
M16
G05
G00X187.575Y-41.875
M15
G01X188.225Y-41.875
M16
G05
G00X190.138Y-80.7
M15
G01X190.138Y-81.35
M16
G05
G00X192.337Y-60.925
M15
G01X192.987Y-60.925
M16
G05
G00X194.9Y-42.6
M15
G01X194.9Y-43.25
M16
G05
G00X197.1Y-22.825
M15
G01X197.75Y-22.825
M16
G05
G00X199.662Y-61.65
M15
G01X199.662Y-62.3
M16
G05
G00X201.863Y-79.975
M15
G01X202.513Y-79.975
M16
G05
G00X204.425Y-23.55
M15
G01X204.425Y-24.2
M16
G05
G00X206.625Y-41.875
M15
G01X207.275Y-41.875
M16
G05
G00X209.188Y-80.7
M15
G01X209.188Y-81.35
M16
G05
G00X211.387Y-60.925
M15
G01X212.037Y-60.925
M16
G05
G00X213.95Y-42.6
M15
G01X213.95Y-43.25
M16
G05
G00X216.15Y-22.825
M15
G01X216.8Y-22.825
M16
G05
G00X218.712Y-61.65
M15
G01X218.712Y-62.3
M16
G05
G00X218.531Y-99.025
M15
G01X219.181Y-99.025
M16
G05
G00X220.913Y-79.975
M15
G01X221.563Y-79.975
M16
G05
G00X223.475Y-23.55
M15
G01X223.475Y-24.2
M16
G05
G00X225.856Y-99.75
M15
G01X225.856Y-100.4
M16
G05
G00X225.675Y-41.875
M15
G01X226.325Y-41.875
M16
G05
G00X228.238Y-80.7
M15
G01X228.238Y-81.35
M16
G05
G00X230.437Y-60.925
M15
G01X231.087Y-60.925
M16
G05
G00X233.0Y-42.6
M15
G01X233.0Y-43.25
M16
G05
G00X235.2Y-22.825
M15
G01X235.85Y-22.825
M16
G05
G00X237.762Y-61.65
M15
G01X237.762Y-62.3
M16
G05
G00X239.963Y-79.975
M15
G01X240.613Y-79.975
M16
G05
G00X242.525Y-23.55
M15
G01X242.525Y-24.2
M16
G05
G00X242.344Y-99.025
M15
G01X242.994Y-99.025
M16
G05
G00X244.725Y-41.875
M15
G01X245.375Y-41.875
M16
G05
G00X247.288Y-80.7
M15
G01X247.288Y-81.35
M16
G05
G00X249.669Y-99.75
M15
G01X249.669Y-100.4
M16
G05
G00X249.487Y-60.925
M15
G01X250.137Y-60.925
M16
G05
G00X252.05Y-42.6
M15
G01X252.05Y-43.25
M16
G05
G00X254.25Y-22.825
M15
G01X254.9Y-22.825
M16
G05
G00X256.812Y-61.65
M15
G01X256.812Y-62.3
M16
G05
G00X259.013Y-79.975
M15
G01X259.663Y-79.975
M16
G05
G00X261.575Y-23.55
M15
G01X261.575Y-24.2
M16
G05
G00X263.775Y-41.875
M15
G01X264.425Y-41.875
M16
G05
G00X263.775Y-99.025
M15
G01X264.425Y-99.025
M16
G05
G00X266.338Y-80.7
M15
G01X266.338Y-81.35
M16
G05
G00X271.1Y-42.6
M15
G01X271.1Y-43.25
M16
G05
G00X271.1Y-99.75
M15
G01X271.1Y-100.4
M16
G05
G00X278.063Y-79.975
M15
G01X278.713Y-79.975
M16
G05
G00X280.444Y-60.925
M15
G01X281.094Y-60.925
M16
G05
G00X282.825Y-22.825
M15
G01X283.475Y-22.825
M16
G05
G00X282.825Y-99.025
M15
G01X283.475Y-99.025
M16
G05
G00X285.388Y-80.7
M15
G01X285.388Y-81.35
M16
G05
G00X287.769Y-61.65
M15
G01X287.769Y-62.3
M16
G05
G00X287.587Y-41.875
M15
G01X288.237Y-41.875
M16
G05
G00X290.15Y-23.55
M15
G01X290.15Y-24.2
M16
G05
G00X290.15Y-99.75
M15
G01X290.15Y-100.4
M16
G05
G00X294.912Y-42.6
M15
G01X294.912Y-43.25
M16
G05
G00X301.875Y-79.975
M15
G01X302.525Y-79.975
M16
G05
G00X301.875Y-99.025
M15
G01X302.525Y-99.025
M16
G05
G00X309.2Y-80.7
M15
G01X309.2Y-81.35
M16
G05
G00X309.2Y-99.75
M15
G01X309.2Y-100.4
M16
G05
G00X320.925Y-99.025
M15
G01X321.575Y-99.025
M16
G05
G00X328.25Y-99.75
M15
G01X328.25Y-100.4
M16
G05
T3
G00X321.35Y-83.394
M15
G01X321.35Y-83.394
M16
G05
G00X323.85Y-83.394
M15
G01X323.85Y-83.394
M16
G05
G00X326.35Y-83.394
M15
G01X326.35Y-83.394
M16
G05
T7
G00X323.45Y-63.456
M15
G01X324.25Y-63.456
M16
G05
G00X323.45Y-74.656
M15
G01X324.25Y-74.656
M16
G05
T0
M30
