<?xml version="1.0" standalone="no"?>
 <!DOCTYPE svg PUBLIC "-//W3C//DTD SVG 1.1//EN" 
 "http://www.w3.org/Graphics/SVG/1.1/DTD/svg11.dtd"> 
<svg
  xmlns:svg="http://www.w3.org/2000/svg"
  xmlns="http://www.w3.org/2000/svg"
  xmlns:xlink="http://www.w3.org/1999/xlink"
  version="1.1"
  width="41.998900cm" height="29.700220cm" viewBox="0 0 165350 116930">
<title>SVG Picture created as JTNK66L-Edge_Cuts.svg date 2023/09/29 20:14:40 </title>
  <desc>Picture generated by PCBNEW </desc>
<g style="fill:#000000; fill-opacity:1;stroke:#000000; stroke-opacity:1;
stroke-linecap:round; stroke-linejoin:round;"
 transform="translate(0 0) scale(1 1)">
</g>
<g style="fill:#000000; fill-opacity:0.0; 
stroke:#000000; stroke-width:-0.000393701; stroke-opacity:1; 
stroke-linecap:round; stroke-linejoin:round;">
</g>
<g style="fill:#000000; fill-opacity:0.0; 
stroke:#000000; stroke-width:39.3701; stroke-opacity:1; 
stroke-linecap:round; stroke-linejoin:round;">
</g>
<g style="fill:#000000; fill-opacity:0.0; 
stroke:#000000; stroke-width:59.0551; stroke-opacity:1; 
stroke-linecap:round; stroke-linejoin:round;">
<rect x="118106" y="99607.2" width="42519.7" height="12598.4" rx="0" />
</g>
<g style="fill:#000000; fill-opacity:0.0; 
stroke:#000000; stroke-width:39.3701; stroke-opacity:1; 
stroke-linecap:round; stroke-linejoin:round;">
</g>
<g style="fill:#000000; fill-opacity:0.0; 
stroke:#000000; stroke-width:59.0551; stroke-opacity:1; 
stroke-linecap:round; stroke-linejoin:round;">
<rect x="3937.01" y="3937.01" width="157476" height="109056" rx="0" />
</g>
<g style="fill:#000000; fill-opacity:0.0; 
stroke:#000000; stroke-width:39.3701; stroke-opacity:1; 
stroke-linecap:round; stroke-linejoin:round;">
</g>
<g style="fill:#000000; fill-opacity:0.0; 
stroke:#000000; stroke-width:59.0551; stroke-opacity:1; 
stroke-linecap:round; stroke-linejoin:round;">
<rect x="4724.41" y="4724.41" width="155901" height="107481" rx="0" />
</g>
<g style="fill:#000000; fill-opacity:0.0; 
stroke:#000000; stroke-width:39.3701; stroke-opacity:1; 
stroke-linecap:round; stroke-linejoin:round;">
</g>
<g style="fill:#000000; fill-opacity:0.0; 
stroke:#000000; stroke-width:59.0551; stroke-opacity:1; 
stroke-linecap:round; stroke-linejoin:round;">
<path d="M23622 4724
L23622 3937
" />
</g>
<g style="fill:#000000; fill-opacity:0.0; 
stroke:#000000; stroke-width:39.3701; stroke-opacity:1; 
stroke-linecap:round; stroke-linejoin:round;">
</g>
<g style="fill:#000000; fill-opacity:0.0; 
stroke:#000000; stroke-width:59.0551; stroke-opacity:1; 
stroke-linecap:round; stroke-linejoin:round;">
<path d="M43307 4724
L43307 3937
" />
</g>
<g style="fill:#000000; fill-opacity:0.0; 
stroke:#000000; stroke-width:39.3701; stroke-opacity:1; 
stroke-linecap:round; stroke-linejoin:round;">
</g>
<g style="fill:#000000; fill-opacity:0.0; 
stroke:#000000; stroke-width:59.0551; stroke-opacity:1; 
stroke-linecap:round; stroke-linejoin:round;">
<path d="M62992 4724
L62992 3937
" />
</g>
<g style="fill:#000000; fill-opacity:0.0; 
stroke:#000000; stroke-width:39.3701; stroke-opacity:1; 
stroke-linecap:round; stroke-linejoin:round;">
</g>
<g style="fill:#000000; fill-opacity:0.0; 
stroke:#000000; stroke-width:59.0551; stroke-opacity:1; 
stroke-linecap:round; stroke-linejoin:round;">
<path d="M82677 4724
L82677 3937
" />
</g>
<g style="fill:#000000; fill-opacity:0.0; 
stroke:#000000; stroke-width:39.3701; stroke-opacity:1; 
stroke-linecap:round; stroke-linejoin:round;">
</g>
<g style="fill:#000000; fill-opacity:0.0; 
stroke:#000000; stroke-width:59.0551; stroke-opacity:1; 
stroke-linecap:round; stroke-linejoin:round;">
<path d="M102362 4724
L102362 3937
" />
</g>
<g style="fill:#000000; fill-opacity:0.0; 
stroke:#000000; stroke-width:39.3701; stroke-opacity:1; 
stroke-linecap:round; stroke-linejoin:round;">
</g>
<g style="fill:#000000; fill-opacity:0.0; 
stroke:#000000; stroke-width:59.0551; stroke-opacity:1; 
stroke-linecap:round; stroke-linejoin:round;">
<path d="M122047 4724
L122047 3937
" />
</g>
<g style="fill:#000000; fill-opacity:0.0; 
stroke:#000000; stroke-width:39.3701; stroke-opacity:1; 
stroke-linecap:round; stroke-linejoin:round;">
</g>
<g style="fill:#000000; fill-opacity:0.0; 
stroke:#000000; stroke-width:59.0551; stroke-opacity:1; 
stroke-linecap:round; stroke-linejoin:round;">
<path d="M141732 4724
L141732 3937
" />
</g>
<g style="fill:#000000; fill-opacity:0.0; 
stroke:#000000; stroke-width:39.3701; stroke-opacity:1; 
stroke-linecap:round; stroke-linejoin:round;">
</g>
<g style="fill:#000000; fill-opacity:0.0; 
stroke:#000000; stroke-width:59.0551; stroke-opacity:1; 
stroke-linecap:round; stroke-linejoin:round;">
<text x="13779.5" y="4586.61"
textLength="487.439" font-size="682.415" lengthAdjust="spacingAndGlyphs"
text-anchor="start" opacity="0">1</text>
<path d="M14199 4562
L13906 4562
" />
<path d="M14052 4562
L14052 4050
L14004 4123
L13955 4172
L13906 4196
" />
</g>
<g style="fill:#000000; fill-opacity:0.0; 
stroke:#000000; stroke-width:39.3701; stroke-opacity:1; 
stroke-linecap:round; stroke-linejoin:round;">
</g>
<g style="fill:#000000; fill-opacity:0.0; 
stroke:#000000; stroke-width:59.0551; stroke-opacity:1; 
stroke-linecap:round; stroke-linejoin:round;">
<text x="33464.6" y="4586.61"
textLength="546.494" font-size="682.415" lengthAdjust="spacingAndGlyphs"
text-anchor="start" opacity="0">2</text>
<path d="M33591 4099
L33615 4074
L33664 4050
L33786 4050
L33835 4074
L33859 4099
L33884 4147
L33884 4196
L33859 4269
L33567 4562
L33884 4562
" />
</g>
<g style="fill:#000000; fill-opacity:0.0; 
stroke:#000000; stroke-width:39.3701; stroke-opacity:1; 
stroke-linecap:round; stroke-linejoin:round;">
</g>
<g style="fill:#000000; fill-opacity:0.0; 
stroke:#000000; stroke-width:59.0551; stroke-opacity:1; 
stroke-linecap:round; stroke-linejoin:round;">
<text x="53149.6" y="4586.61"
textLength="546.494" font-size="682.415" lengthAdjust="spacingAndGlyphs"
text-anchor="start" opacity="0">3</text>
<path d="M53252 4050
L53569 4050
L53398 4245
L53471 4245
L53520 4269
L53544 4294
L53569 4342
L53569 4464
L53544 4513
L53520 4537
L53471 4562
L53325 4562
L53276 4537
L53252 4513
" />
</g>
<g style="fill:#000000; fill-opacity:0.0; 
stroke:#000000; stroke-width:39.3701; stroke-opacity:1; 
stroke-linecap:round; stroke-linejoin:round;">
</g>
<g style="fill:#000000; fill-opacity:0.0; 
stroke:#000000; stroke-width:59.0551; stroke-opacity:1; 
stroke-linecap:round; stroke-linejoin:round;">
<text x="72834.6" y="4586.61"
textLength="546.494" font-size="682.415" lengthAdjust="spacingAndGlyphs"
text-anchor="start" opacity="0">4</text>
<path d="M73205 4221
L73205 4562
" />
<path d="M73083 4026
L72961 4391
L73278 4391
" />
</g>
<g style="fill:#000000; fill-opacity:0.0; 
stroke:#000000; stroke-width:39.3701; stroke-opacity:1; 
stroke-linecap:round; stroke-linejoin:round;">
</g>
<g style="fill:#000000; fill-opacity:0.0; 
stroke:#000000; stroke-width:59.0551; stroke-opacity:1; 
stroke-linecap:round; stroke-linejoin:round;">
<text x="92519.7" y="4586.61"
textLength="546.494" font-size="682.415" lengthAdjust="spacingAndGlyphs"
text-anchor="start" opacity="0">5</text>
<path d="M92914 4050
L92671 4050
L92646 4294
L92671 4269
L92719 4245
L92841 4245
L92890 4269
L92914 4294
L92939 4342
L92939 4464
L92914 4513
L92890 4537
L92841 4562
L92719 4562
L92671 4537
L92646 4513
" />
</g>
<g style="fill:#000000; fill-opacity:0.0; 
stroke:#000000; stroke-width:39.3701; stroke-opacity:1; 
stroke-linecap:round; stroke-linejoin:round;">
</g>
<g style="fill:#000000; fill-opacity:0.0; 
stroke:#000000; stroke-width:59.0551; stroke-opacity:1; 
stroke-linecap:round; stroke-linejoin:round;">
<text x="112205" y="4586.61"
textLength="546.494" font-size="682.415" lengthAdjust="spacingAndGlyphs"
text-anchor="start" opacity="0">6</text>
<path d="M112575 4050
L112477 4050
L112429 4074
L112404 4099
L112356 4172
L112331 4269
L112331 4464
L112356 4513
L112380 4537
L112429 4562
L112526 4562
L112575 4537
L112599 4513
L112624 4464
L112624 4342
L112599 4294
L112575 4269
L112526 4245
L112429 4245
L112380 4269
L112356 4294
L112331 4342
" />
</g>
<g style="fill:#000000; fill-opacity:0.0; 
stroke:#000000; stroke-width:39.3701; stroke-opacity:1; 
stroke-linecap:round; stroke-linejoin:round;">
</g>
<g style="fill:#000000; fill-opacity:0.0; 
stroke:#000000; stroke-width:59.0551; stroke-opacity:1; 
stroke-linecap:round; stroke-linejoin:round;">
<text x="131890" y="4586.61"
textLength="546.494" font-size="682.415" lengthAdjust="spacingAndGlyphs"
text-anchor="start" opacity="0">7</text>
<path d="M131992 4050
L132333 4050
L132114 4562
" />
</g>
<g style="fill:#000000; fill-opacity:0.0; 
stroke:#000000; stroke-width:39.3701; stroke-opacity:1; 
stroke-linecap:round; stroke-linejoin:round;">
</g>
<g style="fill:#000000; fill-opacity:0.0; 
stroke:#000000; stroke-width:59.0551; stroke-opacity:1; 
stroke-linecap:round; stroke-linejoin:round;">
<text x="151575" y="4586.61"
textLength="546.494" font-size="682.415" lengthAdjust="spacingAndGlyphs"
text-anchor="start" opacity="0">8</text>
<path d="M151799 4269
L151750 4245
L151726 4221
L151701 4172
L151701 4147
L151726 4099
L151750 4074
L151799 4050
L151896 4050
L151945 4074
L151969 4099
L151994 4147
L151994 4172
L151969 4221
L151945 4245
L151896 4269
L151799 4269
L151750 4294
L151726 4318
L151701 4367
L151701 4464
L151726 4513
L151750 4537
L151799 4562
L151896 4562
L151945 4537
L151969 4513
L151994 4464
L151994 4367
L151969 4318
L151945 4294
L151896 4269
" />
</g>
<g style="fill:#000000; fill-opacity:0.0; 
stroke:#000000; stroke-width:39.3701; stroke-opacity:1; 
stroke-linecap:round; stroke-linejoin:round;">
</g>
<g style="fill:#000000; fill-opacity:0.0; 
stroke:#000000; stroke-width:59.0551; stroke-opacity:1; 
stroke-linecap:round; stroke-linejoin:round;">
<path d="M23622 112205
L23622 112992
" />
</g>
<g style="fill:#000000; fill-opacity:0.0; 
stroke:#000000; stroke-width:39.3701; stroke-opacity:1; 
stroke-linecap:round; stroke-linejoin:round;">
</g>
<g style="fill:#000000; fill-opacity:0.0; 
stroke:#000000; stroke-width:59.0551; stroke-opacity:1; 
stroke-linecap:round; stroke-linejoin:round;">
<path d="M43307 112205
L43307 112992
" />
</g>
<g style="fill:#000000; fill-opacity:0.0; 
stroke:#000000; stroke-width:39.3701; stroke-opacity:1; 
stroke-linecap:round; stroke-linejoin:round;">
</g>
<g style="fill:#000000; fill-opacity:0.0; 
stroke:#000000; stroke-width:59.0551; stroke-opacity:1; 
stroke-linecap:round; stroke-linejoin:round;">
<path d="M62992 112205
L62992 112992
" />
</g>
<g style="fill:#000000; fill-opacity:0.0; 
stroke:#000000; stroke-width:39.3701; stroke-opacity:1; 
stroke-linecap:round; stroke-linejoin:round;">
</g>
<g style="fill:#000000; fill-opacity:0.0; 
stroke:#000000; stroke-width:59.0551; stroke-opacity:1; 
stroke-linecap:round; stroke-linejoin:round;">
<path d="M82677 112205
L82677 112992
" />
</g>
<g style="fill:#000000; fill-opacity:0.0; 
stroke:#000000; stroke-width:39.3701; stroke-opacity:1; 
stroke-linecap:round; stroke-linejoin:round;">
</g>
<g style="fill:#000000; fill-opacity:0.0; 
stroke:#000000; stroke-width:59.0551; stroke-opacity:1; 
stroke-linecap:round; stroke-linejoin:round;">
<path d="M102362 112205
L102362 112992
" />
</g>
<g style="fill:#000000; fill-opacity:0.0; 
stroke:#000000; stroke-width:39.3701; stroke-opacity:1; 
stroke-linecap:round; stroke-linejoin:round;">
</g>
<g style="fill:#000000; fill-opacity:0.0; 
stroke:#000000; stroke-width:59.0551; stroke-opacity:1; 
stroke-linecap:round; stroke-linejoin:round;">
<path d="M122047 112205
L122047 112992
" />
</g>
<g style="fill:#000000; fill-opacity:0.0; 
stroke:#000000; stroke-width:39.3701; stroke-opacity:1; 
stroke-linecap:round; stroke-linejoin:round;">
</g>
<g style="fill:#000000; fill-opacity:0.0; 
stroke:#000000; stroke-width:59.0551; stroke-opacity:1; 
stroke-linecap:round; stroke-linejoin:round;">
<path d="M141732 112205
L141732 112992
" />
</g>
<g style="fill:#000000; fill-opacity:0.0; 
stroke:#000000; stroke-width:39.3701; stroke-opacity:1; 
stroke-linecap:round; stroke-linejoin:round;">
</g>
<g style="fill:#000000; fill-opacity:0.0; 
stroke:#000000; stroke-width:59.0551; stroke-opacity:1; 
stroke-linecap:round; stroke-linejoin:round;">
<text x="13779.5" y="112855"
textLength="546.494" font-size="682.415" lengthAdjust="spacingAndGlyphs"
text-anchor="start" opacity="0">1</text>
<path d="M14199 112830
L13906 112830
" />
<path d="M14052 112830
L14052 112319
L14004 112392
L13955 112440
L13906 112465
" />
</g>
<g style="fill:#000000; fill-opacity:0.0; 
stroke:#000000; stroke-width:39.3701; stroke-opacity:1; 
stroke-linecap:round; stroke-linejoin:round;">
</g>
<g style="fill:#000000; fill-opacity:0.0; 
stroke:#000000; stroke-width:59.0551; stroke-opacity:1; 
stroke-linecap:round; stroke-linejoin:round;">
<text x="33464.6" y="112855"
textLength="546.494" font-size="682.415" lengthAdjust="spacingAndGlyphs"
text-anchor="start" opacity="0">2</text>
<path d="M33591 112367
L33615 112343
L33664 112319
L33786 112319
L33835 112343
L33859 112367
L33884 112416
L33884 112465
L33859 112538
L33567 112830
L33884 112830
" />
</g>
<g style="fill:#000000; fill-opacity:0.0; 
stroke:#000000; stroke-width:39.3701; stroke-opacity:1; 
stroke-linecap:round; stroke-linejoin:round;">
</g>
<g style="fill:#000000; fill-opacity:0.0; 
stroke:#000000; stroke-width:59.0551; stroke-opacity:1; 
stroke-linecap:round; stroke-linejoin:round;">
<text x="53149.6" y="112855"
textLength="546.494" font-size="682.415" lengthAdjust="spacingAndGlyphs"
text-anchor="start" opacity="0">3</text>
<path d="M53252 112319
L53569 112319
L53398 112513
L53471 112513
L53520 112538
L53544 112562
L53569 112611
L53569 112733
L53544 112782
L53520 112806
L53471 112830
L53325 112830
L53276 112806
L53252 112782
" />
</g>
<g style="fill:#000000; fill-opacity:0.0; 
stroke:#000000; stroke-width:39.3701; stroke-opacity:1; 
stroke-linecap:round; stroke-linejoin:round;">
</g>
<g style="fill:#000000; fill-opacity:0.0; 
stroke:#000000; stroke-width:59.0551; stroke-opacity:1; 
stroke-linecap:round; stroke-linejoin:round;">
<text x="72834.6" y="112855"
textLength="546.494" font-size="682.415" lengthAdjust="spacingAndGlyphs"
text-anchor="start" opacity="0">4</text>
<path d="M73205 112489
L73205 112830
" />
<path d="M73083 112294
L72961 112660
L73278 112660
" />
</g>
<g style="fill:#000000; fill-opacity:0.0; 
stroke:#000000; stroke-width:39.3701; stroke-opacity:1; 
stroke-linecap:round; stroke-linejoin:round;">
</g>
<g style="fill:#000000; fill-opacity:0.0; 
stroke:#000000; stroke-width:59.0551; stroke-opacity:1; 
stroke-linecap:round; stroke-linejoin:round;">
<text x="92519.7" y="112855"
textLength="546.494" font-size="682.415" lengthAdjust="spacingAndGlyphs"
text-anchor="start" opacity="0">5</text>
<path d="M92914 112319
L92671 112319
L92646 112562
L92671 112538
L92719 112513
L92841 112513
L92890 112538
L92914 112562
L92939 112611
L92939 112733
L92914 112782
L92890 112806
L92841 112830
L92719 112830
L92671 112806
L92646 112782
" />
</g>
<g style="fill:#000000; fill-opacity:0.0; 
stroke:#000000; stroke-width:39.3701; stroke-opacity:1; 
stroke-linecap:round; stroke-linejoin:round;">
</g>
<g style="fill:#000000; fill-opacity:0.0; 
stroke:#000000; stroke-width:59.0551; stroke-opacity:1; 
stroke-linecap:round; stroke-linejoin:round;">
<text x="112205" y="112855"
textLength="546.494" font-size="682.415" lengthAdjust="spacingAndGlyphs"
text-anchor="start" opacity="0">6</text>
<path d="M112575 112319
L112477 112319
L112429 112343
L112404 112367
L112356 112440
L112331 112538
L112331 112733
L112356 112782
L112380 112806
L112429 112830
L112526 112830
L112575 112806
L112599 112782
L112624 112733
L112624 112611
L112599 112562
L112575 112538
L112526 112513
L112429 112513
L112380 112538
L112356 112562
L112331 112611
" />
</g>
<g style="fill:#000000; fill-opacity:0.0; 
stroke:#000000; stroke-width:39.3701; stroke-opacity:1; 
stroke-linecap:round; stroke-linejoin:round;">
</g>
<g style="fill:#000000; fill-opacity:0.0; 
stroke:#000000; stroke-width:59.0551; stroke-opacity:1; 
stroke-linecap:round; stroke-linejoin:round;">
<text x="131890" y="112855"
textLength="546.494" font-size="682.415" lengthAdjust="spacingAndGlyphs"
text-anchor="start" opacity="0">7</text>
<path d="M131992 112319
L132333 112319
L132114 112830
" />
</g>
<g style="fill:#000000; fill-opacity:0.0; 
stroke:#000000; stroke-width:39.3701; stroke-opacity:1; 
stroke-linecap:round; stroke-linejoin:round;">
</g>
<g style="fill:#000000; fill-opacity:0.0; 
stroke:#000000; stroke-width:59.0551; stroke-opacity:1; 
stroke-linecap:round; stroke-linejoin:round;">
<text x="151575" y="112855"
textLength="546.494" font-size="682.415" lengthAdjust="spacingAndGlyphs"
text-anchor="start" opacity="0">8</text>
<path d="M151799 112538
L151750 112513
L151726 112489
L151701 112440
L151701 112416
L151726 112367
L151750 112343
L151799 112319
L151896 112319
L151945 112343
L151969 112367
L151994 112416
L151994 112440
L151969 112489
L151945 112513
L151896 112538
L151799 112538
L151750 112562
L151726 112587
L151701 112635
L151701 112733
L151726 112782
L151750 112806
L151799 112830
L151896 112830
L151945 112806
L151969 112782
L151994 112733
L151994 112635
L151969 112587
L151945 112562
L151896 112538
" />
</g>
<g style="fill:#000000; fill-opacity:0.0; 
stroke:#000000; stroke-width:39.3701; stroke-opacity:1; 
stroke-linecap:round; stroke-linejoin:round;">
</g>
<g style="fill:#000000; fill-opacity:0.0; 
stroke:#000000; stroke-width:59.0551; stroke-opacity:1; 
stroke-linecap:round; stroke-linejoin:round;">
<path d="M3937 23622
L4724 23622
" />
</g>
<g style="fill:#000000; fill-opacity:0.0; 
stroke:#000000; stroke-width:39.3701; stroke-opacity:1; 
stroke-linecap:round; stroke-linejoin:round;">
</g>
<g style="fill:#000000; fill-opacity:0.0; 
stroke:#000000; stroke-width:59.0551; stroke-opacity:1; 
stroke-linecap:round; stroke-linejoin:round;">
<path d="M3937 43307
L4724 43307
" />
</g>
<g style="fill:#000000; fill-opacity:0.0; 
stroke:#000000; stroke-width:39.3701; stroke-opacity:1; 
stroke-linecap:round; stroke-linejoin:round;">
</g>
<g style="fill:#000000; fill-opacity:0.0; 
stroke:#000000; stroke-width:59.0551; stroke-opacity:1; 
stroke-linecap:round; stroke-linejoin:round;">
<path d="M3937 62992
L4724 62992
" />
</g>
<g style="fill:#000000; fill-opacity:0.0; 
stroke:#000000; stroke-width:39.3701; stroke-opacity:1; 
stroke-linecap:round; stroke-linejoin:round;">
</g>
<g style="fill:#000000; fill-opacity:0.0; 
stroke:#000000; stroke-width:59.0551; stroke-opacity:1; 
stroke-linecap:round; stroke-linejoin:round;">
<path d="M3937 82677
L4724 82677
" />
</g>
<g style="fill:#000000; fill-opacity:0.0; 
stroke:#000000; stroke-width:39.3701; stroke-opacity:1; 
stroke-linecap:round; stroke-linejoin:round;">
</g>
<g style="fill:#000000; fill-opacity:0.0; 
stroke:#000000; stroke-width:59.0551; stroke-opacity:1; 
stroke-linecap:round; stroke-linejoin:round;">
<path d="M3937 102362
L4724 102362
" />
</g>
<g style="fill:#000000; fill-opacity:0.0; 
stroke:#000000; stroke-width:39.3701; stroke-opacity:1; 
stroke-linecap:round; stroke-linejoin:round;">
</g>
<g style="fill:#000000; fill-opacity:0.0; 
stroke:#000000; stroke-width:59.0551; stroke-opacity:1; 
stroke-linecap:round; stroke-linejoin:round;">
<text x="4330.71" y="14035.4"
textLength="497.75" font-size="682.415" lengthAdjust="spacingAndGlyphs"
text-anchor="middle" opacity="0">A</text>
<path d="M4208 13864
L4452 13864
" />
<path d="M4160 14011
L4330 13499
L4501 14011
" />
</g>
<g style="fill:#000000; fill-opacity:0.0; 
stroke:#000000; stroke-width:39.3701; stroke-opacity:1; 
stroke-linecap:round; stroke-linejoin:round;">
</g>
<g style="fill:#000000; fill-opacity:0.0; 
stroke:#000000; stroke-width:59.0551; stroke-opacity:1; 
stroke-linecap:round; stroke-linejoin:round;">
<text x="4330.71" y="33720.5"
textLength="570.866" font-size="682.415" lengthAdjust="spacingAndGlyphs"
text-anchor="middle" opacity="0">B</text>
<path d="M4367 33428
L4440 33452
L4464 33476
L4489 33525
L4489 33598
L4464 33647
L4440 33671
L4391 33696
L4196 33696
L4196 33184
L4367 33184
L4416 33208
L4440 33233
L4464 33281
L4464 33330
L4440 33379
L4416 33403
L4367 33428
L4196 33428
" />
</g>
<g style="fill:#000000; fill-opacity:0.0; 
stroke:#000000; stroke-width:39.3701; stroke-opacity:1; 
stroke-linecap:round; stroke-linejoin:round;">
</g>
<g style="fill:#000000; fill-opacity:0.0; 
stroke:#000000; stroke-width:59.0551; stroke-opacity:1; 
stroke-linecap:round; stroke-linejoin:round;">
<text x="4330.71" y="53405.5"
textLength="570.866" font-size="682.415" lengthAdjust="spacingAndGlyphs"
text-anchor="middle" opacity="0">C</text>
<path d="M4489 53332
L4464 53356
L4391 53381
L4342 53381
L4269 53356
L4221 53308
L4196 53259
L4172 53161
L4172 53088
L4196 52991
L4221 52942
L4269 52893
L4342 52869
L4391 52869
L4464 52893
L4489 52918
" />
</g>
<g style="fill:#000000; fill-opacity:0.0; 
stroke:#000000; stroke-width:39.3701; stroke-opacity:1; 
stroke-linecap:round; stroke-linejoin:round;">
</g>
<g style="fill:#000000; fill-opacity:0.0; 
stroke:#000000; stroke-width:59.0551; stroke-opacity:1; 
stroke-linecap:round; stroke-linejoin:round;">
<text x="4330.71" y="73090.6"
textLength="570.866" font-size="682.415" lengthAdjust="spacingAndGlyphs"
text-anchor="middle" opacity="0">D</text>
<path d="M4196 73066
L4196 72554
L4318 72554
L4391 72578
L4440 72627
L4464 72676
L4489 72773
L4489 72846
L4464 72944
L4440 72993
L4391 73041
L4318 73066
L4196 73066
" />
</g>
<g style="fill:#000000; fill-opacity:0.0; 
stroke:#000000; stroke-width:39.3701; stroke-opacity:1; 
stroke-linecap:round; stroke-linejoin:round;">
</g>
<g style="fill:#000000; fill-opacity:0.0; 
stroke:#000000; stroke-width:59.0551; stroke-opacity:1; 
stroke-linecap:round; stroke-linejoin:round;">
<text x="4330.71" y="92775.6"
textLength="522.122" font-size="682.415" lengthAdjust="spacingAndGlyphs"
text-anchor="middle" opacity="0">E</text>
<path d="M4221 92483
L4391 92483
" />
<path d="M4464 92751
L4221 92751
L4221 92239
L4464 92239
" />
</g>
<g style="fill:#000000; fill-opacity:0.0; 
stroke:#000000; stroke-width:39.3701; stroke-opacity:1; 
stroke-linecap:round; stroke-linejoin:round;">
</g>
<g style="fill:#000000; fill-opacity:0.0; 
stroke:#000000; stroke-width:59.0551; stroke-opacity:1; 
stroke-linecap:round; stroke-linejoin:round;">
<text x="4330.71" y="112461"
textLength="497.75" font-size="682.415" lengthAdjust="spacingAndGlyphs"
text-anchor="middle" opacity="0">F</text>
<path d="M4403 112168
L4233 112168
" />
<path d="M4233 112436
L4233 111924
L4476 111924
" />
</g>
<g style="fill:#000000; fill-opacity:0.0; 
stroke:#000000; stroke-width:39.3701; stroke-opacity:1; 
stroke-linecap:round; stroke-linejoin:round;">
</g>
<g style="fill:#000000; fill-opacity:0.0; 
stroke:#000000; stroke-width:59.0551; stroke-opacity:1; 
stroke-linecap:round; stroke-linejoin:round;">
<path d="M161412 23622
L160625 23622
" />
</g>
<g style="fill:#000000; fill-opacity:0.0; 
stroke:#000000; stroke-width:39.3701; stroke-opacity:1; 
stroke-linecap:round; stroke-linejoin:round;">
</g>
<g style="fill:#000000; fill-opacity:0.0; 
stroke:#000000; stroke-width:59.0551; stroke-opacity:1; 
stroke-linecap:round; stroke-linejoin:round;">
<path d="M161412 43307
L160625 43307
" />
</g>
<g style="fill:#000000; fill-opacity:0.0; 
stroke:#000000; stroke-width:39.3701; stroke-opacity:1; 
stroke-linecap:round; stroke-linejoin:round;">
</g>
<g style="fill:#000000; fill-opacity:0.0; 
stroke:#000000; stroke-width:59.0551; stroke-opacity:1; 
stroke-linecap:round; stroke-linejoin:round;">
<path d="M161412 62992
L160625 62992
" />
</g>
<g style="fill:#000000; fill-opacity:0.0; 
stroke:#000000; stroke-width:39.3701; stroke-opacity:1; 
stroke-linecap:round; stroke-linejoin:round;">
</g>
<g style="fill:#000000; fill-opacity:0.0; 
stroke:#000000; stroke-width:59.0551; stroke-opacity:1; 
stroke-linecap:round; stroke-linejoin:round;">
<path d="M161412 82677
L160625 82677
" />
</g>
<g style="fill:#000000; fill-opacity:0.0; 
stroke:#000000; stroke-width:39.3701; stroke-opacity:1; 
stroke-linecap:round; stroke-linejoin:round;">
</g>
<g style="fill:#000000; fill-opacity:0.0; 
stroke:#000000; stroke-width:59.0551; stroke-opacity:1; 
stroke-linecap:round; stroke-linejoin:round;">
<path d="M161412 102362
L160625 102362
" />
</g>
<g style="fill:#000000; fill-opacity:0.0; 
stroke:#000000; stroke-width:39.3701; stroke-opacity:1; 
stroke-linecap:round; stroke-linejoin:round;">
</g>
<g style="fill:#000000; fill-opacity:0.0; 
stroke:#000000; stroke-width:59.0551; stroke-opacity:1; 
stroke-linecap:round; stroke-linejoin:round;">
<text x="161019" y="14035.4"
textLength="497.75" font-size="682.415" lengthAdjust="spacingAndGlyphs"
text-anchor="middle" opacity="0">A</text>
<path d="M160897 13864
L161141 13864
" />
<path d="M160848 14011
L161019 13499
L161189 14011
" />
</g>
<g style="fill:#000000; fill-opacity:0.0; 
stroke:#000000; stroke-width:39.3701; stroke-opacity:1; 
stroke-linecap:round; stroke-linejoin:round;">
</g>
<g style="fill:#000000; fill-opacity:0.0; 
stroke:#000000; stroke-width:59.0551; stroke-opacity:1; 
stroke-linecap:round; stroke-linejoin:round;">
<text x="161019" y="33720.5"
textLength="570.866" font-size="682.415" lengthAdjust="spacingAndGlyphs"
text-anchor="middle" opacity="0">B</text>
<path d="M161055 33428
L161128 33452
L161153 33476
L161177 33525
L161177 33598
L161153 33647
L161128 33671
L161080 33696
L160885 33696
L160885 33184
L161055 33184
L161104 33208
L161128 33233
L161153 33281
L161153 33330
L161128 33379
L161104 33403
L161055 33428
L160885 33428
" />
</g>
<g style="fill:#000000; fill-opacity:0.0; 
stroke:#000000; stroke-width:39.3701; stroke-opacity:1; 
stroke-linecap:round; stroke-linejoin:round;">
</g>
<g style="fill:#000000; fill-opacity:0.0; 
stroke:#000000; stroke-width:59.0551; stroke-opacity:1; 
stroke-linecap:round; stroke-linejoin:round;">
<text x="161019" y="53405.5"
textLength="570.866" font-size="682.415" lengthAdjust="spacingAndGlyphs"
text-anchor="middle" opacity="0">C</text>
<path d="M161177 53332
L161153 53356
L161080 53381
L161031 53381
L160958 53356
L160909 53308
L160885 53259
L160860 53161
L160860 53088
L160885 52991
L160909 52942
L160958 52893
L161031 52869
L161080 52869
L161153 52893
L161177 52918
" />
</g>
<g style="fill:#000000; fill-opacity:0.0; 
stroke:#000000; stroke-width:39.3701; stroke-opacity:1; 
stroke-linecap:round; stroke-linejoin:round;">
</g>
<g style="fill:#000000; fill-opacity:0.0; 
stroke:#000000; stroke-width:59.0551; stroke-opacity:1; 
stroke-linecap:round; stroke-linejoin:round;">
<text x="161019" y="73090.6"
textLength="570.866" font-size="682.415" lengthAdjust="spacingAndGlyphs"
text-anchor="middle" opacity="0">D</text>
<path d="M160885 73066
L160885 72554
L161007 72554
L161080 72578
L161128 72627
L161153 72676
L161177 72773
L161177 72846
L161153 72944
L161128 72993
L161080 73041
L161007 73066
L160885 73066
" />
</g>
<g style="fill:#000000; fill-opacity:0.0; 
stroke:#000000; stroke-width:39.3701; stroke-opacity:1; 
stroke-linecap:round; stroke-linejoin:round;">
</g>
<g style="fill:#000000; fill-opacity:0.0; 
stroke:#000000; stroke-width:59.0551; stroke-opacity:1; 
stroke-linecap:round; stroke-linejoin:round;">
<text x="161019" y="92775.6"
textLength="522.122" font-size="682.415" lengthAdjust="spacingAndGlyphs"
text-anchor="middle" opacity="0">E</text>
<path d="M160909 92483
L161080 92483
" />
<path d="M161153 92751
L160909 92751
L160909 92239
L161153 92239
" />
</g>
<g style="fill:#000000; fill-opacity:0.0; 
stroke:#000000; stroke-width:39.3701; stroke-opacity:1; 
stroke-linecap:round; stroke-linejoin:round;">
</g>
<g style="fill:#000000; fill-opacity:0.0; 
stroke:#000000; stroke-width:59.0551; stroke-opacity:1; 
stroke-linecap:round; stroke-linejoin:round;">
<text x="161019" y="112461"
textLength="497.75" font-size="682.415" lengthAdjust="spacingAndGlyphs"
text-anchor="middle" opacity="0">F</text>
<path d="M161092 112168
L160921 112168
" />
<path d="M160921 112436
L160921 111924
L161165 111924
" />
</g>
<g style="fill:#000000; fill-opacity:0.0; 
stroke:#000000; stroke-width:39.3701; stroke-opacity:1; 
stroke-linecap:round; stroke-linejoin:round;">
</g>
<g style="fill:#000000; fill-opacity:0.0; 
stroke:#000000; stroke-width:59.0551; stroke-opacity:1; 
stroke-linecap:round; stroke-linejoin:round;">
<text x="127161" y="110572"
textLength="2758.72" font-size="787.402" lengthAdjust="spacingAndGlyphs"
text-anchor="start" opacity="0">Date: </text>
<path d="M127331 110543
L127331 109953
L127471 109953
L127556 109981
L127612 110037
L127640 110093
L127668 110206
L127668 110290
L127640 110403
L127612 110459
L127556 110515
L127471 110543
L127331 110543
" />
<path d="M128174 110543
L128174 110234
L128146 110178
L128090 110149
L127977 110149
L127921 110178
" />
<path d="M128174 110515
L128118 110543
L127977 110543
L127921 110515
L127893 110459
L127893 110403
L127921 110346
L127977 110318
L128118 110318
L128174 110290
" />
<path d="M128371 110149
L128596 110149
" />
<path d="M128456 109953
L128456 110459
L128484 110515
L128540 110543
L128596 110543
" />
<path d="M129018 110515
L128962 110543
L128849 110543
L128793 110515
L128765 110459
L128765 110234
L128793 110178
L128849 110149
L128962 110149
L129018 110178
L129046 110234
L129046 110290
L128765 110346
" />
<path d="M129299 110487
L129327 110515
L129299 110543
L129271 110515
L129299 110487
L129299 110543
" />
<path d="M129299 110178
L129327 110206
L129299 110234
L129271 110206
L129299 110178
L129299 110234
" />
</g>
<g style="fill:#000000; fill-opacity:0.0; 
stroke:#000000; stroke-width:39.3701; stroke-opacity:1; 
stroke-linecap:round; stroke-linejoin:round;">
</g>
<g style="fill:#000000; fill-opacity:0.0; 
stroke:#000000; stroke-width:59.0551; stroke-opacity:1; 
stroke-linecap:round; stroke-linejoin:round;">
<path d="M118105 110827
L160625 110827
" />
</g>
<g style="fill:#000000; fill-opacity:0.0; 
stroke:#000000; stroke-width:39.3701; stroke-opacity:1; 
stroke-linecap:round; stroke-linejoin:round;">
</g>
<g style="fill:#000000; fill-opacity:0.0; 
stroke:#000000; stroke-width:59.0551; stroke-opacity:1; 
stroke-linecap:round; stroke-linejoin:round;">
<text x="118500" y="111674"
textLength="14991.6" font-size="787.402" lengthAdjust="spacingAndGlyphs"
text-anchor="start" opacity="0">KiCad E.D.A.  pcbnew (5.1.12)-1</text>
<path d="M118669 111645
L118669 111055
" />
<path d="M119007 111645
L118754 111308
" />
<path d="M119007 111055
L118669 111392
" />
<path d="M119260 111645
L119260 111252
" />
<path d="M119260 111055
L119232 111083
L119260 111111
L119288 111083
L119260 111055
L119260 111111
" />
<path d="M119878 111589
L119850 111617
L119766 111645
L119710 111645
L119625 111617
L119569 111561
L119541 111505
L119513 111392
L119513 111308
L119541 111196
L119569 111139
L119625 111083
L119710 111055
L119766 111055
L119850 111083
L119878 111111
" />
<path d="M120385 111645
L120385 111336
L120357 111280
L120300 111252
L120188 111252
L120132 111280
" />
<path d="M120385 111617
L120328 111645
L120188 111645
L120132 111617
L120103 111561
L120103 111505
L120132 111449
L120188 111421
L120328 111421
L120385 111392
" />
<path d="M120919 111645
L120919 111055
" />
<path d="M120919 111617
L120863 111645
L120750 111645
L120694 111617
L120666 111589
L120638 111533
L120638 111364
L120666 111308
L120694 111280
L120750 111252
L120863 111252
L120919 111280
" />
<path d="M121650 111336
L121847 111336
" />
<path d="M121931 111645
L121650 111645
L121650 111055
L121931 111055
" />
<path d="M122184 111589
L122213 111617
L122184 111645
L122156 111617
L122184 111589
L122184 111645
" />
<path d="M122466 111645
L122466 111055
L122606 111055
L122691 111083
L122747 111139
L122775 111196
L122803 111308
L122803 111392
L122775 111505
L122747 111561
L122691 111617
L122606 111645
L122466 111645
" />
<path d="M123056 111589
L123084 111617
L123056 111645
L123028 111617
L123056 111589
L123056 111645
" />
<path d="M123309 111477
L123591 111477
" />
<path d="M123253 111645
L123450 111055
L123647 111645
" />
<path d="M123844 111589
L123872 111617
L123844 111645
L123815 111617
L123844 111589
L123844 111645
" />
<path d="M125025 111252
L125025 111842
" />
<path d="M125025 111280
L125081 111252
L125193 111252
L125250 111280
L125278 111308
L125306 111364
L125306 111533
L125278 111589
L125250 111617
L125193 111645
L125081 111645
L125025 111617
" />
<path d="M125812 111617
L125756 111645
L125643 111645
L125587 111617
L125559 111589
L125531 111533
L125531 111364
L125559 111308
L125587 111280
L125643 111252
L125756 111252
L125812 111280
" />
<path d="M126065 111645
L126065 111055
" />
<path d="M126065 111280
L126121 111252
L126234 111252
L126290 111280
L126318 111308
L126346 111364
L126346 111533
L126318 111589
L126290 111617
L126234 111645
L126121 111645
L126065 111617
" />
<path d="M126600 111252
L126600 111645
" />
<path d="M126600 111308
L126628 111280
L126684 111252
L126768 111252
L126824 111280
L126853 111336
L126853 111645
" />
<path d="M127359 111617
L127303 111645
L127190 111645
L127134 111617
L127106 111561
L127106 111336
L127134 111280
L127190 111252
L127303 111252
L127359 111280
L127387 111336
L127387 111392
L127106 111449
" />
<path d="M127584 111252
L127696 111645
L127809 111364
L127921 111645
L128034 111252
" />
<path d="M128877 111870
L128849 111842
L128793 111758
L128765 111702
L128737 111617
L128709 111477
L128709 111364
L128737 111224
L128765 111139
L128793 111083
L128849 110999
L128877 110971
" />
<path d="M129384 111055
L129102 111055
L129074 111336
L129102 111308
L129159 111280
L129299 111280
L129355 111308
L129384 111336
L129412 111392
L129412 111533
L129384 111589
L129355 111617
L129299 111645
L129159 111645
L129102 111617
L129074 111589
" />
<path d="M129665 111589
L129693 111617
L129665 111645
L129637 111617
L129665 111589
L129665 111645
" />
<path d="M130255 111645
L129918 111645
" />
<path d="M130087 111645
L130087 111055
L130030 111139
L129974 111196
L129918 111224
" />
<path d="M130508 111589
L130537 111617
L130508 111645
L130480 111617
L130508 111589
L130508 111645
" />
<path d="M131099 111645
L130761 111645
" />
<path d="M130930 111645
L130930 111055
L130874 111139
L130818 111196
L130761 111224
" />
<path d="M131324 111111
L131352 111083
L131408 111055
L131549 111055
L131605 111083
L131633 111111
L131661 111167
L131661 111224
L131633 111308
L131296 111645
L131661 111645
" />
<path d="M131858 111870
L131886 111842
L131943 111758
L131971 111702
L131999 111617
L132027 111477
L132027 111364
L131999 111224
L131971 111139
L131943 111083
L131886 110999
L131858 110971
" />
<path d="M132308 111421
L132758 111421
" />
<path d="M133349 111645
L133011 111645
" />
<path d="M133180 111645
L133180 111055
L133124 111139
L133067 111196
L133011 111224
" />
</g>
<g style="fill:#000000; fill-opacity:0.0; 
stroke:#000000; stroke-width:39.3701; stroke-opacity:1; 
stroke-linecap:round; stroke-linejoin:round;">
</g>
<g style="fill:#000000; fill-opacity:0.0; 
stroke:#000000; stroke-width:59.0551; stroke-opacity:1; 
stroke-linecap:round; stroke-linejoin:round;">
<path d="M118105 109646
L160625 109646
" />
</g>
<g style="fill:#000000; fill-opacity:0.0; 
stroke:#000000; stroke-width:39.3701; stroke-opacity:1; 
stroke-linecap:round; stroke-linejoin:round;">
</g>
<g style="fill:#000000; fill-opacity:0.0; 
stroke:#000000; stroke-width:118.11; stroke-opacity:1; 
stroke-linecap:round; stroke-linejoin:round;">
<text x="151964" y="110572"
textLength="2336.9" font-size="787.402" lengthAdjust="spacingAndGlyphs"
text-anchor="start" opacity="0">Rev: </text>
<path d="M152519 110543
L152322 110262
" />
<path d="M152181 110543
L152181 109953
L152406 109953
L152462 109981
L152490 110009
L152519 110065
L152519 110149
L152490 110206
L152462 110234
L152406 110262
L152181 110262
" />
<path d="M152997 110515
L152940 110543
L152828 110543
L152772 110515
L152743 110459
L152743 110234
L152772 110178
L152828 110149
L152940 110149
L152997 110178
L153025 110234
L153025 110290
L152743 110346
" />
<path d="M153222 110149
L153362 110543
L153503 110149
" />
<path d="M153728 110487
L153756 110515
L153728 110543
L153700 110515
L153728 110487
L153728 110543
" />
<path d="M153728 110178
L153756 110206
L153728 110234
L153700 110206
L153728 110178
L153728 110234
" />
</g>
<g style="fill:#000000; fill-opacity:0.0; 
stroke:#000000; stroke-width:39.3701; stroke-opacity:1; 
stroke-linecap:round; stroke-linejoin:round;">
</g>
<g style="fill:#000000; fill-opacity:0.0; 
stroke:#000000; stroke-width:59.0551; stroke-opacity:1; 
stroke-linecap:round; stroke-linejoin:round;">
<text x="118500" y="110572"
textLength="3781.21" font-size="787.402" lengthAdjust="spacingAndGlyphs"
text-anchor="start" opacity="0">Size: A3</text>
<path d="M118641 110515
L118725 110543
L118866 110543
L118922 110515
L118950 110487
L118979 110431
L118979 110374
L118950 110318
L118922 110290
L118866 110262
L118754 110234
L118697 110206
L118669 110178
L118641 110121
L118641 110065
L118669 110009
L118697 109981
L118754 109953
L118894 109953
L118979 109981
" />
<path d="M119232 110543
L119232 110149
" />
<path d="M119232 109953
L119204 109981
L119232 110009
L119260 109981
L119232 109953
L119232 110009
" />
<path d="M119457 110149
L119766 110149
L119457 110543
L119766 110543
" />
<path d="M120216 110515
L120160 110543
L120047 110543
L119991 110515
L119963 110459
L119963 110234
L119991 110178
L120047 110149
L120160 110149
L120216 110178
L120244 110234
L120244 110290
L119963 110346
" />
<path d="M120497 110487
L120525 110515
L120497 110543
L120469 110515
L120497 110487
L120497 110543
" />
<path d="M120497 110178
L120525 110206
L120497 110234
L120469 110206
L120497 110178
L120497 110234
" />
<path d="M121200 110374
L121481 110374
" />
<path d="M121144 110543
L121341 109953
L121538 110543
" />
<path d="M121678 109953
L122044 109953
L121847 110178
L121931 110178
L121988 110206
L122016 110234
L122044 110290
L122044 110431
L122016 110487
L121988 110515
L121931 110543
L121763 110543
L121706 110515
L121678 110487
" />
</g>
<g style="fill:#000000; fill-opacity:0.0; 
stroke:#000000; stroke-width:39.3701; stroke-opacity:1; 
stroke-linecap:round; stroke-linejoin:round;">
</g>
<g style="fill:#000000; fill-opacity:0.0; 
stroke:#000000; stroke-width:59.0551; stroke-opacity:1; 
stroke-linecap:round; stroke-linejoin:round;">
<text x="151964" y="111674"
textLength="3349.27" font-size="787.402" lengthAdjust="spacingAndGlyphs"
text-anchor="start" opacity="0">Id: 1/1</text>
<path d="M152134 111645
L152134 111055
" />
<path d="M152668 111645
L152668 111055
" />
<path d="M152668 111617
L152612 111645
L152499 111645
L152443 111617
L152415 111589
L152387 111533
L152387 111364
L152415 111308
L152443 111280
L152499 111252
L152612 111252
L152668 111280
" />
<path d="M152949 111589
L152977 111617
L152949 111645
L152921 111617
L152949 111589
L152949 111645
" />
<path d="M152949 111280
L152977 111308
L152949 111336
L152921 111308
L152949 111280
L152949 111336
" />
<path d="M153990 111645
L153652 111645
" />
<path d="M153821 111645
L153821 111055
L153765 111139
L153709 111196
L153652 111224
" />
<path d="M154665 111027
L154159 111786
" />
<path d="M155171 111645
L154833 111645
" />
<path d="M155002 111645
L155002 111055
L154946 111139
L154890 111196
L154833 111224
" />
</g>
<g style="fill:#000000; fill-opacity:0.0; 
stroke:#000000; stroke-width:39.3701; stroke-opacity:1; 
stroke-linecap:round; stroke-linejoin:round;">
</g>
<g style="fill:#000000; fill-opacity:0.0; 
stroke:#000000; stroke-width:59.0551; stroke-opacity:1; 
stroke-linecap:round; stroke-linejoin:round;">
<path d="M118105 108071
L160625 108071
" />
</g>
<g style="fill:#000000; fill-opacity:0.0; 
stroke:#000000; stroke-width:39.3701; stroke-opacity:1; 
stroke-linecap:round; stroke-linejoin:round;">
</g>
<g style="fill:#000000; fill-opacity:0.0; 
stroke:#000000; stroke-width:157.48; stroke-opacity:1; 
stroke-linecap:round; stroke-linejoin:round;">
<text x="118500" y="109174"
textLength="3701.14" font-size="1049.87" lengthAdjust="spacingAndGlyphs"
text-anchor="start" opacity="0">Title: </text>
<path d="M118780 108349
L119230 108349
" />
<path d="M118906 109136
L119005 108349
" />
<path d="M119394 109136
L119459 108611
" />
<path d="M119492 108349
L119450 108386
L119483 108424
L119525 108386
L119492 108349
L119483 108424
" />
<path d="M119722 108611
L120022 108611
" />
<path d="M119867 108349
L119783 109024
L119811 109099
L119881 109136
L119956 109136
" />
<path d="M120331 109136
L120261 109099
L120233 109024
L120317 108349
" />
<path d="M120936 109099
L120856 109136
L120706 109136
L120636 109099
L120607 109024
L120645 108724
L120692 108649
L120772 108611
L120921 108611
L120992 108649
L121020 108724
L121011 108799
L120626 108874
" />
<path d="M121315 109061
L121348 109099
L121306 109136
L121273 109099
L121315 109061
L121306 109136
" />
<path d="M121367 108649
L121400 108686
L121357 108724
L121325 108686
L121367 108649
L121357 108724
" />
</g>
<g style="fill:#000000; fill-opacity:0.0; 
stroke:#000000; stroke-width:39.3701; stroke-opacity:1; 
stroke-linecap:round; stroke-linejoin:round;">
</g>
<g style="fill:#000000; fill-opacity:0.0; 
stroke:#000000; stroke-width:59.0551; stroke-opacity:1; 
stroke-linecap:round; stroke-linejoin:round;">
<text x="118500" y="107658"
textLength="10890.9" font-size="787.402" lengthAdjust="spacingAndGlyphs"
text-anchor="start" opacity="0">File: JTNK66L.kicad_pcb</text>
<path d="M118866 107320
L118669 107320
" />
<path d="M118669 107630
L118669 107039
L118950 107039
" />
<path d="M119175 107630
L119175 107236
" />
<path d="M119175 107039
L119147 107067
L119175 107095
L119204 107067
L119175 107039
L119175 107095
" />
<path d="M119541 107630
L119485 107602
L119457 107545
L119457 107039
" />
<path d="M119991 107602
L119935 107630
L119822 107630
L119766 107602
L119738 107545
L119738 107320
L119766 107264
L119822 107236
L119935 107236
L119991 107264
L120019 107320
L120019 107377
L119738 107433
" />
<path d="M120272 107573
L120300 107602
L120272 107630
L120244 107602
L120272 107573
L120272 107630
" />
<path d="M120272 107264
L120300 107292
L120272 107320
L120244 107292
L120272 107264
L120272 107320
" />
<path d="M121172 107039
L121172 107461
L121144 107545
L121088 107602
L121003 107630
L120947 107630
" />
<path d="M121369 107039
L121706 107039
" />
<path d="M121538 107630
L121538 107039
" />
<path d="M121903 107630
L121903 107039
L122241 107630
L122241 107039
" />
<path d="M122522 107630
L122522 107039
" />
<path d="M122859 107630
L122606 107292
" />
<path d="M122859 107039
L122522 107377
" />
<path d="M123366 107039
L123253 107039
L123197 107067
L123169 107095
L123112 107180
L123084 107292
L123084 107517
L123112 107573
L123141 107602
L123197 107630
L123309 107630
L123366 107602
L123394 107573
L123422 107517
L123422 107377
L123394 107320
L123366 107292
L123309 107264
L123197 107264
L123141 107292
L123112 107320
L123084 107377
" />
<path d="M123928 107039
L123815 107039
L123759 107067
L123731 107095
L123675 107180
L123647 107292
L123647 107517
L123675 107573
L123703 107602
L123759 107630
L123872 107630
L123928 107602
L123956 107573
L123984 107517
L123984 107377
L123956 107320
L123928 107292
L123872 107264
L123759 107264
L123703 107292
L123675 107320
L123647 107377
" />
<path d="M124519 107630
L124237 107630
L124237 107039
" />
<path d="M124715 107573
L124743 107602
L124715 107630
L124687 107602
L124715 107573
L124715 107630
" />
<path d="M124997 107630
L124997 107039
" />
<path d="M125053 107405
L125222 107630
" />
<path d="M125222 107236
L124997 107461
" />
<path d="M125475 107630
L125475 107236
" />
<path d="M125475 107039
L125447 107067
L125475 107095
L125503 107067
L125475 107039
L125475 107095
" />
<path d="M126009 107602
L125953 107630
L125840 107630
L125784 107602
L125756 107573
L125728 107517
L125728 107349
L125756 107292
L125784 107264
L125840 107236
L125953 107236
L126009 107264
" />
<path d="M126515 107630
L126515 107320
L126487 107264
L126431 107236
L126318 107236
L126262 107264
" />
<path d="M126515 107602
L126459 107630
L126318 107630
L126262 107602
L126234 107545
L126234 107489
L126262 107433
L126318 107405
L126459 107405
L126515 107377
" />
<path d="M127049 107630
L127049 107039
" />
<path d="M127049 107602
L126993 107630
L126881 107630
L126824 107602
L126796 107573
L126768 107517
L126768 107349
L126796 107292
L126824 107264
L126881 107236
L126993 107236
L127049 107264
" />
<path d="M127190 107686
L127640 107686
" />
<path d="M127781 107236
L127781 107827
" />
<path d="M127781 107264
L127837 107236
L127949 107236
L128006 107264
L128034 107292
L128062 107349
L128062 107517
L128034 107573
L128006 107602
L127949 107630
L127837 107630
L127781 107602
" />
<path d="M128568 107602
L128512 107630
L128399 107630
L128343 107602
L128315 107573
L128287 107517
L128287 107349
L128315 107292
L128343 107264
L128399 107236
L128512 107236
L128568 107264
" />
<path d="M128821 107630
L128821 107039
" />
<path d="M128821 107264
L128877 107236
L128990 107236
L129046 107264
L129074 107292
L129102 107349
L129102 107517
L129074 107573
L129046 107602
L128990 107630
L128877 107630
L128821 107602
" />
</g>
<g style="fill:#000000; fill-opacity:0.0; 
stroke:#000000; stroke-width:39.3701; stroke-opacity:1; 
stroke-linecap:round; stroke-linejoin:round;">
</g>
<g style="fill:#000000; fill-opacity:0.0; 
stroke:#000000; stroke-width:59.0551; stroke-opacity:1; 
stroke-linecap:round; stroke-linejoin:round;">
<path d="M118105 105709
L160625 105709
" />
</g>
<g style="fill:#000000; fill-opacity:0.0; 
stroke:#000000; stroke-width:39.3701; stroke-opacity:1; 
stroke-linecap:round; stroke-linejoin:round;">
</g>
<g style="fill:#000000; fill-opacity:0.0; 
stroke:#000000; stroke-width:59.0551; stroke-opacity:1; 
stroke-linecap:round; stroke-linejoin:round;">
<text x="118500" y="106595"
textLength="3236.78" font-size="787.402" lengthAdjust="spacingAndGlyphs"
text-anchor="start" opacity="0">Sheet: </text>
<path d="M118641 106539
L118725 106567
L118866 106567
L118922 106539
L118950 106510
L118979 106454
L118979 106398
L118950 106342
L118922 106314
L118866 106286
L118754 106257
L118697 106229
L118669 106201
L118641 106145
L118641 106089
L118669 106032
L118697 106004
L118754 105976
L118894 105976
L118979 106004
" />
<path d="M119232 106567
L119232 105976
" />
<path d="M119485 106567
L119485 106257
L119457 106201
L119400 106173
L119316 106173
L119260 106201
L119232 106229
" />
<path d="M119991 106539
L119935 106567
L119822 106567
L119766 106539
L119738 106482
L119738 106257
L119766 106201
L119822 106173
L119935 106173
L119991 106201
L120019 106257
L120019 106314
L119738 106370
" />
<path d="M120497 106539
L120441 106567
L120328 106567
L120272 106539
L120244 106482
L120244 106257
L120272 106201
L120328 106173
L120441 106173
L120497 106201
L120525 106257
L120525 106314
L120244 106370
" />
<path d="M120694 106173
L120919 106173
" />
<path d="M120778 105976
L120778 106482
L120806 106539
L120863 106567
L120919 106567
" />
<path d="M121116 106510
L121144 106539
L121116 106567
L121088 106539
L121116 106510
L121116 106567
" />
<path d="M121116 106201
L121144 106229
L121116 106257
L121088 106229
L121116 106201
L121116 106257
" />
</g>
<g style="fill:#000000; fill-opacity:0.0; 
stroke:#000000; stroke-width:39.3701; stroke-opacity:1; 
stroke-linecap:round; stroke-linejoin:round;">
</g>
<g style="fill:#000000; fill-opacity:0.0; 
stroke:#000000; stroke-width:59.0551; stroke-opacity:1; 
stroke-linecap:round; stroke-linejoin:round;">
<path d="M125979 109646
L125979 110827
" />
</g>
<g style="fill:#000000; fill-opacity:0.0; 
stroke:#000000; stroke-width:39.3701; stroke-opacity:1; 
stroke-linecap:round; stroke-linejoin:round;">
</g>
<g style="fill:#000000; fill-opacity:0.0; 
stroke:#000000; stroke-width:59.0551; stroke-opacity:1; 
stroke-linecap:round; stroke-linejoin:round;">
<path d="M151176 109646
L151176 112205
" />
</g>
<g style="fill:#C2C200; fill-opacity:0.0; 
stroke:#C2C200; stroke-width:59.0551; stroke-opacity:1; 
stroke-linecap:round; stroke-linejoin:round;">
</g>
<g style="fill:#C2C200; fill-opacity:0.0; 
stroke:#C2C200; stroke-width:39.3701; stroke-opacity:1; 
stroke-linecap:round; stroke-linejoin:round;">
<path d="M131689 22397.6 A1181.1 1181.1 0.0 0 0 132870 21216.5" />
<path d="M122071 21216.5 A1181.1 1181.1 0.0 0 0 123252 22397.6" />
<path d="M123248 6826.77 A1181.1 1181.1 0.0 0 0 122067 8007.87" />
<path d="M132866 8003.94 A1181.1 1181.1 0.0 0 0 131685 6822.83" />
<path d="M132866 8003
L132870 21216
" />
<path d="M123248 6826
L131685 6822
" />
<path d="M122070 21216
L122066 8007
" />
<path d="M131688 22397
L123251 22397
" />
<path d="M132870 23689 A1181.1 1181.1 0.0 0 0 131689 22507.9" />
<path d="M121875 22500
L131688 22507
" />
<path d="M121874 7976
L121875 22500
" />
<path d="M121874 7976.38 A1181.1 1181.1 0.0 0 0 120693 6795.28" />
<path d="M5620.08 44507.9 A1181.1 1181.1 0.0 0 0 6801.18 45689" />
<path d="M6801.18 6791.34 A1181.1 1181.1 0.0 0 0 5620.08 7972.44" />
<path d="M131686 45688.9 A1181.1 1181.1 0.0 0 0 132867 44507.8" />
<path d="M132867 44507
L132870 23688
" />
<path d="M6801 45688
L131686 45688
" />
<path d="M5620 7972
L5620 44507
" />
<path d="M120692 6795
L6801 6791
" />
</g>
<g style="fill:#C2C200; fill-opacity:0.0; 
stroke:#C2C200; stroke-width:3.93701; stroke-opacity:1; 
stroke-linecap:round; stroke-linejoin:round;">
<circle cx="123750" cy="21562.5" r="433.071" /> 
<circle cx="131250" cy="21562.5" r="433.071" /> 
<circle cx="120000" cy="8232.28" r="433.071" /> 
<circle cx="80614.2" cy="22692.9" r="433.071" /> 
<circle cx="43141.7" cy="22700.8" r="433.071" /> 
<circle cx="82066.9" cy="44062.5" r="433.071" /> 
<circle cx="41754.4" cy="44062.5" r="433.071" /> 
</g>
<g style="fill:#C2C200; fill-opacity:0.0; 
stroke:#C2C200; stroke-width:59.0551; stroke-opacity:1; 
stroke-linecap:round; stroke-linejoin:round;">
<path d="M108786 23474
L114338 23474
" />
<path d="M114338 23474
L114338 29025
" />
<path d="M114338 29025
L108786 29025
" />
<path d="M108786 29025
L108786 23474
" />
</g>
<g style="fill:#C2C200; fill-opacity:0.0; 
stroke:#C2C200; stroke-width:78.7402; stroke-opacity:1; 
stroke-linecap:round; stroke-linejoin:round;">
<path d="M115637 23100
L115637 24675
" />
<path d="M115046 24675
L115046 27431
" />
<path d="M116936 23100
L116936 24675
" />
<path d="M106188 23100
L107487 23100
" />
<path d="M106188 24675
L105597 24675
" />
<path d="M117527 27431
L115046 27431
" />
<path d="M116936 24675
L117527 24675
" />
<path d="M107487 23100
L107487 24675
" />
<path d="M105597 24675
L105597 27431
" />
<path d="M107487 24675
L108078 24675
" />
<path d="M108078 24675
L108078 27431
" />
<path d="M106188 23100
L106188 24675
" />
<path d="M108078 27431
L105597 27431
" />
<path d="M115637 24675
L115046 24675
" />
<path d="M117527 24675
L117527 27431
" />
<path d="M115637 23100
L116936 23100
" />
<path d="M116574 8100
L117874 8100
" />
<path d="M118464 9675
L118464 12431
" />
<path d="M116574 9675
L115984 9675
" />
<path d="M109015 12431
L106535 12431
" />
<path d="M107125 8100
L107125 9675
" />
<path d="M109015 9675
L109015 12431
" />
<path d="M108425 9675
L109015 9675
" />
<path d="M106535 9675
L106535 12431
" />
<path d="M108425 8100
L108425 9675
" />
<path d="M117874 9675
L118464 9675
" />
<path d="M118464 12431
L115984 12431
" />
<path d="M107125 9675
L106535 9675
" />
<path d="M107125 8100
L108425 8100
" />
<path d="M117874 8100
L117874 9675
" />
<path d="M115984 9675
L115984 12431
" />
<path d="M116574 8100
L116574 9675
" />
</g>
<g style="fill:#C2C200; fill-opacity:0.0; 
stroke:#C2C200; stroke-width:59.0551; stroke-opacity:1; 
stroke-linecap:round; stroke-linejoin:round;">
<path d="M109724 14025
L109724 8474
" />
<path d="M115275 14025
L109724 14025
" />
<path d="M115275 8474
L115275 14025
" />
<path d="M109724 8474
L115275 8474
" />
<path d="M13161 30974
L18713 30974
" />
<path d="M18713 30974
L18713 36525
" />
<path d="M18713 36525
L13161 36525
" />
<path d="M13161 36525
L13161 30974
" />
</g>
<g style="fill:#C2C200; fill-opacity:0.0; 
stroke:#C2C200; stroke-width:78.7402; stroke-opacity:1; 
stroke-linecap:round; stroke-linejoin:round;">
<path d="M20012 30600
L20012 32175
" />
<path d="M19421 32175
L19421 34931
" />
<path d="M21311 30600
L21311 32175
" />
<path d="M10563 30600
L11862 30600
" />
<path d="M10563 32175
L9972 32175
" />
<path d="M21902 34931
L19421 34931
" />
<path d="M21311 32175
L21902 32175
" />
<path d="M11862 30600
L11862 32175
" />
<path d="M9972 32175
L9972 34931
" />
<path d="M11862 32175
L12453 32175
" />
<path d="M12453 32175
L12453 34931
" />
<path d="M10563 30600
L10563 32175
" />
<path d="M12453 34931
L9972 34931
" />
<path d="M20012 32175
L19421 32175
" />
<path d="M21902 32175
L21902 34931
" />
<path d="M20012 30600
L21311 30600
" />
<path d="M38688 38100
L38688 39675
" />
<path d="M39987 38100
L39987 39675
" />
<path d="M38097 39675
L38097 42431
" />
<path d="M40578 42431
L38097 42431
" />
<path d="M39987 39675
L40578 39675
" />
<path d="M38688 38100
L39987 38100
" />
<path d="M40578 39675
L40578 42431
" />
<path d="M38688 39675
L38097 39675
" />
<path d="M78137 38100
L78137 39675
" />
<path d="M78137 39675
L77546 39675
" />
<path d="M77546 39675
L77546 42431
" />
<path d="M80027 42431
L77546 42431
" />
<path d="M80027 39675
L80027 42431
" />
<path d="M79436 39675
L80027 39675
" />
<path d="M79436 38100
L79436 39675
" />
<path d="M78137 38100
L79436 38100
" />
</g>
<g style="fill:#C2C200; fill-opacity:0.0; 
stroke:#C2C200; stroke-width:59.0551; stroke-opacity:1; 
stroke-linecap:round; stroke-linejoin:round;">
<path d="M56286 44025
L56286 38474
" />
<path d="M61838 38474
L61838 44025
" />
<path d="M56286 38474
L61838 38474
" />
<path d="M61838 44025
L56286 44025
" />
</g>
<g style="fill:#C2C200; fill-opacity:0.0; 
stroke:#C2C200; stroke-width:3.93701; stroke-opacity:1; 
stroke-linecap:round; stroke-linejoin:round;">
<circle cx="89996.1" cy="7842.52" r="433.071" /> 
<circle cx="44996.1" cy="7787.4" r="433.071" /> 
</g>
<g style="fill:#C2C200; fill-opacity:0.0; 
stroke:#C2C200; stroke-width:59.0551; stroke-opacity:1; 
stroke-linecap:round; stroke-linejoin:round;">
<path d="M124724 29963
L124724 24411
" />
<path d="M130275 29963
L124724 29963
" />
<path d="M130275 24411
L130275 29963
" />
<path d="M124724 24411
L130275 24411
" />
<path d="M124724 44025
L124724 38474
" />
<path d="M130275 44025
L124724 44025
" />
<path d="M130275 38474
L130275 44025
" />
<path d="M124724 38474
L130275 38474
" />
<path d="M111599 15974
L117150 15974
" />
<path d="M117150 15974
L117150 21525
" />
<path d="M117150 21525
L111599 21525
" />
<path d="M111599 21525
L111599 15974
" />
<path d="M102224 21525
L102224 15974
" />
<path d="M107775 21525
L102224 21525
" />
<path d="M107775 15974
L107775 21525
" />
<path d="M102224 15974
L107775 15974
" />
<path d="M100349 30974
L105900 30974
" />
<path d="M105900 30974
L105900 36525
" />
<path d="M105900 36525
L100349 36525
" />
<path d="M100349 36525
L100349 30974
" />
<path d="M19724 21525
L19724 15974
" />
<path d="M25275 21525
L19724 21525
" />
<path d="M25275 15974
L25275 21525
" />
<path d="M19724 15974
L25275 15974
" />
<path d="M25349 36525
L25349 30974
" />
<path d="M30900 36525
L25349 36525
" />
<path d="M30900 30974
L30900 36525
" />
<path d="M25349 30974
L30900 30974
" />
<path d="M27224 21525
L27224 15974
" />
<path d="M32775 21525
L27224 21525
" />
<path d="M32775 15974
L32775 21525
" />
<path d="M27224 15974
L32775 15974
" />
<path d="M32849 36525
L32849 30974
" />
<path d="M38400 36525
L32849 36525
" />
<path d="M38400 30974
L38400 36525
" />
<path d="M32849 30974
L38400 30974
" />
<path d="M34724 21525
L34724 15974
" />
<path d="M40275 21525
L34724 21525
" />
<path d="M40275 15974
L40275 21525
" />
<path d="M34724 15974
L40275 15974
" />
<path d="M40349 36525
L40349 30974
" />
<path d="M45900 36525
L40349 36525
" />
<path d="M45900 30974
L45900 36525
" />
<path d="M40349 30974
L45900 30974
" />
<path d="M42224 21525
L42224 15974
" />
<path d="M47775 21525
L42224 21525
" />
<path d="M47775 15974
L47775 21525
" />
<path d="M42224 15974
L47775 15974
" />
<path d="M62849 36525
L62849 30974
" />
<path d="M68400 36525
L62849 36525
" />
<path d="M68400 30974
L68400 36525
" />
<path d="M62849 30974
L68400 30974
" />
<path d="M49724 21525
L49724 15974
" />
<path d="M55275 21525
L49724 21525
" />
<path d="M55275 15974
L55275 21525
" />
<path d="M49724 15974
L55275 15974
" />
<path d="M55349 36525
L55349 30974
" />
<path d="M60900 36525
L55349 36525
" />
<path d="M60900 30974
L60900 36525
" />
<path d="M55349 30974
L60900 30974
" />
<path d="M57224 21525
L57224 15974
" />
<path d="M62775 21525
L57224 21525
" />
<path d="M62775 15974
L62775 21525
" />
<path d="M57224 15974
L62775 15974
" />
<path d="M47849 36525
L47849 30974
" />
<path d="M53400 36525
L47849 36525
" />
<path d="M53400 30974
L53400 36525
" />
<path d="M47849 30974
L53400 30974
" />
<path d="M70349 36525
L70349 30974
" />
<path d="M75900 36525
L70349 36525
" />
<path d="M75900 30974
L75900 36525
" />
<path d="M70349 30974
L75900 30974
" />
<path d="M79724 21525
L79724 15974
" />
<path d="M85275 21525
L79724 21525
" />
<path d="M85275 15974
L85275 21525
" />
<path d="M79724 15974
L85275 15974
" />
<path d="M85349 36525
L85349 30974
" />
<path d="M90900 36525
L85349 36525
" />
<path d="M90900 30974
L90900 36525
" />
<path d="M85349 30974
L90900 30974
" />
<path d="M77849 36525
L77849 30974
" />
<path d="M83400 36525
L77849 36525
" />
<path d="M83400 30974
L83400 36525
" />
<path d="M77849 30974
L83400 30974
" />
<path d="M64724 21525
L64724 15974
" />
<path d="M70275 21525
L64724 21525
" />
<path d="M70275 15974
L70275 21525
" />
<path d="M64724 15974
L70275 15974
" />
<path d="M72224 21525
L72224 15974
" />
<path d="M77775 21525
L72224 21525
" />
<path d="M77775 15974
L77775 21525
" />
<path d="M72224 15974
L77775 15974
" />
<path d="M92849 36525
L92849 30974
" />
<path d="M98400 36525
L92849 36525
" />
<path d="M98400 30974
L98400 36525
" />
<path d="M92849 30974
L98400 30974
" />
<path d="M87224 21525
L87224 15974
" />
<path d="M92775 21525
L87224 21525
" />
<path d="M92775 15974
L92775 21525
" />
<path d="M87224 15974
L92775 15974
" />
<path d="M94724 21525
L94724 15974
" />
<path d="M100275 21525
L94724 21525
" />
<path d="M100275 15974
L100275 21525
" />
<path d="M94724 15974
L100275 15974
" />
<path d="M117224 36525
L117224 30974
" />
<path d="M122775 36525
L117224 36525
" />
<path d="M122775 30974
L122775 36525
" />
<path d="M117224 30974
L122775 30974
" />
<path d="M107849 36525
L107849 30974
" />
<path d="M113400 36525
L107849 36525
" />
<path d="M113400 30974
L113400 36525
" />
<path d="M107849 30974
L113400 30974
" />
<path d="M102224 44025
L102224 38474
" />
<path d="M107775 44025
L102224 44025
" />
<path d="M107775 38474
L107775 44025
" />
<path d="M102224 38474
L107775 38474
" />
<path d="M117224 44025
L117224 38474
" />
<path d="M122775 44025
L117224 44025
" />
<path d="M122775 38474
L122775 44025
" />
<path d="M117224 38474
L122775 38474
" />
<path d="M109724 44025
L109724 38474
" />
<path d="M115275 44025
L109724 44025
" />
<path d="M115275 38474
L115275 44025
" />
<path d="M109724 38474
L115275 38474
" />
<path d="M15974 14025
L15974 8474
" />
<path d="M21525 14025
L15974 14025
" />
<path d="M21525 8474
L21525 14025
" />
<path d="M15974 8474
L21525 8474
" />
<path d="M8474 14025
L8474 8474
" />
<path d="M14025 14025
L8474 14025
" />
<path d="M14025 8474
L14025 14025
" />
<path d="M8474 8474
L14025 8474
" />
<path d="M21599 29025
L21599 23474
" />
<path d="M27150 29025
L21599 29025
" />
<path d="M27150 23474
L27150 29025
" />
<path d="M21599 23474
L27150 23474
" />
<path d="M23474 14025
L23474 8474
" />
<path d="M29025 14025
L23474 14025
" />
<path d="M29025 8474
L29025 14025
" />
<path d="M23474 8474
L29025 8474
" />
<path d="M29099 29025
L29099 23474
" />
<path d="M34650 29025
L29099 29025
" />
<path d="M34650 23474
L34650 29025
" />
<path d="M29099 23474
L34650 23474
" />
<path d="M30974 14025
L30974 8474
" />
<path d="M36525 14025
L30974 14025
" />
<path d="M36525 8474
L36525 14025
" />
<path d="M30974 8474
L36525 8474
" />
<path d="M36599 29025
L36599 23474
" />
<path d="M42150 29025
L36599 29025
" />
<path d="M42150 23474
L42150 29025
" />
<path d="M36599 23474
L42150 23474
" />
<path d="M38474 14025
L38474 8474
" />
<path d="M44025 14025
L38474 14025
" />
<path d="M44025 8474
L44025 14025
" />
<path d="M38474 8474
L44025 8474
" />
<path d="M44099 29025
L44099 23474
" />
<path d="M49650 29025
L44099 29025
" />
<path d="M49650 23474
L49650 29025
" />
<path d="M44099 23474
L49650 23474
" />
<path d="M59099 29025
L59099 23474
" />
<path d="M64650 29025
L59099 29025
" />
<path d="M64650 23474
L64650 29025
" />
<path d="M59099 23474
L64650 23474
" />
<path d="M45974 14025
L45974 8474
" />
<path d="M51525 14025
L45974 14025
" />
<path d="M51525 8474
L51525 14025
" />
<path d="M45974 8474
L51525 8474
" />
<path d="M51599 29025
L51599 23474
" />
<path d="M57150 29025
L51599 29025
" />
<path d="M57150 23474
L57150 29025
" />
<path d="M51599 23474
L57150 23474
" />
<path d="M53474 14025
L53474 8474
" />
<path d="M59025 14025
L53474 14025
" />
<path d="M59025 8474
L59025 14025
" />
<path d="M53474 8474
L59025 8474
" />
<path d="M74099 29025
L74099 23474
" />
<path d="M79650 29025
L74099 29025
" />
<path d="M79650 23474
L79650 29025
" />
<path d="M74099 23474
L79650 23474
" />
<path d="M75974 14025
L75974 8474
" />
<path d="M81525 14025
L75974 14025
" />
<path d="M81525 8474
L81525 14025
" />
<path d="M75974 8474
L81525 8474
" />
<path d="M68474 14025
L68474 8474
" />
<path d="M74025 14025
L68474 14025
" />
<path d="M74025 8474
L74025 14025
" />
<path d="M68474 8474
L74025 8474
" />
<path d="M66599 29025
L66599 23474
" />
<path d="M72150 29025
L66599 29025
" />
<path d="M72150 23474
L72150 29025
" />
<path d="M66599 23474
L72150 23474
" />
<path d="M60974 14025
L60974 8474
" />
<path d="M66525 14025
L60974 14025
" />
<path d="M66525 8474
L66525 14025
" />
<path d="M60974 8474
L66525 8474
" />
<path d="M81599 29025
L81599 23474
" />
<path d="M87150 29025
L81599 29025
" />
<path d="M87150 23474
L87150 29025
" />
<path d="M81599 23474
L87150 23474
" />
<path d="M90974 14025
L90974 8474
" />
<path d="M96525 14025
L90974 14025
" />
<path d="M96525 8474
L96525 14025
" />
<path d="M90974 8474
L96525 8474
" />
<path d="M89099 29025
L89099 23474
" />
<path d="M94650 29025
L89099 29025
" />
<path d="M94650 23474
L94650 29025
" />
<path d="M89099 23474
L94650 23474
" />
<path d="M83474 14025
L83474 8474
" />
<path d="M89025 14025
L83474 14025
" />
<path d="M89025 8474
L89025 14025
" />
<path d="M83474 8474
L89025 8474
" />
<path d="M96599 29025
L96599 23474
" />
<path d="M102150 29025
L96599 29025
" />
<path d="M102150 23474
L102150 29025
" />
<path d="M96599 23474
L102150 23474
" />
<path d="M98474 14025
L98474 8474
" />
<path d="M104025 14025
L98474 14025
" />
<path d="M104025 8474
L104025 14025
" />
<path d="M98474 8474
L104025 8474
" />
<path d="M18786 38474
L24338 38474
" />
<path d="M24338 38474
L24338 44025
" />
<path d="M24338 44025
L18786 44025
" />
<path d="M18786 44025
L18786 38474
" />
<path d="M93786 38474
L99338 38474
" />
<path d="M99338 38474
L99338 44025
" />
<path d="M99338 44025
L93786 44025
" />
<path d="M93786 44025
L93786 38474
" />
<path d="M84411 38474
L89963 38474
" />
<path d="M89963 38474
L89963 44025
" />
<path d="M89963 44025
L84411 44025
" />
<path d="M84411 44025
L84411 38474
" />
<path d="M9411 38474
L14963 38474
" />
<path d="M14963 38474
L14963 44025
" />
<path d="M14963 44025
L9411 44025
" />
<path d="M9411 44025
L9411 38474
" />
<path d="M28161 38474
L33713 38474
" />
<path d="M33713 38474
L33713 44025
" />
<path d="M33713 44025
L28161 44025
" />
<path d="M28161 44025
L28161 38474
" />
<path d="M11286 29025
L11286 23474
" />
<path d="M16838 29025
L11286 29025
" />
<path d="M16838 23474
L16838 29025
" />
<path d="M11286 23474
L16838 23474
" />
<path d="M10349 21525
L10349 15974
" />
<path d="M15900 21525
L10349 21525
" />
<path d="M15900 15974
L15900 21525
" />
<path d="M10349 15974
L15900 15974
" />
</g>
<g style="fill:#C2C200; fill-opacity:0.0; 
stroke:#C2C200; stroke-width:3.93701; stroke-opacity:1; 
stroke-linecap:round; stroke-linejoin:round;">
<circle cx="131630" cy="44413.4" r="433.071" /> 
<circle cx="131756" cy="26460.6" r="433.071" /> 
<circle cx="6913.39" cy="44330.7" r="433.071" /> 
<circle cx="7114.17" cy="26681.1" r="433.071" /> 
<circle cx="6933.07" cy="8145.67" r="433.071" /> 
<g >
</g>
<g >
</g>
<g >
</g>
<g >
</g>
<g >
</g>
<g >
</g>
<g >
</g>
<g >
</g>
<g >
</g>
<g >
</g>
<g >
</g>
<g >
</g>
<g >
</g>
<g >
</g>
<g >
</g>
<g >
</g>
<g >
</g>
<g >
</g>
<g >
</g>
<g >
</g>
<g >
</g>
<g >
</g>
<g >
</g>
<g >
</g>
<g >
</g>
<g >
</g>
<g >
</g>
<g >
</g>
<g >
</g>
<g >
</g>
<g >
</g>
<g >
</g>
<g >
</g>
<g >
</g>
<g >
</g>
<g >
</g>
<g >
</g>
<g >
</g>
<g >
</g>
<g >
</g>
<g >
</g>
<g >
</g>
<g >
</g>
<g >
</g>
<g >
</g>
<g >
</g>
<g >
</g>
<g >
</g>
<g >
</g>
<g >
</g>
<g >
</g>
<g >
</g>
<g >
</g>
<g >
</g>
<g >
</g>
<g >
</g>
<g >
</g>
<g >
</g>
<g >
</g>
<g >
</g>
<g >
</g>
<g >
</g>
<g >
</g>
<g >
</g>
<g >
</g>
<g >
</g>
<g >
</g>
<g >
</g>
<g >
</g>
<g >
</g>
<g >
</g>
<g >
</g>
<g >
</g>
<g >
</g>
<g >
</g>
<g >
</g>
<g >
</g>
<g >
</g>
<g >
</g>
<g >
</g>
<g >
</g>
</g> 
</svg>
